<svg version="1.2" xmlns="http://www.w3.org/2000/svg" viewBox="0 0 900 700" width="900" height="700"><defs><linearGradient id="P" gradientUnits="userSpaceOnUse"/><radialGradient id="g1" cx="430.6" cy="310.8" r="343.4" href="#P"><stop stop-color="#ffec00"/><stop offset="1" stop-color="#f08800"/></radialGradient><radialGradient id="g2" cx="419.4" cy="438.2" r="167.9" href="#P"><stop stop-color="#fff9cb"/><stop offset=".41" stop-color="#ffec00"/><stop offset="1" stop-color="#f08800"/></radialGradient><radialGradient id="g3" cx="505.8" cy="263.1" r="419.4" href="#P"><stop stop-color="#fff"/><stop offset=".59" stop-color="#ffec00"/><stop offset=".83" stop-color="#f08800"/></radialGradient><radialGradient id="g4" cx="321.3" cy="325.3" r="200.6" href="#P"><stop stop-color="#ffec00"/><stop offset="1" stop-color="#f08800"/></radialGradient><radialGradient id="g5" cx="314.2" cy="399.6" r="98.1" href="#P"><stop stop-color="#fff9cb"/><stop offset=".41" stop-color="#ffec00"/><stop offset="1" stop-color="#f08800"/></radialGradient><radialGradient id="g6" cx="365.5" cy="297.7" r="245" href="#P"><stop stop-color="#fff"/><stop offset=".59" stop-color="#ffec00"/><stop offset=".83" stop-color="#f08800"/></radialGradient><radialGradient id="g7" cx="265" cy="229.9" r="106.5" href="#P"><stop stop-color="#eaeaea"/><stop offset="1" stop-color="#3c4143"/></radialGradient><radialGradient id="g8" cx="441.2" cy="194.4" r="195.1" href="#P"><stop stop-color="#eaeaea"/><stop offset="1" stop-color="#7f878c"/></radialGradient><radialGradient id="g9" cx="221.6" cy="200.9" r="105.9" href="#P"><stop stop-color="#eaeaea"/><stop offset="1" stop-color="#3c4143"/></radialGradient><radialGradient id="g10" cx="332.6" cy="265.4" r="117.4" href="#P"><stop stop-color="#eaeaea"/><stop offset="1" stop-color="#3c4143"/></radialGradient><radialGradient id="g11" cx="163.4" cy="185.4" r="97" href="#P"><stop stop-color="#eaeaea"/><stop offset="1" stop-color="#7f878c"/></radialGradient><radialGradient id="g12" cx="303.1" cy="213.1" r="120.2" href="#P"><stop stop-color="#eaeaea"/><stop offset="1" stop-color="#7f878c"/></radialGradient><radialGradient id="g13" cx="643.6" cy="199.4" r="121.4" href="#P"><stop stop-color="#eaeaea"/><stop offset="1" stop-color="#535a5d"/></radialGradient><radialGradient id="g14" cx="611.2" cy="215.9" r="143.9" href="#P"><stop stop-color="#eaeaea"/><stop offset="1" stop-color="#535a5d"/></radialGradient><radialGradient id="g15" cx="644.4" cy="247.6" r="90.4" href="#P"><stop stop-color="#eaeaea"/><stop offset="1" stop-color="#535a5d"/></radialGradient><radialGradient id="g16" cx="438.2" cy="274" r="123.8" href="#P"><stop stop-color="#eaeaea"/><stop offset="1" stop-color="#3c4143"/></radialGradient><radialGradient id="g17" cx="461.3" cy="251.5" r="97" href="#P"><stop stop-color="#eaeaea"/><stop offset="1" stop-color="#535a5d"/></radialGradient><radialGradient id="g18" cx="513" cy="192.5" r="159" href="#P"><stop stop-color="#eaeaea"/><stop offset="1" stop-color="#7f878c"/></radialGradient><radialGradient id="g19" cx="510.1" cy="268" r="134.9" href="#P"><stop stop-color="#eaeaea"/><stop offset="1" stop-color="#3c4143"/></radialGradient><radialGradient id="g20" cx="625.4" cy="258.6" r="93.8" href="#P"><stop stop-color="#eaeaea"/><stop offset="1" stop-color="#3c4143"/></radialGradient><radialGradient id="g21" cx="400.9" cy="186.6" r="123.7" href="#P"><stop stop-color="#eaeaea"/><stop offset="1" stop-color="#535a5d"/></radialGradient><radialGradient id="g22" cx="391.4" cy="20.5" r="102.5" href="#P"><stop stop-color="#eaeaea"/><stop offset="1" stop-color="#9fa8af"/></radialGradient><radialGradient id="g23" cx="232.3" cy="120.1" r="97" href="#P"><stop stop-color="#eaeaea"/><stop offset="1" stop-color="#7f878c"/></radialGradient><radialGradient id="g24" cx="470.7" cy="40.1" r="188.1" href="#P"><stop stop-color="#eaeaea"/><stop offset="1" stop-color="#7f878c"/></radialGradient></defs><style>.a{fill:url(#g1)}.b{fill:url(#g2)}.c{fill:url(#g3)}.d{fill:url(#g4)}.e{fill:url(#g5)}.f{fill:url(#g6)}.g{fill:#eaebec}.h{fill:url(#g7)}.i{fill:url(#g8)}.j{fill:url(#g9)}.k{fill:url(#g10)}.l{fill:url(#g11)}.m{fill:url(#g12)}.n{fill:url(#g13)}.o{fill:url(#g14)}.p{fill:url(#g15)}.q{fill:url(#g16)}.r{fill:url(#g17)}.s{fill:url(#g18)}.t{fill:url(#g19)}.u{fill:url(#g20)}.v{fill:url(#g21)}.w{fill:url(#g22)}.x{fill:url(#g23)}.y{fill:url(#g24)}</style><path class="a" d="m455.2 362.1l-119 190.4 99.8-10.7-94.2 154.6 166.2-195.2-74.7 6.5 91.3-129.7z"/><path class="b" d="m344.6 547.5l85.9-137.5 7.3-0.8-85.9 137.5z"/><path class="c" d="m370.6 656.7l71.8-115.1 8.2-1.3z"/><path class="d" d="m335.4 355.3l-70.4 110.7 58.4-5.8-55.7 89.9 97.9-113.3-43.6 3.5 53.9-75.4z"/><path class="e" d="m270 463.1l50.8-79.9 4.2-0.5-50.8 80z"/><path class="f" d="m284.7 527l42.4-66.9 4.8-0.7z"/><path class="g" d="m200.1 233.8l205.1-171.8 147.1 93.9 123.4 17.1 45.6 79.8-73.4 68.5-99.4 34-121.5 8.6-104.4-14.3-95.9-50.3z"/><path class="h" d="m255.5 349.5c22.5 0.5 41-17.3 41.5-39.8 0.5-22.4-17.3-41-39.8-41.5-22.4-0.5-41 17.3-41.5 39.8-0.4 22.4 17.4 41 39.8 41.5z"/><path class="i" d="m407.3 209.5c-56.8 0-102.7-45.9-102.7-102.7 0-56.9 45.9-102.8 102.7-102.8 56.9 0 102.8 45.9 102.8 102.8 0 56.8-45.9 102.7-102.8 102.7z"/><path class="j" d="m200.1 312.6c38.5 0.8 70.3-29.7 71.1-68.2 0.8-38.4-29.7-70.2-68.1-71.1-38.5-0.8-70.3 29.7-71.1 68.2-0.8 38.4 29.7 70.2 68.1 71.1z"/><path class="k" d="m351.8 411c-56.8 0-102.8-45.9-102.8-102.7 0-56.9 46-102.8 102.8-102.8 56.8 0 102.7 45.9 102.7 102.8 0 56.8-45.9 102.7-102.7 102.7z"/><path class="l" d="m175.3 196.6c21.1-12.1 45.4-12.3 64-2.6-16.9-12.8-39.5-17-60.2-9-29.1 11.1-44.8 42.2-38.7 72.6-1.3-23.3 11.6-47.5 34.9-61z"/><path class="m" d="m268.9 246.7c38.4 0.8 70.2-29.7 71-68.2 0.9-38.4-29.6-70.2-68.1-71-38.4-0.9-70.2 29.6-71 68.1-0.9 38.4 29.6 70.2 68.1 71.1z"/><path class="n" d="m673.4 181.3c-35.6 14.3-53 54.9-38.6 90.6 14.3 35.6 54.8 52.9 90.5 38.6 35.7-14.3 53-54.9 38.7-90.5-14.3-35.7-54.9-53-90.6-38.7z"/><path class="o" d="m656.5 242.9c31.1 0.7 56.9-24 57.6-55.1 0.6-31.1-24.1-56.9-55.2-57.5-31.1-0.7-56.8 24-57.5 55.1-0.6 31.1 24.1 56.9 55.1 57.5z"/><path class="p" d="m673.5 323.6c31.1 0.7 56.9-24 57.6-55.1 0.6-31.1-24.1-56.8-55.2-57.5-31.1-0.6-56.8 24-57.5 55.1-0.6 31.2 24.1 56.9 55.1 57.5z"/><path class="q" d="m437.8 427c38.5 0.8 70.3-29.7 71.1-68.2 0.8-38.4-29.7-70.2-68.1-71-38.5-0.9-70.3 29.7-71.1 68.1-0.8 38.4 29.7 70.3 68.1 71.1z"/><path class="r" d="m431.8 315.9c-23.5 0-42.4-18.9-42.4-42.3 0-23.5 18.9-42.4 42.4-42.4 23.4 0 42.4 18.9 42.4 42.4 0 23.4-19 42.3-42.4 42.3z"/><path class="s" d="m559.8 226.5c49.6 1 90.7-38.3 91.7-87.9 1.1-49.5-38.2-90.6-87.8-91.6-49.6-1.1-90.6 38.3-91.7 87.8-1 49.6 38.3 90.6 87.8 91.7z"/><path class="t" d="m615.3 302.1c-19.6-38.5-66.7-53.8-105.2-34.1-38.4 19.6-53.7 66.6-34.1 105.1 19.6 38.5 66.7 53.7 105.2 34.1 38.4-19.6 53.7-66.7 34.1-105.1z"/><path class="u" d="m647.9 369.4c-26.6 0-48.1-21.5-48.1-48.1 0-26.6 21.5-48.1 48.1-48.1 26.6 0 48.1 21.5 48.1 48.1 0 26.6-21.5 48.1-48.1 48.1z"/><path class="v" d="m361.9 279.8c-33 0-59.7-26.7-59.7-59.7 0-33 26.7-59.7 59.7-59.7 33 0 59.7 26.7 59.7 59.7 0 33-26.7 59.7-59.7 59.7z"/><path class="w" d="m396.2 28.4c35.1-5.4 68.1 6.6 88.4 28.8-16.4-25.4-44.8-42.3-77.2-42.3-45.4 0-83 32.9-90.4 76.1 10.3-31.3 40.5-56.7 79.2-62.6z"/><path class="x" d="m244.5 131.9c21-12.3 45.4-12.1 64.2-1.8-17.2-13.5-39.8-18.2-60.6-10.2-29.1 11.1-44.5 43.1-37.8 74.8-1.7-24.2 10.9-49.2 34.2-62.8z"/><path class="y" d="m565.9 66.5c31.7 1.7 58.5 18.3 72.2 41.4-9.7-25.2-31.6-45.2-60-51.2-39.8-8.3-78.7 13.7-93.2 50.2 14.8-25.6 45.9-42.3 81-40.4z"/></svg>