<svg version="1.2" xmlns="http://www.w3.org/2000/svg" viewBox="0 0 900 700" width="900" height="700"><defs><linearGradient id="P" gradientUnits="userSpaceOnUse"/><radialGradient id="g1" cx="497.7" cy="342" r="69.2" href="#P"><stop stop-color="#fff"/><stop offset="1" stop-color="#a7c6d7"/></radialGradient><radialGradient id="g2" cx="272" cy="219" r="161.9" href="#P"><stop stop-color="#fff"/><stop offset="1" stop-color="#a7c6d7"/></radialGradient><radialGradient id="g3" cx="428.2" cy="125.7" r="138.7" href="#P"><stop stop-color="#fff"/><stop offset="1" stop-color="#a7c6d7"/></radialGradient><radialGradient id="g4" cx="282.3" cy="244.1" r="133.5" href="#P"><stop stop-color="#fff"/><stop offset="1" stop-color="#a7c6d7"/></radialGradient><radialGradient id="g5" cx="386.5" cy="234.5" r="99.7" href="#P"><stop stop-color="#fff"/><stop offset="1" stop-color="#a7c6d7"/></radialGradient><radialGradient id="g6" cx="133.2" cy="259.5" r="136.9" href="#P"><stop stop-color="#fff"/><stop offset="1" stop-color="#a7c6d7"/></radialGradient><radialGradient id="g7" cx="131" cy="236.8" r="119.4" href="#P"><stop stop-color="#fff"/><stop offset="1" stop-color="#a7c6d7"/></radialGradient><radialGradient id="g8" cx="274.5" cy="285" r="102.7" href="#P"><stop stop-color="#fff"/><stop offset="1" stop-color="#a7c6d7"/></radialGradient><radialGradient id="g9" cx="255.3" cy="266.4" r="80.5" href="#P"><stop stop-color="#fff"/><stop offset="1" stop-color="#a7c6d7"/></radialGradient><radialGradient id="g10" cx="212.4" cy="217.4" r="131.9" href="#P"><stop stop-color="#fff"/><stop offset="1" stop-color="#a7c6d7"/></radialGradient><radialGradient id="g11" cx="214.8" cy="280" r="111.9" href="#P"><stop stop-color="#fff"/><stop offset="1" stop-color="#a7c6d7"/></radialGradient><radialGradient id="g12" cx="119.1" cy="272.3" r="77.8" href="#P"><stop stop-color="#fff"/><stop offset="1" stop-color="#a7c6d7"/></radialGradient><radialGradient id="g13" cx="305.4" cy="212.5" r="102.6" href="#P"><stop stop-color="#fff"/><stop offset="1" stop-color="#a7c6d7"/></radialGradient><radialGradient id="g14" cx="467.8" cy="262" r="209.6" href="#P"><stop stop-color="#fff"/><stop offset="1" stop-color="#a7c6d7"/></radialGradient><radialGradient id="g15" cx="89.4" cy="438.6" r="56.9" href="#P"><stop stop-color="#fff"/><stop offset="1" stop-color="#a7c6d7"/></radialGradient><radialGradient id="g16" cx="834.2" cy="477.4" r="63.2" href="#P"><stop stop-color="#fff"/><stop offset="1" stop-color="#a7c6d7"/></radialGradient><radialGradient id="g17" cx="829.7" cy="507.9" r="48.1" href="#P"><stop stop-color="#fff"/><stop offset="1" stop-color="#a7c6d7"/></radialGradient><radialGradient id="g18" cx="402.2" cy="507.1" r="153.4" href="#P"><stop stop-color="#fff"/><stop offset="1" stop-color="#a7c6d7"/></radialGradient><radialGradient id="g19" cx="578.8" cy="471.5" r="175.8" href="#P"><stop stop-color="#fff"/><stop offset="1" stop-color="#84afc5"/></radialGradient><radialGradient id="g20" cx="715.8" cy="370.2" r="118.4" href="#P"><stop stop-color="#fff"/><stop offset="1" stop-color="#a7c6d7"/></radialGradient><radialGradient id="g21" cx="732.9" cy="456" r="160.8" href="#P"><stop stop-color="#fff"/><stop offset="1" stop-color="#a7c6d7"/></radialGradient><radialGradient id="g22" cx="236.9" cy="492.9" r="59.6" href="#P"><stop stop-color="#fff"/><stop offset="1" stop-color="#a7c6d7"/></radialGradient><radialGradient id="g23" cx="442.8" cy="431.4" r="146.2" href="#P"><stop stop-color="#fff"/><stop offset="1" stop-color="#a7c6d7"/></radialGradient><radialGradient id="g24" cx="180.6" cy="469.3" r="53.7" href="#P"><stop stop-color="#fff"/><stop offset="1" stop-color="#a7c6d7"/></radialGradient><radialGradient id="g25" cx="341.7" cy="481.3" r="105.2" href="#P"><stop stop-color="#fff"/><stop offset="1" stop-color="#84afc5"/></radialGradient><radialGradient id="g26" cx="275.4" cy="471.1" r="94.6" href="#P"><stop stop-color="#fff"/><stop offset="1" stop-color="#a7c6d7"/></radialGradient><radialGradient id="g27" cx="729.7" cy="498.4" r="123.5" href="#P"><stop stop-color="#fff"/><stop offset="1" stop-color="#84afc5"/></radialGradient><radialGradient id="g28" cx="631" cy="345.1" r="172.8" href="#P"><stop stop-color="#fff"/><stop offset="1" stop-color="#84afc5"/></radialGradient><radialGradient id="g29" cx="447.2" cy="479.8" r="144.3" href="#P"><stop stop-color="#fff"/><stop offset="1" stop-color="#84afc5"/></radialGradient><radialGradient id="g30" cx="541.4" cy="459.9" r="168.8" href="#P"><stop stop-color="#fff"/><stop offset="1" stop-color="#84afc5"/></radialGradient><radialGradient id="g31" cx="380.2" cy="440" r="146" href="#P"><stop stop-color="#fff"/><stop offset="1" stop-color="#a7c6d7"/></radialGradient><radialGradient id="g32" cx="546.3" cy="370.2" r="179.8" href="#P"><stop stop-color="#fff"/><stop offset="1" stop-color="#a7c6d7"/></radialGradient><radialGradient id="g33" cx="515.6" cy="256.6" r="131.7" href="#P"><stop stop-color="#fff"/><stop offset="1" stop-color="#c7dcea"/></radialGradient><radialGradient id="g34" cx="690.5" cy="224.1" r="90.1" href="#P"><stop stop-color="#fff"/><stop offset="1" stop-color="#e1edf4"/></radialGradient><radialGradient id="g35" cx="309.5" cy="363.4" r="72.9" href="#P"><stop stop-color="#fff"/><stop offset="1" stop-color="#e1edf4"/></radialGradient><radialGradient id="g36" cx="123.1" cy="85.9" r="37.1" href="#P"><stop stop-color="#fff"/><stop offset="1" stop-color="#d5e5f0"/></radialGradient><radialGradient id="g37" cx="355.4" cy="59.2" r="71.7" href="#P"><stop stop-color="#fff"/><stop offset="1" stop-color="#d5e5f0"/></radialGradient><radialGradient id="g38" cx="849.1" cy="367.4" r="42.6" href="#P"><stop stop-color="#fff"/><stop offset="1" stop-color="#e1edf4"/></radialGradient></defs><style>.a{fill:#fff}.b{fill:url(#g1)}.c{fill:url(#g2)}.d{fill:url(#g3)}.e{fill:url(#g4)}.f{fill:url(#g5)}.g{fill:url(#g6)}.h{fill:url(#g7)}.i{fill:url(#g8)}.j{fill:url(#g9)}.k{fill:url(#g10)}.l{fill:url(#g11)}.m{fill:url(#g12)}.n{fill:url(#g13)}.o{fill:url(#g14)}.p{fill:url(#g15)}.q{fill:url(#g16)}.r{fill:url(#g17)}.s{fill:url(#g18)}.t{fill:url(#g19)}.u{fill:url(#g20)}.v{fill:url(#g21)}.w{fill:url(#g22)}.x{fill:url(#g23)}.y{fill:url(#g24)}.z{fill:url(#g25)}.A{fill:url(#g26)}.B{fill:url(#g27)}.C{fill:url(#g28)}.D{fill:url(#g29)}.E{fill:url(#g30)}.F{fill:url(#g31)}.G{fill:url(#g32)}.H{fill:url(#g33)}.I{fill:url(#g34)}.J{fill:url(#g35)}.K{fill:url(#g36)}.L{fill:url(#g37)}.M{fill:url(#g38)}</style><path class="a" d="m472 251.7l-170.1-142.6-122.1 78-102.4 14.2-37.8 66.1 60.9 56.8 82.4 28.3 100.9 7.1 86.6-11.8 79.6-41.8z"/><path class="b" d="m425.3 347.7c-18.6 0-33.7-15.1-33.7-33.8 0-18.6 15.1-33.7 33.7-33.7 18.7 0 33.8 15.1 33.8 33.7 0 18.7-15.1 33.8-33.8 33.8z"/><path class="c" d="m300.1 231.5c-47.2 0-85.3-38.1-85.3-85.2 0-47.2 38.1-85.3 85.3-85.3 47.1 0 85.2 38.1 85.2 85.3 0 47.1-38.1 85.2-85.2 85.2z"/><path class="d" d="m472 317c-31.9 0.7-58.3-24.6-59-56.5-0.6-31.9 24.7-58.3 56.6-59 31.9-0.7 58.3 24.6 58.9 56.5 0.7 31.9-24.6 58.3-56.5 59z"/><path class="e" d="m346.2 398.7c-47.2 0-85.3-38.1-85.3-85.3 0-47.1 38.1-85.2 85.3-85.2 47.1 0 85.2 38.1 85.2 85.2 0 47.2-38.1 85.3-85.2 85.3z"/><path class="f" d="m415 262.3c-31.9 0.7-58.3-24.6-59-56.5-0.7-31.9 24.6-58.3 56.5-59 31.9-0.6 58.3 24.7 59 56.6 0.7 31.9-24.6 58.3-56.5 58.9z"/><path class="g" d="m79.3 208.1c29.6 11.9 44 45.5 32.1 75.1-11.9 29.7-45.6 44-75.2 32.1-29.6-11.9-43.9-45.5-32-75.1 11.9-29.6 45.5-44 75.1-32.1z"/><path class="h" d="m93.3 259.2c-25.8 0.6-47.2-19.9-47.7-45.7-0.6-25.8 19.9-47.2 45.7-47.7 25.8-0.6 47.2 19.9 47.7 45.7 0.6 25.8-19.9 47.2-45.7 47.7z"/><path class="i" d="m274.8 412c-31.9 0.6-58.3-24.7-59-56.6-0.7-31.9 24.7-58.3 56.5-58.9 31.9-0.7 58.3 24.6 59 56.5 0.7 31.9-24.6 58.3-56.5 59z"/><path class="j" d="m279.8 319.8c-19.4 0-35.2-15.7-35.2-35.1 0-19.5 15.8-35.2 35.2-35.2 19.4 0 35.2 15.7 35.2 35.2 0 19.4-15.8 35.1-35.2 35.1z"/><path class="k" d="m173.5 245.6c-41.1 0.9-75.1-31.8-76-72.9-0.9-41.1 31.7-75.2 72.9-76 41.1-0.9 75.1 31.7 76 72.9 0.9 41.1-31.7 75.1-72.9 76z"/><path class="l" d="m127.6 308.3c16.2-31.9 55.3-44.6 87.2-28.3 31.9 16.3 44.6 55.3 28.3 87.2-16.3 32-55.3 44.6-87.2 28.4-32-16.3-44.6-55.4-28.3-87.3z"/><path class="m" d="m100.5 364.2c-22.1 0-39.9-17.9-39.9-39.9 0-22.1 17.8-40 39.9-40 22.1 0 39.9 17.9 39.9 40 0 22-17.8 39.9-39.9 39.9z"/><path class="n" d="m337.8 289.8c-27.4 0-49.6-22.1-49.6-49.5 0-27.4 22.2-49.5 49.6-49.5 27.4 0 49.5 22.1 49.5 49.5 0 27.4-22.1 49.5-49.5 49.5z"/><path class="o" d="m434 269.4c-5.3-0.9-10.9-1.4-16.6-1.4-41.8 0-77.4 26.2-91.3 63.2-23.6 5-43.6 19.5-55.7 39.4-7-2-14.4-3.2-22-3.3-0.2 0-0.9-0.1-1.9-0.1-28 0-53.3 13.5-67.9 34.9 17.3 1.8 42.1-0.7 55.5-11.7 10.7 15 20.9 22 40.7 21.6 16.4-0.4 31.1-7.6 41.3-18.9 9.4 3.6 19.5 5.6 30.1 5.6 34.9 0 65-21 78.1-51.2 0.6 0 1.2 0.2 1.8 0.2 17.7-0.4 31.8-14.5 32.8-32 4.2 0.9 8.6 1.4 13.1 1.3 31.9-0.7 57.2-27.1 56.5-59-0.3-14.8-6.2-28.2-15.7-38.2-33.4 3.1-62.2 22.2-78.8 49.6z"/><path class="a" d="m162.1 470.1l190.4-58.1 55.2-90.5 112.6-17.7 194.3-33.1 81.7 121.5 72.9 99.3-48.6 24.3-234.1 48.6h-165.6l-187.5-47.9z"/><path class="p" d="m116 492.4c-15 0-27.1-8.3-27.1-18.6 0-10.4 12.1-18.7 27.1-18.7 14.9 0 27 8.3 27 18.7 0 10.3-12.1 18.6-27 18.6z"/><path class="q" d="m871 511.9c-16.1 0-29-12.8-29-28.6 0-15.8 12.9-28.6 29-28.6 16 0 29 12.8 29 28.6 0 15.8-13 28.6-29 28.6z"/><path class="r" d="m830.4 565c22.1 0.5 40.4-16.6 40.8-38.3 0.4-21.8-17.2-39.8-39.3-40.3-22.1-0.5-40.4 16.7-40.8 38.4-0.4 21.7 17.2 39.7 39.3 40.2z"/><path class="s" d="m369.4 618.2c21.3 0.5 38.9-16.7 39.3-38.5 0.5-21.7-16.4-39.6-37.6-40.1-21.3-0.4-38.8 16.8-39.3 38.5-0.5 21.7 16.4 39.7 37.6 40.1z"/><path class="t" d="m657.4 615.2c-29 0-52.5-23.5-52.5-52.5 0-29 23.5-52.5 52.5-52.5 29.1 0 52.6 23.5 52.6 52.5 0 29-23.5 52.5-52.6 52.5z"/><path class="u" d="m764.4 402.5c-29 0-52.5-23.5-52.5-52.6 0-29 23.5-52.5 52.5-52.5 29.1 0 52.5 23.5 52.5 52.5 0 29.1-23.4 52.6-52.5 52.6z"/><path class="v" d="m798.9 499.8c-39.4 0-71.3-31.9-71.3-71.4 0-39.4 31.9-71.3 71.3-71.3 39.5 0 71.4 31.9 71.4 71.3 0 39.5-31.9 71.4-71.4 71.4z"/><path class="w" d="m232.6 555.8c24.5 0.5 44.7-16.6 45.2-38.3 0.4-21.7-19-39.8-43.6-40.3-24.5-0.5-44.7 16.7-45.2 38.4-0.4 21.7 19.1 39.7 43.6 40.2z"/><path class="x" d="m417.4 442.7c-42.5 0-77-34.5-77-77.1 0-42.6 34.5-77 77-77 42.6 0 77.1 34.4 77.1 77 0 42.6-34.5 77.1-77.1 77.1z"/><path class="y" d="m161.3 511.6c27.9 0.6 50.9-17.5 51.3-40.5 0.5-22.9-21.7-41.9-49.6-42.5-27.9-0.6-50.9 17.5-51.4 40.4-0.5 22.9 21.8 42 49.7 42.6z"/><path class="z" d="m332.9 593.7c-38.8 0-70.2-31.4-70.2-70.2 0-38.9 31.4-70.2 70.2-70.2 38.8 0 70.2 31.3 70.2 70.2 0 38.8-31.4 70.2-70.2 70.2z"/><path class="A" d="m245.6 497.4c33.4 0.7 61-23.2 61.6-53.4 0.7-30.3-25.9-55.4-59.2-56.1-33.4-0.7-60.9 23.2-61.6 53.5-0.6 30.2 25.9 55.3 59.2 56z"/><path class="B" d="m720.8 483.6c-39 15.7-57.9 59.9-42.2 98.9 15.6 38.9 59.9 57.8 98.9 42.2 38.9-15.7 57.8-59.9 42.2-98.9-15.7-38.9-59.9-57.8-98.9-42.2z"/><path class="C" d="m663.5 409.6c54.1 1.2 98.9-41.7 100-95.9 1.2-54.1-41.7-98.9-95.9-100-54.1-1.2-98.9 41.7-100 95.9-1.2 54.1 41.8 98.9 95.9 100z"/><path class="D" d="m444 631.7c42 1 76.7-32.4 77.6-74.3 0.9-42-32.4-76.8-74.4-77.6-42-0.9-76.7 32.4-77.6 74.3-0.9 42 32.4 76.8 74.4 77.6z"/><path class="E" d="m625.2 514.2c-21.4-42-72.8-58.7-114.8-37.3-42 21.5-58.7 72.9-37.3 114.9 21.5 42 72.9 58.6 114.9 37.2 42-21.4 58.6-72.8 37.2-114.8z"/><path class="F" d="m343.7 480.3c-36 0-65.1-29.2-65.1-65.2 0-36.1 29.1-65.2 65.1-65.2 36.1 0 65.2 29.1 65.2 65.2 0 36-29.1 65.2-65.2 65.2z"/><path class="G" d="m520.9 405.7c45.8 0.9 83.7-35.4 84.7-81.2 0.9-45.8-35.4-83.7-81.2-84.6-45.7-1-83.6 35.3-84.6 81.1-1 45.8 35.4 83.7 81.1 84.7z"/><path class="H" d="m513.6 260.6c28.4-4.4 55.2 5.3 71.6 23.3-13.2-20.6-36.3-34.3-62.6-34.3-36.8 0-67.3 26.7-73.4 61.8 8.4-25.4 32.9-46 64.4-50.8z"/><path class="I" d="m693 240.7c32.3 12 54.6 37.8 61.3 66.2-1.8-29.3-18-57-45.5-72.3-38.4-21.5-85.8-11.3-112.6 21.8 23.6-21.7 61.2-29 96.8-15.7z"/><path class="J" d="m321 370.9c18.7-10 39.6-9.8 55.4-1.3-14.2-11.1-33.5-14.9-51.8-8.5-25.5 9-40.1 34.9-35.7 60.6-0.4-19.6 11.5-39.9 32.1-50.8z"/><path class="K" d="m144.7 118.8c22.4-12 47.7-11.7 66.7-1.5-17.1-13.3-40.4-18-62.4-10.3-30.7 10.8-48.4 42.1-43.1 73.2-0.5-23.8 13.9-48.2 38.8-61.4z"/><path class="L" d="m335.1 90.2c24.9 14.9 39.5 39.7 40.7 64.2 2.9-24.5-6.3-50-26.7-66.9-28.6-23.6-69.5-22.4-96.7 0.9 22.9-14.4 55.1-14.7 82.7 1.8z"/><path class="M" d="m832.9 384.4c20.2 14.9 30.8 37.5 29.8 58.7 4.5-20.9-1.3-43.6-17.5-59.8-22.8-22.7-58.1-25.1-83.5-7.2 20.9-10.5 48.8-8.1 71.2 8.3z"/></svg>