<svg version="1.2" xmlns="http://www.w3.org/2000/svg" viewBox="0 0 900 700" width="900" height="700"><defs><linearGradient id="P" gradientUnits="userSpaceOnUse"/><radialGradient id="g1" cx="670.8" cy="757.7" r="75" href="#P"><stop stop-color="#78bde0"/><stop offset="1" stop-color="#bedbf4"/></radialGradient><radialGradient id="g2" cx="129.4" cy="584" r="176.4" href="#P"><stop stop-color="#78bde0"/><stop offset="1" stop-color="#bedbf4"/></radialGradient><radialGradient id="g3" cx="520.4" cy="615" r="99.6" href="#P"><stop stop-color="#78bde0"/><stop offset="1" stop-color="#bedbf4"/></radialGradient><radialGradient id="g4" cx="217.5" cy="703.4" r="78.2" href="#P"><stop stop-color="#78bde0"/><stop offset="1" stop-color="#bedbf4"/></radialGradient><radialGradient id="g5" cx="181.7" cy="689.8" r="73.6" href="#P"><stop stop-color="#78bde0"/><stop offset="1" stop-color="#bedbf4"/></radialGradient><radialGradient id="g6" cx="738.7" cy="569.4" r="73.6" href="#P"><stop stop-color="#78bde0"/><stop offset="1" stop-color="#bedbf4"/></radialGradient><radialGradient id="g7" cx="388.7" cy="723.5" r="176.4" href="#P"><stop stop-color="#78bde0"/><stop offset="1" stop-color="#bedbf4"/></radialGradient><radialGradient id="g8" cx="112.5" cy="413.6" r="99.8" href="#P"><stop stop-color="#fff"/><stop offset="1" stop-color="#6b9fb8"/></radialGradient><radialGradient id="g9" cx="438.3" cy="236.1" r="233.7" href="#P"><stop stop-color="#fff"/><stop offset="1" stop-color="#a7c6d7"/></radialGradient><radialGradient id="g10" cx="181.9" cy="292.4" r="107.8" href="#P"><stop stop-color="#fff"/><stop offset="1" stop-color="#a7c6d7"/></radialGradient><radialGradient id="g11" cx="104.1" cy="223.9" r="116.2" href="#P"><stop stop-color="#fff"/><stop offset="1" stop-color="#a7c6d7"/></radialGradient><radialGradient id="g12" cx="313.4" cy="309.8" r="178.3" href="#P"><stop stop-color="#fff"/><stop offset="1" stop-color="#6b9fb8"/></radialGradient><radialGradient id="g13" cx="273" cy="258.4" r="144" href="#P"><stop stop-color="#fff"/><stop offset="1" stop-color="#a7c6d7"/></radialGradient><radialGradient id="g14" cx="638.6" cy="294.5" r="197.7" href="#P"><stop stop-color="#fff"/><stop offset="1" stop-color="#a7c6d7"/></radialGradient><radialGradient id="g15" cx="641.9" cy="261.8" r="172.4" href="#P"><stop stop-color="#fff"/><stop offset="1" stop-color="#a7c6d7"/></radialGradient><radialGradient id="g16" cx="432.9" cy="363.1" r="135.1" href="#P"><stop stop-color="#fff"/><stop offset="1" stop-color="#6b9fb8"/></radialGradient><radialGradient id="g17" cx="462.5" cy="304.5" r="116.2" href="#P"><stop stop-color="#fff"/><stop offset="1" stop-color="#a7c6d7"/></radialGradient><radialGradient id="g18" cx="524.4" cy="233.8" r="190.4" href="#P"><stop stop-color="#fff"/><stop offset="1" stop-color="#a7c6d7"/></radialGradient><radialGradient id="g19" cx="523.8" cy="335.2" r="158.4" href="#P"><stop stop-color="#fff"/><stop offset="1" stop-color="#6b9fb8"/></radialGradient><radialGradient id="g20" cx="661.7" cy="336.7" r="104.2" href="#P"><stop stop-color="#fff"/><stop offset="1" stop-color="#6b9fb8"/></radialGradient><radialGradient id="g21" cx="390.1" cy="226.7" r="148.1" href="#P"><stop stop-color="#fff"/><stop offset="1" stop-color="#a7c6d7"/></radialGradient><radialGradient id="g22" cx="369.8" cy="31.1" r="114.3" href="#P"><stop stop-color="#fff"/><stop offset="1" stop-color="#c7dcea"/></radialGradient><radialGradient id="g23" cx="186.6" cy="145.8" r="116.2" href="#P"><stop stop-color="#fff"/><stop offset="1" stop-color="#a7c6d7"/></radialGradient><radialGradient id="g24" cx="472.1" cy="49.9" r="225.3" href="#P"><stop stop-color="#fff"/><stop offset="1" stop-color="#a7c6d7"/></radialGradient></defs><style>.a{fill:url(#g1)}.b{fill:url(#g2)}.c{fill:url(#g3)}.d{fill:url(#g4)}.e{fill:url(#g5)}.f{fill:url(#g6)}.g{fill:url(#g7)}.h{fill:#fff}.i{fill:url(#g8)}.j{fill:url(#g9)}.k{fill:url(#g10)}.l{fill:url(#g11)}.m{fill:url(#g12)}.n{fill:url(#g13)}.o{fill:url(#g14)}.p{fill:url(#g15)}.q{fill:url(#g16)}.r{fill:url(#g17)}.s{fill:url(#g18)}.t{fill:url(#g19)}.u{fill:url(#g20)}.v{fill:url(#g21)}.w{fill:url(#g22)}.x{fill:url(#g23)}.y{fill:url(#g24)}</style><path fill-rule="evenodd" class="a" d="m605.5 597.5l-7.4-4.3 2.9-5 7.4 4.3-1.3-4.9 7.1-1.9 3.2 11.9 3.8 2.2-1.3-4.8 7.1-1.9 3.2 11.9 2.7 1.6 7.8-2.1 4.1-4.1v-3.1l-8.7-8.7 5.1-5.2 3.6 3.5v-4.4l-8.7-8.7 5.1-5.2 3.6 3.6v-8.6h5.8v8.6l3.5-3.6 5.2 5.2-8.7 8.7v4.4l3.5-3.5 5.2 5.2-8.7 8.7v3.1l5.7 5.7 5.6 1.5 2.7-1.6 3.2-11.8 7 1.9-1.2 4.8 3.8-2.2 3.2-11.9 7 1.9-1.3 4.8 7.5-4.3 2.9 5.1-7.4 4.3 4.8 1.3-1.9 7-11.9-3.2-3.8 2.3 4.8 1.2-1.9 7.1-11.9-3.2-2.7 1.6-2.1 7.8 1.5 5.5 2.7 1.6 11.9-3.2 1.9 7.1-4.8 1.3 3.8 2.2 11.9-3.2 1.9 7.1-4.8 1.3 7.4 4.3-2.9 5-7.5-4.3 1.3 4.9-7 1.9-3.2-11.9-3.8-2.2 1.3 4.8-7.1 1.9-3.2-11.9-2.7-1.6-7.8 2.1-4.1 4.1v3.1l8.7 8.7-5.1 5.2-3.6-3.5v4.4l8.7 8.7-5.1 5.1-3.6-3.5v8.6h-5.8v-8.6l-3.6 3.5-5.1-5.1 8.7-8.7v-4.4l-3.6 3.5-5.1-5.2 8.7-8.7v-3.1l-5.8-5.7-5.5-1.5-2.7 1.5-3.2 11.9-7.1-1.9 1.3-4.8-3.8 2.2-3.2 11.9-7.1-1.9 1.3-4.8-7.4 4.3-2.9-5.1 7.4-4.3-4.8-1.3 1.9-7 11.9 3.2 3.8-2.3-4.8-1.2 1.9-7.1 11.8 3.2 2.8-1.6 2.1-7.8-1.5-5.5-2.8-1.6-11.8 3.2-1.9-7.1 4.8-1.3-3.8-2.2-11.9 3.2-1.9-7.1zm31.4 24.4l6.7 1 3 6.1 3-6.1 6.7-1-4.8-4.7 1.1-6.7-6 3.2-6-3.2 1.2 6.7z"/><path fill-rule="evenodd" class="b" d="m80.7 456.9l-9.2-5.4 3.6-6.3 9.3 5.4-1.6-6 8.7-2.4 4 14.8 4.8 2.7-1.7-6 8.8-2.3 4 14.8 3.4 1.9 9.7-2.6 5-5v-3.9l-10.8-10.9 6.4-6.4 4.4 4.4v-5.5l-10.8-10.8 6.4-6.4 4.4 4.4v-10.7h7.3v10.7l4.4-4.4 6.4 6.4-10.8 10.8v5.5l4.4-4.4 6.4 6.4-10.8 10.9v3.9l7.1 7.1 6.9 1.8 3.4-1.9 3.9-14.8 8.8 2.3-1.6 6 4.8-2.7 3.9-14.8 8.8 2.4-1.6 6 9.3-5.4 3.6 6.3-9.2 5.4 5.9 1.6-2.3 8.7-14.8-3.9-4.7 2.7 6 1.7-2.4 8.7-14.8-3.9-3.4 1.9-2.6 9.7 1.9 6.9 3.4 2 14.8-4 2.3 8.8-6 1.6 4.8 2.7 14.7-3.9 2.4 8.8-6 1.6 9.3 5.3-3.7 6.3-9.2-5.3 1.6 6-8.8 2.3-4-14.7-4.7-2.8 1.6 6-8.8 2.4-4-14.8-3.4-2-9.7 2.6-5 5.1v3.9l10.8 10.8-6.4 6.4-4.4-4.4v5.5l10.8 10.9-6.4 6.4-4.4-4.4v10.7h-7.3v-10.7l-4.4 4.4-6.4-6.4 10.8-10.9v-5.5l-4.4 4.4-6.4-6.4 10.8-10.8v-3.9l-7.1-7.1-6.9-1.9-3.4 2-3.9 14.8-8.8-2.4 1.6-6-4.8 2.8-3.9 14.7-8.8-2.3 1.6-6-9.2 5.3-3.7-6.3 9.3-5.3-6-1.6 2.3-8.8 14.8 4 4.8-2.8-6-1.6 2.3-8.8 14.8 4 3.4-2 2.6-9.7-1.9-6.9-3.4-1.9-14.7 3.9-2.4-8.7 6-1.7-4.8-2.7-14.7 4-2.4-8.8zm39.1 30.3l8.3 1.2 3.7 7.6 3.8-7.6 8.3-1.2-6-5.9 1.4-8.3-7.5 4-7.4-4 1.4 8.3z"/><path fill-rule="evenodd" class="c" d="m492.9 543.3l-5.2-3 2-3.6 5.2 3-0.9-3.4 5-1.3 2.2 8.3 2.7 1.6-0.9-3.4 5-1.3 2.2 8.3 1.9 1.1 5.5-1.4 2.8-2.9v-2.2l-6.1-6.1 3.7-3.6 2.4 2.4v-3.1l-6.1-6.1 3.7-3.6 2.4 2.5v-6h4.1v6l2.5-2.5 3.7 3.6-6.2 6.1v3.1l2.5-2.4 3.7 3.6-6.2 6.1v2.2l4.1 4 3.8 1.1 2-1.2 2.2-8.3 4.9 1.3-0.9 3.4 2.7-1.5 2.3-8.4 4.9 1.4-0.9 3.4 5.2-3.1 2.1 3.6-5.2 3 3.4 0.9-1.4 5-8.3-2.3-2.7 1.6 3.4 0.9-1.4 4.9-8.3-2.2-1.9 1.1-1.5 5.5 1.1 3.9 1.9 1.1 8.3-2.2 1.3 4.9-3.3 0.9 2.7 1.6 8.3-2.3 1.3 5-3.4 0.9 5.3 3-2.1 3.6-5.2-3 0.9 3.3-5 1.4-2.2-8.4-2.7-1.5 0.9 3.4-4.9 1.3-2.3-8.3-1.9-1.2-5.5 1.5-2.8 2.9v2.2l6.1 6.1-3.6 3.6-2.5-2.5v3.1l6.1 6.1-3.6 3.6-2.5-2.4v6h-4.1v-6l-2.5 2.4-3.6-3.6 6.1-6.1v-3.1l-2.5 2.5-3.6-3.6 6.1-6.1v-2.2l-4-4-3.9-1.1-1.9 1.1-2.3 8.3-4.9-1.3 0.9-3.4-2.7 1.6-2.2 8.3-5-1.3 0.9-3.4-5.2 3-2.1-3.5 5.3-3-3.4-1 1.3-4.9 8.4 2.2 2.6-1.5-3.4-0.9 1.4-5 8.3 2.3 1.9-1.2 1.5-5.4-1-3.9-2-1.1-8.3 2.2-1.3-4.9 3.4-0.9-2.7-1.6-8.4 2.2-1.3-4.9zm22.1 17.1l4.7 0.7 2.1 4.3 2.1-4.3 4.7-0.7-3.4-3.3 0.8-4.7-4.2 2.2-4.2-2.2 0.8 4.7z"/><path fill-rule="evenodd" class="d" d="m231.5 549.9l-5.2-3 2-3.6 5.2 3-0.9-3.3 5-1.3 2.2 8.2 2.6 1.6-0.9-3.4 5-1.3 2.2 8.3 1.9 1.1 5.5-1.5 2.8-2.8v-2.2l-6.1-6.1 3.6-3.6 2.5 2.5v-3.1l-6.1-6.1 3.6-3.6 2.5 2.5v-6h4.1v6l2.4-2.5 3.6 3.6-6 6.1v3.1l2.4-2.5 3.6 3.6-6 6.1v2.2l4 4 3.8 1 1.9-1.1 2.3-8.3 4.9 1.4-0.9 3.3 2.7-1.5 2.2-8.3 4.9 1.3-0.9 3.4 5.2-3 2.1 3.5-5.2 3 3.3 0.9-1.3 4.9-8.3-2.2-2.7 1.6 3.4 0.9-1.3 4.9-8.3-2.2-1.9 1.1-1.5 5.4 1.1 3.9 1.9 1.1 8.2-2.2 1.4 4.9-3.4 0.9 2.7 1.5 8.3-2.2 1.3 5-3.4 0.9 5.2 3-2 3.5-5.2-3 0.9 3.4-4.9 1.3-2.2-8.3-2.7-1.6 0.9 3.4-5 1.3-2.2-8.3-1.9-1.1-5.4 1.5-2.9 2.8v2.2l6.1 6.1-3.6 3.6-2.5-2.5v3.1l6.1 6.1-3.6 3.6-2.5-2.4v6h-4.1v-6l-2.4 2.4-3.6-3.6 6-6.1v-3.1l-2.4 2.5-3.6-3.6 6-6.1v-2.2l-3.9-4-3.9-1-1.9 1.1-2.2 8.3-5-1.3 0.9-3.4-2.6 1.6-2.3 8.3-4.9-1.4 0.9-3.3-5.2 3-2.1-3.6 5.3-3-3.4-0.9 1.3-4.9 8.3 2.2 2.7-1.5-3.4-0.9 1.3-5 8.3 2.3 1.9-1.1 1.5-5.5-1-3.9-2-1.1-8.2 2.3-1.4-5 3.4-0.9-2.7-1.5-8.3 2.2-1.3-4.9zm21.9 17l4.7 0.7 2.1 4.2 2.1-4.2 4.7-0.7-3.4-3.3 0.8-4.6-4.2 2.2-4.2-2.2 0.8 4.6z"/><path fill-rule="evenodd" class="e" d="m161.4 636.9l-3.8-2.3 1.5-2.6 3.8 2.2-0.6-2.5 3.6-1 1.7 6.2 1.9 1.1-0.6-2.5 3.7-0.9 1.6 6.1 1.4 0.9 4.1-1.1 2.1-2.1v-1.7l-4.5-4.5 2.6-2.7 1.9 1.9v-2.3l-4.5-4.5 2.6-2.7 1.9 1.8v-4.4h3v4.4l1.8-1.8 2.7 2.7-4.5 4.5v2.3l1.8-1.9 2.7 2.7-4.5 4.5v1.7l3 2.9 2.8 0.8 1.5-0.8 1.6-6.2 3.7 1-0.7 2.5 2-1.1 1.6-6.2 3.7 1-0.7 2.5 3.9-2.3 1.5 2.7-3.9 2.2 2.5 0.7-1 3.6-6.1-1.6-2 1.1 2.5 0.7-1 3.7-6.1-1.7-1.5 0.8-1 4.1 0.7 2.8 1.5 0.9 6.1-1.7 1 3.7-2.5 0.6 2 1.2 6.1-1.7 1 3.7-2.5 0.7 3.9 2.2-1.5 2.6-3.9-2.2 0.7 2.5-3.7 1-1.6-6.2-2-1.1 0.6 2.5-3.6 0.9-1.7-6.1-1.4-0.8-4 1.1-2.1 2v1.7l4.5 4.5-2.7 2.7-1.8-1.9v2.3l4.5 4.5-2.7 2.7-1.8-1.8v4.5h-3.1v-4.5l-1.8 1.8-2.7-2.7 4.5-4.5v-2.3l-1.8 1.9-2.7-2.7 4.5-4.5v-1.7l-2.9-2.9-2.9-0.8-1.4 0.8-1.7 6.2-3.6-1 0.6-2.5-1.9 1.2-1.7 6.1-3.6-1 0.6-2.4-3.8 2.2-1.6-2.7 3.9-2.2-2.5-0.7 1-3.6 6.1 1.6 2-1.1-2.5-0.7 1-3.6 6.2 1.6 1.4-0.8 1.1-4.1-0.8-2.8-1.4-0.8-6.2 1.6-1-3.6 2.5-0.7-1.9-1.2-6.2 1.7-1-3.7zm16.3 12.7l3.5 0.5 1.5 3.1 1.6-3.1 3.5-0.5-2.5-2.5 0.5-3.4-3.1 1.6-3.1-1.6 0.6 3.4z"/><path fill-rule="evenodd" class="f" d="m718.4 516.4l-3.9-2.2 1.5-2.6 3.9 2.2-0.7-2.5 3.7-1 1.6 6.2 2 1.1-0.7-2.5 3.7-0.9 1.7 6.1 1.4 0.8 4-1 2.1-2.2v-1.6l-4.5-4.5 2.7-2.7 1.8 1.9v-2.3l-4.5-4.5 2.7-2.7 1.8 1.8v-4.5h3.1v4.5l1.8-1.8 2.7 2.7-4.5 4.5v2.3l1.8-1.9 2.7 2.7-4.5 4.5v1.6l2.9 3 2.9 0.8 1.4-0.8 1.7-6.2 3.6 1-0.7 2.5 2-1.2 1.7-6.1 3.6 1-0.6 2.5 3.8-2.3 1.6 2.7-3.9 2.2 2.5 0.7-1 3.6-6.1-1.6-2 1.1 2.5 0.7-1 3.6-6.2-1.6-1.4 0.8-1.1 4 0.8 2.9 1.4 0.8 6.2-1.6 1 3.7-2.5 0.6 1.9 1.2 6.2-1.7 1 3.7-2.5 0.6 3.8 2.3-1.5 2.6-3.8-2.2 0.6 2.5-3.6 1-1.7-6.2-2-1.2 0.7 2.5-3.7 1-1.6-6.1-1.4-0.8-4 1-2.2 2.1v1.7l4.5 4.5-2.6 2.7-1.9-1.9v2.3l4.5 4.5-2.6 2.7-1.9-1.8v4.4h-3v-4.4l-1.8 1.8-2.7-2.7 4.5-4.5v-2.3l-1.8 1.9-2.7-2.7 4.5-4.5v-1.7l-3-2.9-2.8-0.8-1.4 0.8-1.7 6.2-3.7-1 0.7-2.5-2 1.2-1.6 6.1-3.7-1 0.7-2.5-3.9 2.3-1.5-2.7 3.9-2.2-2.5-0.7 0.9-3.6 6.2 1.6 2-1.1-2.5-0.7 1-3.6 6.1 1.6 1.4-0.8 1.1-4.1-0.7-2.8-1.5-0.8-6.1 1.6-1-3.7 2.5-0.6-2-1.2-6.1 1.7-1-3.7zm16.3 12.7l3.4 0.5 1.6 3.1 1.5-3.1 3.5-0.5-2.5-2.5 0.6-3.4-3.1 1.6-3.1-1.6 0.6 3.4z"/><path fill-rule="evenodd" class="g" d="m340 596.4l-9.3-5.4 3.6-6.3 9.3 5.4-1.6-6 8.8-2.4 3.9 14.8 4.8 2.8-1.6-6 8.8-2.4 3.9 14.8 3.4 1.9 9.7-2.6 5.1-5v-3.9l-10.9-10.8 6.5-6.5 4.4 4.4v-5.5l-10.9-10.8 6.5-6.4 4.4 4.4v-10.7h7.2v10.7l4.4-4.4 6.4 6.4-10.8 10.8v5.5l4.4-4.4 6.4 6.5-10.8 10.8v3.9l7.1 7.1 6.9 1.8 3.4-1.9 4-14.8 8.8 2.4-1.6 6 4.7-2.8 4-14.8 8.8 2.4-1.7 6 9.3-5.4 3.6 6.3-9.2 5.4 6 1.6-2.4 8.8-14.7-4-4.8 2.8 6 1.6-2.4 8.7-14.7-3.9-3.4 1.9-2.6 9.7 1.8 6.9 3.4 2 14.8-4 2.3 8.8-5.9 1.6 4.7 2.8 14.8-4 2.3 8.8-6 1.6 9.3 5.3-3.7 6.4-9.2-5.4 1.6 6-8.8 2.3-3.9-14.7-4.8-2.8 1.6 6-8.8 2.4-3.9-14.8-3.4-2-9.7 2.6-5.1 5.1v3.9l10.9 10.8-6.5 6.4-4.4-4.3v5.5l10.9 10.8-6.5 6.4-4.4-4.4v10.7h-7.2v-10.7l-4.4 4.4-6.5-6.4 10.9-10.8v-5.5l-4.4 4.3-6.5-6.4 10.9-10.8v-3.9l-7.1-7.1-6.9-1.9-3.4 2-4 14.8-8.8-2.4 1.6-6-4.7 2.8-4 14.8-8.8-2.4 1.7-6-9.3 5.4-3.7-6.4 9.3-5.3-6-1.6 2.4-8.8 14.7 4 4.8-2.8-6-1.6 2.4-8.8 14.7 4 3.4-2 2.6-9.7-1.8-6.8-3.4-2-14.8 3.9-2.3-8.7 5.9-1.6-4.7-2.8-14.8 4-2.3-8.8zm39 30.3l8.4 1.3 3.7 7.5 3.7-7.5 8.4-1.3-6.1-5.8 1.5-8.3-7.5 3.9-7.4-3.9 1.4 8.3z"/><path class="h" d="m149.6 283.2l245.6-205.8 176.3 112.6 147.8 20.5 54.6 95.5-88 82-119 40.8-145.5 10.2-125.1-17-114.9-60.3z"/><path class="i" d="m215.9 421.8c26.9 0.6 49.2-20.7 49.8-47.6 0.6-26.9-20.8-49.2-47.7-49.7-26.9-0.6-49.1 20.7-49.7 47.6-0.6 26.9 20.8 49.2 47.6 49.7z"/><path class="j" d="m397.8 254.2c-68 0-123.1-55-123.1-123.1 0-68.1 55.1-123.1 123.1-123.1 68.1 0 123.1 55 123.1 123.1 0 68.1-55 123.1-123.1 123.1z"/><path class="k" d="m149.6 377.6c46 1 84.2-35.6 85.2-81.6 0.9-46.1-35.6-84.2-81.7-85.2-46-0.9-84.1 35.6-85.1 81.7-1 46 35.6 84.1 81.6 85.1z"/><path class="l" d="m118.4 237.4c25.2-14.6 54.2-14.8 76.5-3.1-20.2-15.4-47.2-20.4-72.1-10.8-34.8 13.3-53.7 50.5-46.3 87-1.6-28 13.9-57 41.9-73.1z"/><path class="m" d="m331.2 495.5c-68 0-123-55-123-123.1 0-68 55-123 123-123 68.1 0 123.1 55 123.1 123 0 68.1-55 123.1-123.1 123.1z"/><path class="n" d="m232 298.6c46 1 84.1-35.5 85.1-81.5 1-46.1-35.6-84.2-81.6-85.2-46-1-84.2 35.6-85.1 81.6-1 46.1 35.5 84.2 81.6 85.1z"/><path class="o" d="m716.5 220.4c-42.7 17.1-63.4 65.7-46.3 108.4 17.2 42.8 65.8 63.5 108.5 46.3 42.7-17.1 63.4-65.7 46.3-108.4-17.2-42.8-65.7-63.5-108.5-46.3z"/><path class="p" d="m696.3 294.2c37.2 0.8 68.1-28.8 68.9-66.1 0.8-37.2-28.8-68.1-66.1-68.8-37.2-0.8-68 28.7-68.8 66-0.8 37.2 28.8 68.1 66 68.9z"/><path class="q" d="m434.3 514.6c46.1 1 84.2-35.5 85.1-81.6 1-46-35.5-84.1-81.5-85.1-46.1-1-84.2 35.6-85.2 81.6-1 46 35.6 84.2 81.6 85.1z"/><path class="r" d="m427.1 381.6c-28.1 0-50.8-22.6-50.8-50.7 0-28.1 22.7-50.8 50.8-50.8 28 0 50.7 22.7 50.7 50.8 0 28.1-22.7 50.7-50.7 50.7z"/><path class="s" d="m580.5 274.5c59.4 1.2 108.5-45.9 109.8-105.2 1.2-59.4-45.9-108.5-105.3-109.8-59.3-1.3-108.4 45.8-109.7 105.2-1.3 59.4 45.8 108.5 105.2 109.8z"/><path class="t" d="m646.9 365c-23.5-46-79.9-64.3-126-40.8-46 23.5-64.3 79.8-40.8 125.9 23.5 46.1 79.9 64.4 125.9 40.9 46.1-23.5 64.4-79.9 40.9-126z"/><path class="u" d="m685.9 445.7c-31.9 0-57.6-25.8-57.6-57.7 0-31.8 25.7-57.6 57.6-57.6 31.9 0 57.6 25.8 57.6 57.6 0 31.9-25.7 57.7-57.6 57.7z"/><path class="v" d="m343.4 338.4c-39.6 0-71.5-32-71.5-71.6 0-39.5 31.9-71.5 71.5-71.5 39.5 0 71.5 32 71.5 71.5 0 39.6-32 71.6-71.5 71.6z"/><path class="w" d="m382.9 35.9c42-6.4 81.6 7.9 105.8 34.5-19.5-30.4-53.6-50.6-92.5-50.6-54.3 0-99.3 39.4-108.2 91.1 12.4-37.5 48.5-67.9 94.9-75z"/><path class="x" d="m201.2 159.9c25.2-14.7 54.4-14.6 76.9-2.2-20.6-16.2-47.8-21.7-72.7-12.2-34.8 13.3-53.2 51.6-45.2 89.6-2-29 13.1-58.9 41-75.2z"/><path class="y" d="m586.2 81.5c37.9 2.1 70 21.9 86.4 49.6-11.6-30.2-37.8-54.2-71.8-61.3-47.7-9.9-94.3 16.4-111.7 60.2 17.8-30.7 55-50.8 97.1-48.5z"/></svg>