<svg version="1.2" xmlns="http://www.w3.org/2000/svg" viewBox="0 0 900 700" width="900" height="700"><defs><linearGradient id="P" gradientUnits="userSpaceOnUse"/><radialGradient id="g1" cx="440" cy="329.1" r="335.5" href="#P"><stop stop-color="#a7c0ce"/><stop offset="1" stop-color="#fff"/></radialGradient><radialGradient id="g2" cx="440" cy="329.1" r="335.5" href="#P"><stop stop-color="#a7c0ce"/><stop offset="1" stop-color="#fff"/></radialGradient><radialGradient id="g3" cx="440" cy="329.1" r="335.5" href="#P"><stop stop-color="#a7c0ce"/><stop offset="1" stop-color="#fff"/></radialGradient><radialGradient id="g4" cx="439.9" cy="329.1" r="335.5" href="#P"><stop stop-color="#a7c0ce"/><stop offset="1" stop-color="#fff"/></radialGradient><radialGradient id="g5" cx="440.1" cy="329.2" r="335.5" href="#P"><stop stop-color="#a7c0ce"/><stop offset="1" stop-color="#fff"/></radialGradient><radialGradient id="g6" cx="427.3" cy="329.2" r="335.5" href="#P"><stop stop-color="#a7c0ce"/><stop offset="1" stop-color="#fff"/></radialGradient><radialGradient id="g7" cx="427.2" cy="329.1" r="335.5" href="#P"><stop stop-color="#a7c0ce"/><stop offset="1" stop-color="#fff"/></radialGradient><radialGradient id="g8" cx="427.1" cy="329.1" r="335.5" href="#P"><stop stop-color="#a7c0ce"/><stop offset="1" stop-color="#fff"/></radialGradient><radialGradient id="g9" cx="427.1" cy="329.1" r="335.6" href="#P"><stop stop-color="#a7c0ce"/><stop offset="1" stop-color="#fff"/></radialGradient><radialGradient id="g10" cx="427" cy="329" r="335.6" href="#P"><stop stop-color="#a7c0ce"/><stop offset="1" stop-color="#fff"/></radialGradient><radialGradient id="g11" cx="679" cy="423.1" r="35.4" href="#P"><stop stop-color="#d9e3e9"/><stop offset=".46" stop-color="#99b2c0"/><stop offset=".71" stop-color="#516873"/></radialGradient><radialGradient id="g12" cx="669.5" cy="438.9" r=".1" href="#P"><stop stop-color="#fff"/><stop offset=".68" stop-color="#aedef8"/><stop offset="1" stop-color="#009ee2"/></radialGradient><radialGradient id="g13" cx="677.1" cy="410.5" r="123.3" href="#P"><stop stop-color="#fff"/><stop offset=".38" stop-color="#95bdd2"/><stop offset=".71" stop-color="#3d758b"/></radialGradient><radialGradient id="g14" cx="567.1" cy="470.1" r="34.8" href="#P"><stop stop-color="#d9e3e9"/><stop offset=".46" stop-color="#99b2c0"/><stop offset=".71" stop-color="#516873"/></radialGradient><radialGradient id="g15" cx="557.7" cy="485.7" r=".1" href="#P"><stop stop-color="#fff"/><stop offset=".68" stop-color="#aedef8"/><stop offset="1" stop-color="#009ee2"/></radialGradient><radialGradient id="g16" cx="565.2" cy="457.7" r="121.3" href="#P"><stop stop-color="#fff"/><stop offset=".38" stop-color="#95bdd2"/><stop offset=".71" stop-color="#3d758b"/></radialGradient><radialGradient id="g17" cx="336.2" cy="463.4" r="34.8" href="#P"><stop stop-color="#d9e3e9"/><stop offset=".46" stop-color="#99b2c0"/><stop offset=".71" stop-color="#516873"/></radialGradient><radialGradient id="g18" cx="326.8" cy="478.9" r=".1" href="#P"><stop stop-color="#fff"/><stop offset=".68" stop-color="#aedef8"/><stop offset="1" stop-color="#009ee2"/></radialGradient><radialGradient id="g19" cx="334.2" cy="451" r="121.3" href="#P"><stop stop-color="#fff"/><stop offset=".38" stop-color="#95bdd2"/><stop offset=".71" stop-color="#3d758b"/></radialGradient><radialGradient id="g20" cx="241.6" cy="498.2" r="34.8" href="#P"><stop stop-color="#d9e3e9"/><stop offset=".46" stop-color="#99b2c0"/><stop offset=".71" stop-color="#516873"/></radialGradient><radialGradient id="g21" cx="232.2" cy="513.8" r=".1" href="#P"><stop stop-color="#fff"/><stop offset=".68" stop-color="#aedef8"/><stop offset="1" stop-color="#009ee2"/></radialGradient><radialGradient id="g22" cx="239.7" cy="485.8" r="121.3" href="#P"><stop stop-color="#fff"/><stop offset=".38" stop-color="#95bdd2"/><stop offset=".71" stop-color="#3d758b"/></radialGradient><radialGradient id="g23" cx="217.1" cy="403.5" r="34.8" href="#P"><stop stop-color="#d9e3e9"/><stop offset=".46" stop-color="#99b2c0"/><stop offset=".71" stop-color="#516873"/></radialGradient><radialGradient id="g24" cx="207.8" cy="419" r=".1" href="#P"><stop stop-color="#fff"/><stop offset=".68" stop-color="#aedef8"/><stop offset="1" stop-color="#009ee2"/></radialGradient><radialGradient id="g25" cx="215.2" cy="391.1" r="121.3" href="#P"><stop stop-color="#fff"/><stop offset=".38" stop-color="#95bdd2"/><stop offset=".71" stop-color="#3d758b"/></radialGradient><radialGradient id="g26" cx="426.3" cy="493.5" r="56.9" href="#P"><stop stop-color="#d9e3e9"/><stop offset=".46" stop-color="#99b2c0"/><stop offset=".71" stop-color="#516873"/></radialGradient><radialGradient id="g27" cx="411" cy="518.9" r=".1" href="#P"><stop stop-color="#fff"/><stop offset=".68" stop-color="#aedef8"/><stop offset="1" stop-color="#009ee2"/></radialGradient><radialGradient id="g28" cx="423.1" cy="473.2" r="198.2" href="#P"><stop stop-color="#fff"/><stop offset=".38" stop-color="#95bdd2"/><stop offset=".71" stop-color="#3d758b"/></radialGradient><radialGradient id="g29" cx="625.5" cy="521.1" r="38.8" href="#P"><stop stop-color="#d9e3e9"/><stop offset=".46" stop-color="#99b2c0"/><stop offset=".71" stop-color="#516873"/></radialGradient><radialGradient id="g30" cx="615.1" cy="538.4" r=".1" href="#P"><stop stop-color="#fff"/><stop offset=".68" stop-color="#aedef8"/><stop offset="1" stop-color="#009ee2"/></radialGradient><radialGradient id="g31" cx="623.4" cy="507.3" r="135.2" href="#P"><stop stop-color="#fff"/><stop offset=".38" stop-color="#95bdd2"/><stop offset=".71" stop-color="#3d758b"/></radialGradient><radialGradient id="g32" cx="447.6" cy="309.2" r="346.7" href="#P"><stop stop-color="#ffec00"/><stop offset="1" stop-color="#f08800"/></radialGradient><radialGradient id="g33" cx="436.2" cy="437.7" r="169.5" href="#P"><stop stop-color="#fff9cb"/><stop offset=".41" stop-color="#ffec00"/><stop offset="1" stop-color="#f08800"/></radialGradient><radialGradient id="g34" cx="523.5" cy="261.1" r="423.2" href="#P"><stop stop-color="#fff"/><stop offset=".59" stop-color="#ffec00"/><stop offset=".83" stop-color="#f08800"/></radialGradient><radialGradient id="g35" cx="280.2" cy="229.5" r="107.5" href="#P"><stop stop-color="#eaeaea"/><stop offset="1" stop-color="#3c4143"/></radialGradient><radialGradient id="g36" cx="458.1" cy="193.7" r="196.9" href="#P"><stop stop-color="#eaeaea"/><stop offset="1" stop-color="#7f878c"/></radialGradient><radialGradient id="g37" cx="236.4" cy="200.3" r="106.9" href="#P"><stop stop-color="#eaeaea"/><stop offset="1" stop-color="#3c4143"/></radialGradient><radialGradient id="g38" cx="348.5" cy="265.4" r="118.5" href="#P"><stop stop-color="#eaeaea"/><stop offset="1" stop-color="#3c4143"/></radialGradient><radialGradient id="g39" cx="177.7" cy="184.6" r="97.9" href="#P"><stop stop-color="#eaeaea"/><stop offset="1" stop-color="#7f878c"/></radialGradient><radialGradient id="g40" cx="318.8" cy="212.5" r="121.3" href="#P"><stop stop-color="#eaeaea"/><stop offset="1" stop-color="#7f878c"/></radialGradient><radialGradient id="g41" cx="662.4" cy="198.8" r="122.6" href="#P"><stop stop-color="#eaeaea"/><stop offset="1" stop-color="#535a5d"/></radialGradient><radialGradient id="g42" cx="629.7" cy="215.4" r="145.3" href="#P"><stop stop-color="#eaeaea"/><stop offset="1" stop-color="#535a5d"/></radialGradient><radialGradient id="g43" cx="663.2" cy="247.4" r="91.3" href="#P"><stop stop-color="#eaeaea"/><stop offset="1" stop-color="#535a5d"/></radialGradient><radialGradient id="g44" cx="455.1" cy="274" r="124.9" href="#P"><stop stop-color="#eaeaea"/><stop offset="1" stop-color="#3c4143"/></radialGradient><radialGradient id="g45" cx="478.4" cy="251.3" r="98" href="#P"><stop stop-color="#eaeaea"/><stop offset="1" stop-color="#535a5d"/></radialGradient><radialGradient id="g46" cx="530.6" cy="191.8" r="160.5" href="#P"><stop stop-color="#eaeaea"/><stop offset="1" stop-color="#7f878c"/></radialGradient><radialGradient id="g47" cx="527.7" cy="267.9" r="136.2" href="#P"><stop stop-color="#eaeaea"/><stop offset="1" stop-color="#3c4143"/></radialGradient><radialGradient id="g48" cx="644.1" cy="258.5" r="94.6" href="#P"><stop stop-color="#eaeaea"/><stop offset="1" stop-color="#3c4143"/></radialGradient><radialGradient id="g49" cx="417.4" cy="185.8" r="124.8" href="#P"><stop stop-color="#eaeaea"/><stop offset="1" stop-color="#535a5d"/></radialGradient><radialGradient id="g50" cx="407.8" cy="18.2" r="103.5" href="#P"><stop stop-color="#eaeaea"/><stop offset="1" stop-color="#9fa8af"/></radialGradient><radialGradient id="g51" cx="247.2" cy="118.7" r="97.9" href="#P"><stop stop-color="#eaeaea"/><stop offset="1" stop-color="#7f878c"/></radialGradient><radialGradient id="g52" cx="487.9" cy="37.9" r="189.9" href="#P"><stop stop-color="#eaeaea"/><stop offset="1" stop-color="#7f878c"/></radialGradient></defs><style>.a{fill:url(#g1)}.b{fill:url(#g2)}.c{fill:url(#g3)}.d{fill:url(#g4)}.e{fill:url(#g5)}.f{fill:url(#g6)}.g{fill:url(#g7)}.h{fill:url(#g8)}.i{fill:url(#g9)}.j{fill:url(#g10)}.k{fill:url(#g11)}.l{fill:url(#g12)}.m{fill:url(#g13)}.n{fill:url(#g14)}.o{fill:url(#g15)}.p{fill:url(#g16)}.q{fill:url(#g17)}.r{fill:url(#g18)}.s{fill:url(#g19)}.t{fill:url(#g20)}.u{fill:url(#g21)}.v{fill:url(#g22)}.w{fill:url(#g23)}.x{fill:url(#g24)}.y{fill:url(#g25)}.z{fill:url(#g26)}.A{fill:url(#g27)}.B{fill:url(#g28)}.C{fill:url(#g29)}.D{fill:url(#g30)}.E{fill:url(#g31)}.F{fill:url(#g32)}.G{fill:url(#g33)}.H{fill:url(#g34)}.I{fill:#eaebec}.J{fill:url(#g35)}.K{fill:url(#g36)}.L{fill:url(#g37)}.M{fill:url(#g38)}.N{fill:url(#g39)}.O{fill:url(#g40)}.P{fill:url(#g41)}.Q{fill:url(#g42)}.R{fill:url(#g43)}.S{fill:url(#g44)}.T{fill:url(#g45)}.U{fill:url(#g46)}.V{fill:url(#g47)}.W{fill:url(#g48)}.X{fill:url(#g49)}.Y{fill:url(#g50)}.Z{fill:url(#g51)}.a0{fill:url(#g52)}</style><path class="a" d="m195.6 560.3l-5-3.2 228.1-359.5 4.9 3.1z"/><path class="b" d="m261.9 560.3l-5-3.2 228-359.5 5 3.1z"/><path class="c" d="m328.2 560.3l-5-3.2 228-359.5 5 3.1z"/><path class="d" d="m394.5 560.3l-5-3.2 228-359.5 5 3.1z"/><path class="e" d="m460.8 560.3l-5-3.2 228-359.5 5 3.1z"/><path class="f" d="m182.8 560.3l-5-3.2 228-359.5 5 3.1z"/><path class="g" d="m249 560.3l-5-3.2 228.1-359.5 5 3.1z"/><path class="h" d="m315.3 560.3l-5-3.2 228.1-359.5 5 3.1z"/><path class="i" d="m381.6 560.3l-5-3.2 228.1-359.5 5 3.1z"/><path class="j" d="m447.9 560.3l-5-3.2 228.1-359.5 5 3.1z"/><path class="k" d="m692.4 413.1c-1.3-7.6-0.1-13.7 1.9-19.1-3.5 4.5-8 8.8-15.1 11.7-6.4 2.7-11.3 5.4-14.6 11.4-4.6 8.2-2.3 18 4.8 22q0 0 0 0l0.2-0.3-0.2 0.3q0 0 0 0c7.1 3.9 16.7 0.6 21.2-7.6 3.3-5.9 3-11.6 1.8-18.4z"/><path class="l" d="m669.6 438.8l-0.1 0.1 0.1-0.1z"/><path class="m" d="m668.2 415.8c0 0 3.5-5.8 13.4-9.5 0 0-2.9 1.9-3.7 5.4 0 0-6.1 1.1-9.7 4.1z"/><path class="n" d="m580.3 460.3c-1.3-7.5-0.1-13.5 1.8-18.8-3.4 4.5-7.8 8.7-14.8 11.6-6.3 2.6-11.2 5.3-14.4 11.1-4.5 8.1-2.2 17.8 4.7 21.6l0.2-0.3-0.1 0.4q0 0 0 0c6.9 3.8 16.3 0.5 20.8-7.5 3.2-5.9 2.9-11.4 1.8-18.1z"/><path class="o" d="m557.8 485.6l-0.1 0.1 0.1-0.2z"/><path class="p" d="m556.5 463c0 0 3.4-5.7 13.2-9.4 0 0-3 1.9-3.7 5.4 0 0-6 1-9.5 4z"/><path class="q" d="m349.4 453.6c-1.3-7.5-0.2-13.5 1.8-18.8-3.5 4.4-7.8 8.7-14.9 11.5-6.3 2.6-11.1 5.3-14.4 11.2-4.4 8-2.2 17.7 4.8 21.6q0 0 0 0l0.1-0.3-0.1 0.3q0 0 0 0c7 3.9 16.4 0.6 20.8-7.4 3.3-5.9 3-11.4 1.9-18.1z"/><path class="r" d="m326.9 478.8l-0.1 0.2 0.1-0.2z"/><path class="s" d="m325.6 456.3c0 0 3.4-5.8 13.1-9.5 0 0-2.9 1.9-3.7 5.4 0 0-5.9 1.1-9.4 4.1z"/><path class="t" d="m254.8 488.4c-1.3-7.5-0.2-13.5 1.8-18.8-3.4 4.5-7.8 8.7-14.9 11.6-6.3 2.6-11.1 5.3-14.3 11.1-4.5 8.1-2.3 17.8 4.7 21.6q0 0 0 0l0.2-0.3-0.2 0.4q0 0 0.1 0c6.9 3.8 16.3 0.5 20.8-7.5 3.2-5.9 2.9-11.4 1.8-18.1z"/><path class="u" d="m232.3 513.7l-0.1 0.1 0.1-0.2z"/><path class="v" d="m231 491.1c0 0 3.4-5.7 13.1-9.4 0 0-2.9 1.9-3.7 5.4 0 0-5.9 1-9.4 4z"/><path class="w" d="m230.3 393.7c-1.3-7.5-0.1-13.5 1.9-18.8-3.5 4.5-7.9 8.7-14.9 11.5-6.3 2.6-11.1 5.3-14.4 11.2-4.4 8-2.2 17.8 4.7 21.6q0.1 0 0.1 0l0.1-0.3-0.1 0.3q0 0 0 0c6.9 3.9 16.4 0.6 20.8-7.4 3.3-5.9 3-11.4 1.8-18.1z"/><path class="x" d="m207.8 418.9v0.2-0.2z"/><path class="y" d="m206.5 396.4c0 0 3.5-5.8 13.2-9.5 0 0-2.9 1.9-3.7 5.4 0 0-5.9 1.1-9.5 4.1z"/><path class="z" d="m447.8 477.4c-2.1-12.2-0.2-22.1 3-30.7-5.6 7.3-12.8 14.2-24.3 18.9-10.3 4.2-18.2 8.6-23.5 18.2-7.2 13.1-3.6 29 7.8 35.3l0.2-0.5-0.2 0.6q0 0 0.1 0c11.3 6.2 26.7 0.9 34-12.2 5.3-9.6 4.8-18.7 2.9-29.6z"/><path class="A" d="m411.1 518.7l-0.1 0.2 0.1-0.3z"/><path class="B" d="m409 481.8c0 0 5.6-9.4 21.5-15.4 0 0-4.8 3.1-6.1 8.8 0 0-9.7 1.7-15.4 6.6z"/><path class="C" d="m640.2 510.1c-1.4-8.3-0.2-15 2-20.9-3.8 5-8.7 9.7-16.5 12.9-7 2.9-12.4 5.9-16.1 12.4-4.9 9-2.4 19.8 5.3 24.1l0.2-0.3-0.1 0.3q0 0 0 0c7.7 4.3 18.2 0.7 23.2-8.3 3.6-6.5 3.3-12.7 2-20.2z"/><path class="D" d="m615.1 538.3l-0.1 0.1 0.1-0.1z"/><path class="E" d="m613.7 513.2c0 0 3.8-6.4 14.6-10.6 0 0-3.2 2.1-4.1 6 0 0-6.6 1.2-10.5 4.6z"/><path class="F" d="m472.4 361l-120.2 192.1 100.8-10.7-95.1 155.9 167.7-197-75.4 6.6 92.2-131z"/><path class="G" d="m360.7 548l86.7-138.8 7.4-0.8-86.8 138.8z"/><path class="H" d="m386.9 658.3l72.5-116.2 8.3-1.3z"/><path class="I" d="m214.8 233.4l206.9-173.4 148.6 94.9 124.6 17.2 45.9 80.5-74.1 69.2-100.2 34.3-122.7 8.6-105.4-14.3-96.8-50.8z"/><path class="J" d="m270.7 350.3c22.6 0.4 41.4-17.5 41.9-40.2 0.4-22.7-17.5-41.4-40.2-41.9-22.7-0.5-41.4 17.5-41.9 40.1-0.5 22.7 17.5 41.5 40.2 42z"/><path class="K" d="m423.9 208.9c-57.3 0-103.7-46.3-103.7-103.7 0-57.3 46.4-103.7 103.7-103.7 57.4 0 103.8 46.4 103.8 103.7 0 57.4-46.4 103.7-103.8 103.7z"/><path class="L" d="m214.8 312.9c38.8 0.9 70.9-29.9 71.7-68.7 0.8-38.8-30-70.9-68.8-71.8-38.8-0.8-70.9 30-71.7 68.8-0.8 38.8 30 70.9 68.8 71.7z"/><path class="M" d="m367.8 412.3c-57.3 0-103.7-46.3-103.7-103.7 0-57.3 46.4-103.7 103.7-103.7 57.4 0 103.8 46.4 103.8 103.7 0 57.4-46.4 103.7-103.8 103.7z"/><path class="N" d="m189.8 195.9c21.2-12.2 45.7-12.4 64.5-2.6-17.1-12.9-39.8-17.2-60.8-9.1-29.3 11.2-45.2 42.6-39 73.3-1.3-23.5 11.7-48 35.3-61.6z"/><path class="O" d="m284.2 246.4c38.8 0.9 70.9-29.9 71.7-68.7 0.8-38.8-30-70.9-68.7-71.8-38.9-0.8-71 30-71.8 68.8-0.8 38.8 30 70.9 68.8 71.7z"/><path class="P" d="m692.5 180.5c-36 14.4-53.5 55.4-39 91.4 14.5 36 55.4 53.5 91.4 39 36-14.5 53.5-55.4 39-91.4-14.4-36-55.4-53.5-91.4-39z"/><path class="Q" d="m675.5 242.6c31.4 0.7 57.4-24.2 58.1-55.6 0.6-31.4-24.3-57.4-55.7-58-31.4-0.7-57.4 24.2-58 55.6-0.7 31.4 24.2 57.4 55.6 58z"/><path class="R" d="m692.6 324.2c31.4 0.6 57.4-24.3 58.1-55.7 0.7-31.4-24.3-57.4-55.7-58-31.3-0.7-57.3 24.2-58 55.6-0.7 31.4 24.3 57.4 55.6 58.1z"/><path class="S" d="m454.7 428.5c38.8 0.8 70.9-30 71.7-68.8 0.9-38.8-29.9-70.9-68.7-71.7-38.8-0.9-70.9 29.9-71.8 68.7-0.8 38.8 30 70.9 68.8 71.8z"/><path class="T" d="m448.6 316.4c-23.7 0-42.8-19.1-42.8-42.8 0-23.6 19.1-42.8 42.8-42.8 23.7 0 42.8 19.2 42.8 42.8 0 23.7-19.1 42.8-42.8 42.8z"/><path class="U" d="m577.9 226.1c50 1 91.4-38.7 92.5-88.7 1.1-50-38.6-91.4-88.7-92.5-50-1.1-91.4 38.6-92.5 88.7-1 50 38.7 91.4 88.7 92.5z"/><path class="V" d="m633.8 302.4c-19.8-38.8-67.3-54.3-106.1-34.5-38.8 19.8-54.2 67.4-34.4 106.2 19.7 38.8 67.3 54.2 106.1 34.4 38.8-19.8 54.2-67.3 34.4-106.1z"/><path class="W" d="m666.7 370.3c-26.8 0-48.5-21.7-48.5-48.5 0-26.9 21.7-48.6 48.5-48.6 26.9 0 48.6 21.7 48.6 48.6 0 26.8-21.7 48.5-48.6 48.5z"/><path class="X" d="m378.1 279.9c-33.4 0-60.3-26.9-60.3-60.3 0-33.3 26.9-60.2 60.3-60.2 33.3 0 60.2 26.9 60.2 60.2 0 33.4-26.9 60.3-60.2 60.3z"/><path class="Y" d="m412.7 26.1c35.4-5.4 68.8 6.7 89.2 29.1-16.5-25.7-45.2-42.7-78-42.7-45.7 0-83.7 33.2-91.2 76.9 10.4-31.7 40.9-57.3 80-63.3z"/><path class="Z" d="m259.5 130.6c21.3-12.4 45.9-12.2 64.9-1.8-17.4-13.7-40.3-18.4-61.2-10.3-29.4 11.2-44.9 43.5-38.2 75.5-1.7-24.5 11-49.6 34.5-63.4z"/><path class="a0" d="m584 64.6c32 1.7 59 18.4 72.9 41.8-9.8-25.5-31.9-45.7-60.6-51.7-40.1-8.4-79.5 13.8-94.1 50.7 15-25.9 46.4-42.7 81.8-40.8z"/></svg>