<svg version="1.2" xmlns="http://www.w3.org/2000/svg" viewBox="0 0 900 700" width="900" height="700"><defs><linearGradient id="P" gradientUnits="userSpaceOnUse"/><radialGradient id="g1" cx="487.5" cy="199.7" r="628.7" href="#P"><stop stop-color="#cac9c9"/><stop offset="1" stop-color="#fff"/></radialGradient><radialGradient id="g2" cx="487.5" cy="199.6" r="628.7" href="#P"><stop stop-color="#cac9c9"/><stop offset="1" stop-color="#fff"/></radialGradient><radialGradient id="g3" cx="487.4" cy="199.6" r="628.7" href="#P"><stop stop-color="#cac9c9"/><stop offset="1" stop-color="#fff"/></radialGradient><radialGradient id="g4" cx="487.3" cy="199.5" r="628.8" href="#P"><stop stop-color="#cac9c9"/><stop offset="1" stop-color="#fff"/></radialGradient><radialGradient id="g5" cx="487.4" cy="199.6" r="628.8" href="#P"><stop stop-color="#cac9c9"/><stop offset="1" stop-color="#fff"/></radialGradient><radialGradient id="g6" cx="471.9" cy="199.7" r="628.7" href="#P"><stop stop-color="#cac9c9"/><stop offset="1" stop-color="#fff"/></radialGradient><radialGradient id="g7" cx="471.8" cy="199.7" r="628.7" href="#P"><stop stop-color="#cac9c9"/><stop offset="1" stop-color="#fff"/></radialGradient><radialGradient id="g8" cx="471.8" cy="199.6" r="628.7" href="#P"><stop stop-color="#cac9c9"/><stop offset="1" stop-color="#fff"/></radialGradient><radialGradient id="g9" cx="471.9" cy="199.7" r="628.7" href="#P"><stop stop-color="#cac9c9"/><stop offset="1" stop-color="#fff"/></radialGradient><radialGradient id="g10" cx="471.5" cy="199.4" r="629" href="#P"><stop stop-color="#cac9c9"/><stop offset="1" stop-color="#fff"/></radialGradient><radialGradient id="g11" cx="425.3" cy="396.4" r="430.5" href="#P"><stop stop-color="#cac9c9"/><stop offset="1" stop-color="#fff"/></radialGradient><radialGradient id="g12" cx="425.2" cy="396.4" r="430.5" href="#P"><stop stop-color="#cac9c9"/><stop offset="1" stop-color="#fff"/></radialGradient><radialGradient id="g13" cx="425.2" cy="396.4" r="430.5" href="#P"><stop stop-color="#cac9c9"/><stop offset="1" stop-color="#fff"/></radialGradient><radialGradient id="g14" cx="425.3" cy="396.4" r="430.5" href="#P"><stop stop-color="#cac9c9"/><stop offset="1" stop-color="#fff"/></radialGradient><radialGradient id="g15" cx="425.2" cy="396.3" r="430.5" href="#P"><stop stop-color="#cac9c9"/><stop offset="1" stop-color="#fff"/></radialGradient><radialGradient id="g16" cx="408.8" cy="396.4" r="430.5" href="#P"><stop stop-color="#cac9c9"/><stop offset="1" stop-color="#fff"/></radialGradient><radialGradient id="g17" cx="408.8" cy="396.4" r="430.5" href="#P"><stop stop-color="#cac9c9"/><stop offset="1" stop-color="#fff"/></radialGradient><radialGradient id="g18" cx="408.8" cy="396.4" r="430.5" href="#P"><stop stop-color="#cac9c9"/><stop offset="1" stop-color="#fff"/></radialGradient><radialGradient id="g19" cx="408.7" cy="396.3" r="430.5" href="#P"><stop stop-color="#cac9c9"/><stop offset="1" stop-color="#fff"/></radialGradient><radialGradient id="g20" cx="408.7" cy="396.3" r="430.5" href="#P"><stop stop-color="#cac9c9"/><stop offset="1" stop-color="#fff"/></radialGradient><radialGradient id="g21" cx="209.2" cy="299.6" r="138" href="#P"><stop stop-color="#eaeaea"/><stop offset="1" stop-color="#3c4143"/></radialGradient><radialGradient id="g22" cx="437.4" cy="253.6" r="252.6" href="#P"><stop stop-color="#eaeaea"/><stop offset="1" stop-color="#7f878c"/></radialGradient><radialGradient id="g23" cx="372.9" cy="28.4" r="132.8" href="#P"><stop stop-color="#eaeaea"/><stop offset="1" stop-color="#9fa8af"/></radialGradient><radialGradient id="g24" cx="153" cy="262.1" r="137.2" href="#P"><stop stop-color="#eaeaea"/><stop offset="1" stop-color="#3c4143"/></radialGradient><radialGradient id="g25" cx="296.8" cy="345.6" r="152" href="#P"><stop stop-color="#eaeaea"/><stop offset="1" stop-color="#3c4143"/></radialGradient><radialGradient id="g26" cx="77.7" cy="241.9" r="125.7" href="#P"><stop stop-color="#eaeaea"/><stop offset="1" stop-color="#7f878c"/></radialGradient><radialGradient id="g27" cx="258.6" cy="277.8" r="155.7" href="#P"><stop stop-color="#eaeaea"/><stop offset="1" stop-color="#7f878c"/></radialGradient><radialGradient id="g28" cx="699.5" cy="260.1" r="157.2" href="#P"><stop stop-color="#eaeaea"/><stop offset="1" stop-color="#535a5d"/></radialGradient><radialGradient id="g29" cx="657.6" cy="281.5" r="186.4" href="#P"><stop stop-color="#eaeaea"/><stop offset="1" stop-color="#535a5d"/></radialGradient><radialGradient id="g30" cx="700.6" cy="322.5" r="117.1" href="#P"><stop stop-color="#eaeaea"/><stop offset="1" stop-color="#535a5d"/></radialGradient><radialGradient id="g31" cx="433.6" cy="356.6" r="160.3" href="#P"><stop stop-color="#eaeaea"/><stop offset="1" stop-color="#3c4143"/></radialGradient><radialGradient id="g32" cx="463.5" cy="327.6" r="125.7" href="#P"><stop stop-color="#eaeaea"/><stop offset="1" stop-color="#535a5d"/></radialGradient><radialGradient id="g33" cx="530.5" cy="251.2" r="205.9" href="#P"><stop stop-color="#eaeaea"/><stop offset="1" stop-color="#7f878c"/></radialGradient><radialGradient id="g34" cx="526.7" cy="348.9" r="174.7" href="#P"><stop stop-color="#eaeaea"/><stop offset="1" stop-color="#3c4143"/></radialGradient><radialGradient id="g35" cx="676.1" cy="336.8" r="121.4" href="#P"><stop stop-color="#eaeaea"/><stop offset="1" stop-color="#3c4143"/></radialGradient><radialGradient id="g36" cx="385.2" cy="243.5" r="160.2" href="#P"><stop stop-color="#eaeaea"/><stop offset="1" stop-color="#535a5d"/></radialGradient><radialGradient id="g37" cx="166.9" cy="157.4" r="125.7" href="#P"><stop stop-color="#eaeaea"/><stop offset="1" stop-color="#7f878c"/></radialGradient><radialGradient id="g38" cx="475.7" cy="53.7" r="243.6" href="#P"><stop stop-color="#eaeaea"/><stop offset="1" stop-color="#7f878c"/></radialGradient><radialGradient id="g39" cx="214.5" cy="605.2" r="33.1" href="#P"><stop stop-color="#ededed"/><stop offset="1" stop-color="#4c4c4b"/></radialGradient><radialGradient id="g40" cx="211.9" cy="607.8" r="48.3" href="#P"><stop stop-color="#fff"/><stop offset="1" stop-color="#7e7e7e"/></radialGradient><radialGradient id="g41" cx="141.4" cy="503.7" r="33.1" href="#P"><stop stop-color="#ededed"/><stop offset="1" stop-color="#4c4c4b"/></radialGradient><radialGradient id="g42" cx="138.8" cy="506.3" r="48.3" href="#P"><stop stop-color="#fff"/><stop offset="1" stop-color="#7e7e7e"/></radialGradient><radialGradient id="g43" cx="335.3" cy="581.3" r="33.1" href="#P"><stop stop-color="#ededed"/><stop offset="1" stop-color="#4c4c4b"/></radialGradient><radialGradient id="g44" cx="332.8" cy="583.9" r="48.3" href="#P"><stop stop-color="#fff"/><stop offset="1" stop-color="#7e7e7e"/></radialGradient><radialGradient id="g45" cx="407" cy="660.4" r="33.1" href="#P"><stop stop-color="#ededed"/><stop offset="1" stop-color="#4c4c4b"/></radialGradient><radialGradient id="g46" cx="404.4" cy="663" r="48.3" href="#P"><stop stop-color="#fff"/><stop offset="1" stop-color="#7e7e7e"/></radialGradient><radialGradient id="g47" cx="638" cy="583.5" r="33.1" href="#P"><stop stop-color="#ededed"/><stop offset="1" stop-color="#4c4c4b"/></radialGradient><radialGradient id="g48" cx="635.4" cy="586" r="48.3" href="#P"><stop stop-color="#fff"/><stop offset="1" stop-color="#7e7e7e"/></radialGradient><radialGradient id="g49" cx="750.2" cy="512.9" r="33.1" href="#P"><stop stop-color="#ededed"/><stop offset="1" stop-color="#4c4c4b"/></radialGradient><radialGradient id="g50" cx="747.6" cy="515.4" r="48.3" href="#P"><stop stop-color="#fff"/><stop offset="1" stop-color="#7e7e7e"/></radialGradient><radialGradient id="g51" cx="511.4" cy="591.8" r="33.1" href="#P"><stop stop-color="#ededed"/><stop offset="1" stop-color="#4c4c4b"/></radialGradient><radialGradient id="g52" cx="508.8" cy="594.3" r="48.3" href="#P"><stop stop-color="#fff"/><stop offset="1" stop-color="#7e7e7e"/></radialGradient></defs><style>.a{fill:url(#g1)}.b{fill:url(#g2)}.c{fill:url(#g3)}.d{fill:url(#g4)}.e{fill:url(#g5)}.f{fill:url(#g6)}.g{fill:url(#g7)}.h{fill:url(#g8)}.i{fill:url(#g9)}.j{fill:url(#g10)}.k{fill:url(#g11)}.l{fill:url(#g12)}.m{fill:url(#g13)}.n{fill:url(#g14)}.o{fill:url(#g15)}.p{fill:url(#g16)}.q{fill:url(#g17)}.r{fill:url(#g18)}.s{fill:url(#g19)}.t{fill:url(#g20)}.u{fill:#eaebec}.v{fill:url(#g21)}.w{fill:url(#g22)}.x{fill:url(#g23)}.y{fill:url(#g24)}.z{fill:url(#g25)}.A{fill:url(#g26)}.B{fill:url(#g27)}.C{fill:url(#g28)}.D{fill:url(#g29)}.E{fill:url(#g30)}.F{fill:url(#g31)}.G{fill:url(#g32)}.H{fill:url(#g33)}.I{fill:url(#g34)}.J{fill:url(#g35)}.K{fill:url(#g36)}.L{fill:url(#g37)}.M{fill:url(#g38)}.N{fill:url(#g39)}.O{fill:url(#g40)}.P{fill:url(#g41)}.Q{fill:url(#g42)}.R{fill:url(#g43)}.S{fill:url(#g44)}.T{fill:url(#g45)}.U{fill:url(#g46)}.V{fill:url(#g47)}.W{fill:url(#g48)}.X{fill:url(#g49)}.Y{fill:url(#g50)}.Z{fill:url(#g51)}.a0{fill:url(#g52)}</style><path class="a" d="m166.3 692.9l-6.4-4 292.7-461.3 6.4 4.1z"/><path class="b" d="m251.4 692.9l-6.4-4 292.6-461.3 6.4 4.1z"/><path class="c" d="m336.5 692.9l-6.4-4 292.6-461.3 6.4 4.1z"/><path class="d" d="m421.5 692.9l-6.4-4 292.6-461.3 6.4 4.1z"/><path class="e" d="m506.6 692.9l-6.4-4 292.6-461.3 6.4 4.1z"/><path class="f" d="m150.7 692.9l-6.4-4 292.6-461.3 6.4 4.1z"/><path class="g" d="m235.8 692.9l-6.4-4 292.6-461.3 6.4 4.1z"/><path class="h" d="m320.8 692.9l-6.4-4 292.6-461.3 6.4 4.1z"/><path class="i" d="m405.9 692.9l-6.4-4 292.6-461.3 6.4 4.1z"/><path class="j" d="m490.9 692.9l-6.4-4 292.6-461.3 6.4 4.1z"/><path class="k" d="m111.7 692.9l-6.5-4 292.7-461.3 6.4 4.1z"/><path class="l" d="m196.7 692.9l-6.4-4 292.6-461.3 6.4 4.1z"/><path class="m" d="m281.8 692.9l-6.4-4 292.6-461.3 6.4 4.1z"/><path class="n" d="m366.8 692.9l-6.4-4 292.6-461.3 6.4 4.1z"/><path class="o" d="m451.9 692.9l-6.4-4 292.6-461.3 6.4 4.1z"/><path class="p" d="m95.2 692.9l-6.4-4 292.6-461.3 6.4 4.1z"/><path class="q" d="m180.2 692.9l-6.4-4 292.6-461.3 6.4 4.1z"/><path class="r" d="m265.3 692.9l-6.4-4 292.6-461.3 6.4 4.1z"/><path class="s" d="m350.4 692.9l-6.4-4 292.6-461.3 6.4 4.1z"/><path class="t" d="m435.4 692.9l-6.4-4 292.6-461.3 6.4 4.1z"/><path class="u" d="m125.2 304.6l265.6-222.5 190.6 121.7 159.8 22.1 59 103.3-95.1 88.7-128.6 44.1-157.5 11-135.2-18.4-124.2-65.1z"/><path class="v" d="m196.9 454.5c29.1 0.6 53.2-22.5 53.8-51.6 0.6-29-22.4-53.1-51.5-53.7-29.1-0.6-53.2 22.4-53.8 51.5-0.6 29.1 22.5 53.2 51.5 53.8z"/><path class="w" d="m393.6 273.2c-73.6 0-133.1-59.5-133.1-133.1 0-73.6 59.5-133.1 133.1-133.1 73.6 0 133.1 59.5 133.1 133.1 0 73.6-59.5 133.1-133.1 133.1z"/><path class="x" d="m379.2 38.6c45.4-6.9 88.2 8.5 114.4 37.3-21.1-32.9-58-54.8-100-54.8-58.7 0-107.4 42.7-117.1 98.6 13.4-40.6 52.5-73.5 102.7-81.1z"/><path class="y" d="m125.2 406.6c49.8 1.1 91-38.4 92.1-88.2 1-49.8-38.5-91-88.3-92.1-49.7-1-90.9 38.5-92 88.3-1.1 49.7 38.4 91 88.2 92z"/><path class="z" d="m321.6 534.1c-73.6 0-133.1-59.5-133.1-133.1 0-73.6 59.5-133 133.1-133 73.6 0 133.1 59.4 133.1 133 0 73.6-59.5 133.1-133.1 133.1z"/><path class="A" d="m93.1 256.5c27.4-15.8 58.7-16 82.8-3.4-21.9-16.6-51-22-78-11.7-37.6 14.4-58 54.6-50 94.1-1.7-30.2 15-61.6 45.2-79z"/><path class="B" d="m214.3 321.3c49.8 1 91-38.5 92-88.3 1.1-49.7-38.4-91-88.2-92-49.8-1.1-91 38.4-92.1 88.2-1 49.8 38.5 91 88.3 92.1z"/><path class="C" d="m738.2 236.6c-46.2 18.6-68.6 71.1-50 117.3 18.5 46.2 71 68.6 117.2 50.1 46.2-18.6 68.6-71.1 50.1-117.3-18.5-46.2-71.1-68.6-117.3-50.1z"/><path class="D" d="m716.4 316.4c40.2 0.9 73.6-31.1 74.4-71.4 0.9-40.3-31.1-73.6-71.4-74.5-40.2-0.8-73.6 31.1-74.4 71.4-0.9 40.3 31.1 73.7 71.4 74.5z"/><path class="E" d="m738.4 421c40.2 0.9 73.6-31.1 74.5-71.4 0.8-40.3-31.2-73.6-71.5-74.5-40.2-0.8-73.5 31.1-74.4 71.4-0.9 40.3 31.1 73.6 71.4 74.5z"/><path class="F" d="m433.1 554.8c49.8 1.1 91-38.4 92-88.2 1.1-49.8-38.4-91-88.2-92.1-49.8-1-91 38.5-92.1 88.3-1 49.7 38.5 91 88.3 92z"/><path class="G" d="m425.2 411c-30.3 0-54.9-24.5-54.9-54.9 0-30.3 24.6-54.8 54.9-54.8 30.4 0 54.9 24.5 54.9 54.8 0 30.4-24.5 54.9-54.9 54.9z"/><path class="H" d="m591.1 295.1c64.2 1.4 117.4-49.5 118.7-113.7 1.4-64.2-49.5-117.4-113.7-118.7-64.2-1.4-117.4 49.5-118.7 113.7-1.4 64.2 49.5 117.4 113.7 118.7z"/><path class="I" d="m662.9 393c-25.4-49.8-86.4-69.5-136.2-44.1-49.8 25.4-69.6 86.3-44.2 136.1 25.4 49.8 86.4 69.6 136.2 44.2 49.8-25.4 69.6-86.4 44.2-136.2z"/><path class="J" d="m705.1 480.2c-34.4 0-62.3-27.8-62.3-62.3 0-34.4 27.9-62.3 62.3-62.3 34.5 0 62.3 27.9 62.3 62.3 0 34.5-27.8 62.3-62.3 62.3z"/><path class="K" d="m334.8 364.2c-42.8 0-77.4-34.6-77.4-77.3 0-42.8 34.6-77.3 77.4-77.3 42.7 0 77.3 34.5 77.3 77.3 0 42.7-34.6 77.3-77.3 77.3z"/><path class="L" d="m182.7 172.7c27.2-16 58.8-15.8 83.2-2.4-22.3-17.5-51.7-23.5-78.6-13.2-37.6 14.4-57.6 55.8-49 96.8-2.1-31.3 14.2-63.6 44.4-81.2z"/><path class="M" d="m599 87.9c41 2.3 75.7 23.7 93.5 53.7-12.6-32.7-40.9-58.6-77.7-66.3-51.6-10.8-102 17.7-120.8 65 19.2-33.2 59.5-54.8 105-52.4z"/><path class="N" d="m214.5 638.3c-13.5 0-24.3-10.8-24.3-24.3 0-13.4 10.8-24.3 24.3-24.3 13.4 0 24.3 10.9 24.3 24.3 0 13.5-10.9 24.3-24.3 24.3z"/><path class="O" d="m214.5 630.3c-10.9 0-19.7-8.2-21-18.7 0 0.8-0.2 1.6-0.2 2.4 0 11.7 9.5 21.2 21.2 21.2 11.6 0 21.1-9.5 21.1-21.2 0-0.8-0.1-1.6-0.2-2.4-1.3 10.5-10.1 18.7-20.9 18.7z"/><path class="P" d="m141.4 536.8c-13.5 0-24.3-10.8-24.3-24.3 0-13.4 10.8-24.2 24.3-24.2 13.4 0 24.2 10.8 24.2 24.2 0 13.5-10.8 24.3-24.2 24.3z"/><path class="Q" d="m141.3 528.8c-10.8 0-19.6-8.2-20.9-18.7-0.1 0.8-0.2 1.6-0.2 2.4 0 11.7 9.5 21.2 21.1 21.2 11.7 0 21.2-9.5 21.2-21.2 0-0.8-0.1-1.6-0.2-2.4-1.3 10.5-10.1 18.7-21 18.7z"/><path class="R" d="m335.3 614.4c-13.4 0-24.3-10.8-24.3-24.3 0-13.4 10.9-24.2 24.3-24.2 13.5 0 24.3 10.8 24.3 24.2 0 13.5-10.8 24.3-24.3 24.3z"/><path class="S" d="m335.3 606.4c-10.8 0-19.7-8.2-20.9-18.7-0.1 0.8-0.2 1.6-0.2 2.4 0 11.7 9.5 21.2 21.1 21.2 11.7 0 21.2-9.5 21.2-21.2 0-0.8-0.1-1.6-0.3-2.4-1.2 10.5-10 18.7-20.9 18.7z"/><path class="T" d="m407 693.5c-13.5 0-24.3-10.8-24.3-24.3 0-13.4 10.8-24.3 24.3-24.3 13.4 0 24.3 10.9 24.3 24.3 0 13.5-10.9 24.3-24.3 24.3z"/><path class="U" d="m407 685.5c-10.9 0-19.7-8.2-20.9-18.7-0.2 0.8-0.3 1.6-0.3 2.4 0 11.7 9.5 21.2 21.2 21.2 11.6 0 21.1-9.5 21.1-21.2 0-0.8-0.1-1.6-0.2-2.4-1.3 10.5-10.1 18.7-20.9 18.7z"/><path class="V" d="m638 616.6c-13.5 0-24.3-10.9-24.3-24.3 0-13.4 10.8-24.3 24.3-24.3 13.4 0 24.2 10.9 24.2 24.3 0 13.4-10.8 24.3-24.2 24.3z"/><path class="W" d="m638 608.6c-10.9 0-19.7-8.2-21-18.7 0 0.8-0.2 1.6-0.2 2.4 0 11.7 9.5 21.1 21.2 21.1 11.7 0 21.1-9.4 21.1-21.1 0-0.8-0.1-1.6-0.2-2.4-1.2 10.5-10.1 18.7-20.9 18.7z"/><path class="X" d="m750.2 546c-13.4 0-24.3-10.9-24.3-24.3 0-13.4 10.9-24.3 24.3-24.3 13.4 0 24.3 10.9 24.3 24.3 0 13.4-10.9 24.3-24.3 24.3z"/><path class="Y" d="m750.2 538c-10.9 0-19.7-8.2-20.9-18.7-0.1 0.8-0.3 1.6-0.3 2.4 0 11.7 9.5 21.2 21.2 21.2 11.7 0 21.2-9.5 21.2-21.2 0-0.8-0.2-1.6-0.3-2.4-1.2 10.5-10.1 18.7-20.9 18.7z"/><path class="Z" d="m511.4 624.9c-13.4 0-24.3-10.9-24.3-24.3 0-13.4 10.9-24.3 24.3-24.3 13.5 0 24.3 10.9 24.3 24.3 0 13.4-10.8 24.3-24.3 24.3z"/><path class="a0" d="m511.4 616.9c-10.8 0-19.7-8.2-20.9-18.8-0.1 0.9-0.2 1.7-0.2 2.5 0 11.7 9.4 21.1 21.1 21.1 11.7 0 21.2-9.4 21.2-21.1 0-0.8-0.2-1.6-0.3-2.5-1.2 10.6-10 18.8-20.9 18.8z"/></svg>