<svg version="1.2" xmlns="http://www.w3.org/2000/svg" viewBox="0 0 900 700" width="900" height="700"><defs><linearGradient id="P" gradientUnits="userSpaceOnUse"/><linearGradient id="g1" x1="483.8" y1="477.3" x2="483.8" y2="619.7" href="#P"><stop stop-color="#a7c0ce"/><stop offset="1" stop-color="#fff"/></linearGradient><linearGradient id="g2" x1="566.9" y1="477.3" x2="566.9" y2="619.7" href="#P"><stop stop-color="#a7c0ce"/><stop offset="1" stop-color="#fff"/></linearGradient><linearGradient id="g3" x1="650" y1="477.3" x2="650" y2="619.7" href="#P"><stop stop-color="#a7c0ce"/><stop offset="1" stop-color="#fff"/></linearGradient><linearGradient id="g4" x1="733.1" y1="477.3" x2="733.1" y2="619.7" href="#P"><stop stop-color="#a7c0ce"/><stop offset="1" stop-color="#fff"/></linearGradient><linearGradient id="g5" x1="816.2" y1="477.3" x2="816.2" y2="619.7" href="#P"><stop stop-color="#a7c0ce"/><stop offset="1" stop-color="#fff"/></linearGradient><radialGradient id="g6" cx="476.7" cy="157.2" r="614.3" href="#P"><stop stop-color="#a7c0ce"/><stop offset="1" stop-color="#fff"/></radialGradient><radialGradient id="g7" cx="476.7" cy="157.3" r="614.3" href="#P"><stop stop-color="#a7c0ce"/><stop offset="1" stop-color="#fff"/></radialGradient><radialGradient id="g8" cx="476.5" cy="157.1" r="614.3" href="#P"><stop stop-color="#a7c0ce"/><stop offset="1" stop-color="#fff"/></radialGradient><radialGradient id="g9" cx="476.5" cy="157.1" r="614.4" href="#P"><stop stop-color="#a7c0ce"/><stop offset="1" stop-color="#fff"/></radialGradient><radialGradient id="g10" cx="476.8" cy="157.3" r="614.2" href="#P"><stop stop-color="#a7c0ce"/><stop offset="1" stop-color="#fff"/></radialGradient><radialGradient id="g11" cx="220.6" cy="580.7" r="71.3" href="#P"><stop stop-color="#d9e3e9"/><stop offset=".46" stop-color="#99b2c0"/><stop offset=".71" stop-color="#516873"/></radialGradient><radialGradient id="g12" cx="201.4" cy="612.6" r=".1" href="#P"><stop stop-color="#fff"/><stop offset=".68" stop-color="#aedef8"/><stop offset="1" stop-color="#009ee2"/></radialGradient><radialGradient id="g13" cx="216.7" cy="555.3" r="248.5" href="#P"><stop stop-color="#fff"/><stop offset=".38" stop-color="#95bdd2"/><stop offset=".71" stop-color="#3d758b"/></radialGradient><radialGradient id="g14" cx="447.2" cy="605.2" r="71.3" href="#P"><stop stop-color="#d9e3e9"/><stop offset=".46" stop-color="#99b2c0"/><stop offset=".71" stop-color="#516873"/></radialGradient><radialGradient id="g15" cx="428" cy="637" r=".1" href="#P"><stop stop-color="#fff"/><stop offset=".68" stop-color="#aedef8"/><stop offset="1" stop-color="#009ee2"/></radialGradient><radialGradient id="g16" cx="443.2" cy="579.8" r="248.7" href="#P"><stop stop-color="#fff"/><stop offset=".38" stop-color="#95bdd2"/><stop offset=".71" stop-color="#3d758b"/></radialGradient><radialGradient id="g17" cx="676.2" cy="544.5" r="71.3" href="#P"><stop stop-color="#d9e3e9"/><stop offset=".46" stop-color="#99b2c0"/><stop offset=".71" stop-color="#516873"/></radialGradient><radialGradient id="g18" cx="657" cy="576.3" r=".1" href="#P"><stop stop-color="#fff"/><stop offset=".68" stop-color="#aedef8"/><stop offset="1" stop-color="#009ee2"/></radialGradient><radialGradient id="g19" cx="672.3" cy="519.1" r="248.4" href="#P"><stop stop-color="#fff"/><stop offset=".38" stop-color="#95bdd2"/><stop offset=".71" stop-color="#3d758b"/></radialGradient><radialGradient id="g20" cx="207.3" cy="288.3" r="134.8" href="#P"><stop stop-color="#eaeaea"/><stop offset="1" stop-color="#3c4143"/></radialGradient><radialGradient id="g21" cx="430.2" cy="243.5" r="246.8" href="#P"><stop stop-color="#eaeaea"/><stop offset="1" stop-color="#7f878c"/></radialGradient><radialGradient id="g22" cx="367.2" cy="23.5" r="129.7" href="#P"><stop stop-color="#eaeaea"/><stop offset="1" stop-color="#9fa8af"/></radialGradient><radialGradient id="g23" cx="152.3" cy="251.7" r="134" href="#P"><stop stop-color="#eaeaea"/><stop offset="1" stop-color="#3c4143"/></radialGradient><radialGradient id="g24" cx="292.8" cy="333.3" r="148.5" href="#P"><stop stop-color="#eaeaea"/><stop offset="1" stop-color="#3c4143"/></radialGradient><radialGradient id="g25" cx="78.8" cy="232" r="122.8" href="#P"><stop stop-color="#eaeaea"/><stop offset="1" stop-color="#7f878c"/></radialGradient><radialGradient id="g26" cx="255.6" cy="267.1" r="152.1" href="#P"><stop stop-color="#eaeaea"/><stop offset="1" stop-color="#7f878c"/></radialGradient><radialGradient id="g27" cx="686.3" cy="249.8" r="153.6" href="#P"><stop stop-color="#eaeaea"/><stop offset="1" stop-color="#535a5d"/></radialGradient><radialGradient id="g28" cx="645.3" cy="270.7" r="182.2" href="#P"><stop stop-color="#eaeaea"/><stop offset="1" stop-color="#535a5d"/></radialGradient><radialGradient id="g29" cx="687.3" cy="310.8" r="114.4" href="#P"><stop stop-color="#eaeaea"/><stop offset="1" stop-color="#535a5d"/></radialGradient><radialGradient id="g30" cx="426.5" cy="344.1" r="156.6" href="#P"><stop stop-color="#eaeaea"/><stop offset="1" stop-color="#3c4143"/></radialGradient><radialGradient id="g31" cx="455.7" cy="315.7" r="122.8" href="#P"><stop stop-color="#eaeaea"/><stop offset="1" stop-color="#535a5d"/></radialGradient><radialGradient id="g32" cx="521.1" cy="241.1" r="201.2" href="#P"><stop stop-color="#eaeaea"/><stop offset="1" stop-color="#7f878c"/></radialGradient><radialGradient id="g33" cx="517.4" cy="336.5" r="170.7" href="#P"><stop stop-color="#eaeaea"/><stop offset="1" stop-color="#3c4143"/></radialGradient><radialGradient id="g34" cx="663.3" cy="324.7" r="118.6" href="#P"><stop stop-color="#eaeaea"/><stop offset="1" stop-color="#3c4143"/></radialGradient><radialGradient id="g35" cx="379.2" cy="233.6" r="156.5" href="#P"><stop stop-color="#eaeaea"/><stop offset="1" stop-color="#535a5d"/></radialGradient><radialGradient id="g36" cx="165.9" cy="149.5" r="122.8" href="#P"><stop stop-color="#eaeaea"/><stop offset="1" stop-color="#7f878c"/></radialGradient><radialGradient id="g37" cx="467.6" cy="48.1" r="238" href="#P"><stop stop-color="#eaeaea"/><stop offset="1" stop-color="#7f878c"/></radialGradient><radialGradient id="g38" cx="138.5" cy="544.5" r="130.7" href="#P"><stop stop-color="#d9e3e9"/><stop offset=".46" stop-color="#99b2c0"/><stop offset=".71" stop-color="#516873"/></radialGradient><radialGradient id="g39" cx="578" cy="676.6" r="154.3" href="#P"><stop stop-color="#d9e3e9"/><stop offset=".46" stop-color="#99b2c0"/><stop offset=".71" stop-color="#516873"/></radialGradient><radialGradient id="g40" cx="319.6" cy="702" r="205" href="#P"><stop stop-color="#d9e3e9"/><stop offset=".46" stop-color="#99b2c0"/><stop offset=".71" stop-color="#516873"/></radialGradient></defs><style>.a{fill:url(#g1)}.b{fill:url(#g2)}.c{fill:url(#g3)}.d{fill:url(#g4)}.e{fill:url(#g5)}.f{fill:url(#g6)}.g{fill:url(#g7)}.h{fill:url(#g8)}.i{fill:url(#g9)}.j{fill:url(#g10)}.k{fill:url(#g11)}.l{fill:url(#g12)}.m{fill:url(#g13)}.n{fill:url(#g14)}.o{fill:url(#g15)}.p{fill:url(#g16)}.q{fill:url(#g17)}.r{fill:url(#g18)}.s{fill:url(#g19)}.t{fill:#eaebec}.u{fill:url(#g20)}.v{fill:url(#g21)}.w{fill:url(#g22)}.x{fill:url(#g23)}.y{fill:url(#g24)}.z{fill:url(#g25)}.A{fill:url(#g26)}.B{fill:url(#g27)}.C{fill:url(#g28)}.D{fill:url(#g29)}.E{fill:url(#g30)}.F{fill:url(#g31)}.G{fill:url(#g32)}.H{fill:url(#g33)}.I{fill:url(#g34)}.J{fill:url(#g35)}.K{fill:url(#g36)}.L{fill:url(#g37)}.M{fill:url(#g38)}.N{fill:url(#g39)}.O{fill:url(#g40)}</style><path class="a" d="m350.9 353l-179 282.2 6.3 3.9 181.5-286.1z"/><path class="b" d="m434 353l-179 282.2 6.3 3.9 181.5-286.1z"/><path class="c" d="m517.1 353l-179 282.2 6.3 3.9 181.4-286.1z"/><path class="d" d="m600.2 353l-179 282.2 6.3 3.9 181.5-286.1z"/><path class="e" d="m683.3 353l-179 282.2 6.3 3.9 181.4-286.1z"/><path class="f" d="m335.6 353l-179 282.2 6.3 3.9 181.5-286.1z"/><path class="g" d="m418.7 353l-179 282.2 6.3 3.9 181.5-286.1z"/><path class="h" d="m501.8 353l-179 282.2 6.3 3.9 181.5-286.1z"/><path class="i" d="m584.9 353l-179 282.2 6.3 3.9 181.5-286.1z"/><path class="j" d="m668 353l-179 282.2 6.3 3.9 181.5-286.1z"/><path class="k" d="m247.6 560.6c-2.6-15.3-0.2-27.7 3.8-38.5-7.1 9.2-16.1 17.8-30.5 23.7-12.9 5.3-22.8 10.8-29.4 22.9-9.1 16.4-4.6 36.3 9.6 44.2q0.1 0 0.1 0l0.3-0.6-0.2 0.6q0 0 0 0c14.2 7.9 33.5 1.2 42.6-15.2 6.7-12 6.1-23.4 3.7-37.1z"/><path class="l" d="m201.5 612.3l-0.1 0.3 0.1-0.3z"/><path class="m" d="m198.9 566.1c0 0 7-11.7 26.9-19.3 0 0-5.9 3.9-7.5 11 0 0-12.2 2.2-19.4 8.3z"/><path class="n" d="m474.2 585.1c-2.7-15.4-0.3-27.7 3.8-38.5-7.1 9.2-16.1 17.8-30.5 23.7-12.9 5.3-22.8 10.8-29.5 22.8-9.1 16.5-4.5 36.4 9.7 44.3q0 0 0 0l0.4-0.6-0.3 0.6q0 0 0 0c14.3 7.9 33.5 1.2 42.7-15.2 6.6-12.1 6-23.4 3.7-37.1z"/><path class="o" d="m428.1 636.8l-0.1 0.3 0.1-0.3z"/><path class="p" d="m425.4 590.6c0 0 7.1-11.8 27-19.3 0 0-6 3.9-7.6 11 0 0-12.1 2.1-19.4 8.3z"/><path class="q" d="m703.2 524.3c-2.6-15.3-0.3-27.6 3.8-38.5-7.1 9.2-16.1 17.9-30.5 23.7-12.9 5.4-22.8 10.9-29.5 22.9-9 16.4-4.5 36.4 9.7 44.2q0.1 0 0.1 0l0.3-0.6-0.3 0.7q0 0 0.1 0c14.2 7.9 33.5 1.2 42.6-15.3 6.6-12 6.1-23.3 3.7-37.1z"/><path class="r" d="m657.1 576.1l-0.1 0.2 0.1-0.3z"/><path class="s" d="m654.5 529.9c0 0 7-11.8 26.9-19.3 0 0-6 3.8-7.6 11 0 0-12.1 2.1-19.3 8.3z"/><path class="t" d="m125.2 293.3l259.4-217.4 186.2 118.9 156.2 21.6 57.6 100.9-92.9 86.7-125.7 43.1-153.7 10.8-132.2-18.1-121.3-63.6z"/><path class="u" d="m195.3 439.7c28.4 0.6 51.9-21.9 52.5-50.3 0.6-28.5-21.9-52-50.3-52.6-28.5-0.6-52 22-52.6 50.4-0.6 28.4 22 51.9 50.4 52.5z"/><path class="v" d="m387.4 262.6c-71.9 0-130-58.1-130-130 0-71.9 58.1-130.1 130-130.1 71.9 0 130 58.2 130 130.1 0 71.9-58.1 130-130 130z"/><path class="w" d="m373.3 33.4c44.4-6.8 86.2 8.4 111.8 36.4-20.7-32.1-56.7-53.4-97.7-53.4-57.4 0-104.9 41.6-114.4 96.3 13.1-39.7 51.3-71.8 100.3-79.3z"/><path class="x" d="m125.2 393c48.6 1 88.9-37.6 89.9-86.3 1.1-48.6-37.5-88.9-86.2-89.9-48.6-1-88.9 37.6-89.9 86.2-1 48.7 37.6 88.9 86.2 90z"/><path class="y" d="m317.1 517.5c-71.9 0-130-58.1-130-130 0-71.9 58.1-130 130-130 71.9 0 130 58.1 130 130 0 71.9-58.1 130-130 130z"/><path class="z" d="m93.8 246.3c26.7-15.4 57.4-15.6 80.9-3.4-21.4-16.2-49.8-21.5-76.2-11.4-36.7 14.1-56.6 53.4-48.8 92-1.7-29.5 14.6-60.2 44.1-77.2z"/><path class="A" d="m212.2 309.6c48.6 1 88.9-37.6 89.9-86.2 1.1-48.7-37.5-88.9-86.2-90-48.6-1-88.9 37.6-89.9 86.2-1 48.7 37.6 88.9 86.2 90z"/><path class="B" d="m724.1 226.9c-45.2 18.1-67.1 69.4-48.9 114.6 18.1 45.1 69.4 67 114.5 48.8 45.2-18.1 67.1-69.4 48.9-114.5-18.1-45.1-69.4-67.1-114.5-48.9z"/><path class="C" d="m702.7 304.8c39.4 0.9 71.9-30.4 72.8-69.7 0.8-39.4-30.4-72-69.8-72.8-39.3-0.8-71.9 30.4-72.7 69.7-0.9 39.4 30.4 72 69.7 72.8z"/><path class="D" d="m724.2 407c39.4 0.8 71.9-30.4 72.8-69.8 0.8-39.3-30.4-71.9-69.8-72.7-39.3-0.9-71.9 30.4-72.7 69.7-0.9 39.4 30.4 71.9 69.7 72.8z"/><path class="E" d="m425.9 537.7c48.7 1.1 89-37.5 90-86.2 1-48.6-37.6-88.9-86.2-89.9-48.6-1.1-88.9 37.5-90 86.2-1 48.6 37.6 88.9 86.2 89.9z"/><path class="F" d="m418.3 397.2c-29.6 0-53.6-23.9-53.6-53.6 0-29.6 24-53.6 53.6-53.6 29.7 0 53.6 24 53.6 53.6 0 29.7-23.9 53.6-53.6 53.6z"/><path class="G" d="m580.4 284c62.7 1.4 114.6-48.4 115.9-111.1 1.4-62.7-48.4-114.6-111.1-116-62.7-1.3-114.6 48.5-116 111.2-1.3 62.7 48.5 114.6 111.2 115.9z"/><path class="H" d="m650.5 379.7c-24.8-48.7-84.4-68-133.1-43.2-48.6 24.8-67.9 84.4-43.1 133.1 24.8 48.6 84.4 67.9 133 43.1 48.7-24.8 68-84.4 43.2-133z"/><path class="I" d="m691.7 464.8c-33.6 0-60.8-27.2-60.8-60.8 0-33.7 27.2-60.9 60.8-60.9 33.7 0 60.9 27.2 60.9 60.9 0 33.6-27.2 60.8-60.9 60.8z"/><path class="J" d="m329.9 351.5c-41.8 0-75.5-33.8-75.5-75.5 0-41.8 33.7-75.6 75.5-75.6 41.8 0 75.6 33.8 75.6 75.6 0 41.7-33.8 75.5-75.6 75.5z"/><path class="K" d="m181.3 164.4c26.7-15.6 57.5-15.4 81.3-2.3-21.7-17.1-50.4-23-76.7-12.9-36.8 14.1-56.3 54.5-47.9 94.6-2.1-30.6 13.9-62.2 43.3-79.4z"/><path class="L" d="m588 81.6c40.1 2.2 74 23.1 91.4 52.4-12.3-31.9-39.9-57.2-75.9-64.8-50.4-10.5-99.7 17.3-118 63.6 18.8-32.4 58.1-53.6 102.5-51.2z"/><path fill-rule="evenodd" class="M" d="m107.7 489.6l-5.1-2.9 2-3.5 5 3-0.8-3.3 4.8-1.3 2.1 8.1 2.6 1.4-0.9-3.2 4.8-1.3 2.2 8.1 1.8 1 5.3-1.4 2.7-2.7v-2.2l-5.9-5.9 3.5-3.5 2.4 2.4v-3l-5.9-5.9 3.5-3.4 2.4 2.3v-5.8h4v5.8l2.4-2.3 3.5 3.4-5.9 5.9v3l2.4-2.4 3.5 3.5-5.9 5.9v2.2l3.9 3.8 3.7 1 1.9-1 2.1-8.1 4.8 1.3-0.9 3.3 2.6-1.5 2.2-8.1 4.7 1.3-0.8 3.3 5-2.9 2 3.4-5 2.9 3.2 0.9-1.3 4.8-8-2.2-2.6 1.5 3.3 0.9-1.3 4.8-8.1-2.2-1.8 1.1-1.4 5.2 1 3.8 1.8 1.1 8.1-2.2 1.2 4.8-3.2 0.9 2.6 1.5 8-2.2 1.3 4.8-3.3 0.9 5.1 2.9-2 3.4-5-2.9 0.8 3.3-4.7 1.2-2.2-8-2.6-1.5 0.9 3.3-4.8 1.2-2.1-8-1.9-1.1-5.3 1.5-2.7 2.7v2.1l5.9 5.9-3.5 3.5-2.4-2.4v3l5.9 5.9-3.5 3.5-2.4-2.4v5.8h-4v-5.8l-2.4 2.4-3.5-3.5 5.9-5.9v-3l-2.4 2.4-3.5-3.5 5.9-5.9v-2.1l-3.8-3.9-3.8-1-1.9 1.1-2.1 8-4.8-1.2 0.9-3.3-2.6 1.5-2.2 8-4.7-1.3 0.8-3.2-5 2.9-2-3.4 5.1-3-3.3-0.8 1.3-4.8 8 2.1 2.6-1.5-3.3-0.8 1.3-4.8 8.1 2.1 1.8-1 1.4-5.3-1-3.7-1.8-1.1-8.1 2.1-1.3-4.7 3.3-0.9-2.6-1.5-8 2.1-1.3-4.7zm21.3 16.5l4.5 0.7 2 4.1 2.1-4.1 4.5-0.7-3.3-3.2 0.8-4.5-4.1 2.1-4-2.1 0.8 4.5z"/><path fill-rule="evenodd" class="N" d="m541.5 611.9l-5.9-3.5 2.3-4 6 3.4-1-3.8 5.6-1.6 2.5 9.5 3.1 1.8-1.1-3.8 5.7-1.6 2.5 9.5 2.2 1.3 6.2-1.7 3.3-3.2v-2.5l-7-7 4.2-4.1 2.8 2.8v-3.5l-7-7 4.2-4.1 2.8 2.8v-6.9h4.7v6.9l2.8-2.8 4.1 4.1-6.9 7v3.5l2.8-2.8 4.1 4.1-6.9 7v2.5l4.5 4.5 4.5 1.2 2.1-1.2 2.6-9.5 5.6 1.5-1 3.8 3.1-1.7 2.5-9.5 5.6 1.5-1 3.8 6-3.4 2.3 4.1-6 3.4 3.9 1-1.5 5.7-9.5-2.6-3.1 1.8 3.9 1-1.5 5.7-9.5-2.6-2.2 1.3-1.7 6.2 1.2 4.4 2.2 1.3 9.5-2.5 1.5 5.6-3.8 1 3 1.8 9.5-2.5 1.5 5.6-3.8 1 5.9 3.4-2.3 4.1-6-3.4 1 3.8-5.6 1.5-2.5-9.4-3.1-1.8 1 3.8-5.6 1.6-2.5-9.5-2.2-1.3-6.2 1.7-3.3 3.2v2.5l7 7-4.2 4.1-2.8-2.8v3.5l7 7-4.2 4.1-2.8-2.8v6.8h-4.7v-6.8l-2.8 2.8-4.1-4.1 6.9-7v-3.5l-2.8 2.8-4.1-4.1 6.9-7v-2.5l-4.5-4.6-4.5-1.1-2.1 1.2-2.6 9.5-5.6-1.5 1-3.8-3.1 1.7-2.5 9.5-5.6-1.5 1-3.8-6 3.4-2.3-4.1 6-3.4-3.9-1 1.5-5.7 9.5 2.6 3.1-1.8-3.9-1 1.5-5.7 9.5 2.6 2.2-1.3 1.7-6.2-1.2-4.5-2.2-1.2-9.5 2.5-1.5-5.6 3.8-1-3-1.8-9.5 2.5-1.5-5.6zm25.1 19.5l5.3 0.8 2.4 4.8 2.4-4.8 5.4-0.8-3.9-3.8 0.9-5.3-4.8 2.5-4.8-2.5 1 5.3z"/><path fill-rule="evenodd" class="O" d="m271.2 616l-7.9-4.5 3.1-5.4 8 4.5-1.4-5.1 7.5-2 3.4 12.6 4 2.4-1.4-5.2 7.5-2 3.4 12.6 2.9 1.7 8.3-2.2 4.3-4.3v-3.4l-9.2-9.2 5.4-5.5 3.8 3.8v-4.7l-9.2-9.2 5.4-5.5 3.8 3.7v-9.1h6.2v9.1l3.8-3.7 5.4 5.4-9.2 9.3v4.7l3.8-3.8 5.4 5.5-9.2 9.2v3.4l6.1 6.1 5.9 1.5 2.9-1.7 3.3-12.6 7.5 2.1-1.3 5.1 4-2.4 3.4-12.6 7.5 2-1.4 5.1 7.9-4.5 3.1 5.4-7.9 4.5 5.2 1.4-2 7.5-12.7-3.4-4 2.3 5.1 1.4-2 7.5-12.6-3.4-2.9 1.7-2.3 8.3 1.6 5.9 2.9 1.6 12.6-3.3 2 7.5-5.1 1.3 4.1 2.4 12.6-3.4 2 7.5-5.1 1.4 7.9 4.5-3.1 5.4-7.9-4.5 1.3 5.1-7.4 2-3.4-12.6-4.1-2.4 1.4 5.1-7.5 2-3.4-12.6-2.9-1.6-8.3 2.2-4.3 4.3v3.3l9.3 9.3-5.5 5.5-3.8-3.8v4.7l9.3 9.2-5.5 5.5-3.8-3.7v9.1h-6.2v-9.1l-3.7 3.7-5.5-5.5 9.2-9.2v-4.7l-3.7 3.8-5.5-5.5 9.2-9.3v-3.3l-6-6.1-5.9-1.6-2.9 1.7-3.4 12.6-7.5-2 1.4-5.1-4.1 2.4-3.4 12.6-7.5-2 1.4-5.1-7.9 4.5-3.1-5.4 7.9-4.5-5.1-1.4 2-7.5 12.6 3.4 4.1-2.4-5.2-1.3 2.1-7.5 12.6 3.3 2.9-1.6 2.2-8.3-1.6-5.9-2.9-1.7-12.6 3.4-2-7.5 5.1-1.4-4.1-2.3-12.6 3.4-2-7.5zm33.4 25.9l7.1 1 3.2 6.5 3.2-6.5 7.1-1-5.2-5 1.2-7.1-6.3 3.3-6.4-3.3 1.2 7.1z"/></svg>