<svg version="1.2" xmlns="http://www.w3.org/2000/svg" viewBox="0 0 850 700" width="850" height="700"><defs><linearGradient id="P" gradientUnits="userSpaceOnUse"/><radialGradient id="g1" cx="162.4" cy="554.9" r="66.1" href="#P"><stop stop-color="#e7f5fd"/><stop offset=".46" stop-color="#80b5d0"/><stop offset=".71" stop-color="#006892"/></radialGradient><radialGradient id="g2" cx="144.7" cy="584.4" r=".1" href="#P"><stop stop-color="#fff"/><stop offset=".68" stop-color="#aedef8"/><stop offset="1" stop-color="#009ee2"/></radialGradient><radialGradient id="g3" cx="158.8" cy="531.3" r="230.2" href="#P"><stop stop-color="#fff"/><stop offset=".38" stop-color="#95bdd2"/><stop offset=".71" stop-color="#3d758b"/></radialGradient><radialGradient id="g4" cx="253.8" cy="643.9" r="66.1" href="#P"><stop stop-color="#e7f5fd"/><stop offset=".46" stop-color="#80b5d0"/><stop offset=".71" stop-color="#006892"/></radialGradient><radialGradient id="g5" cx="236" cy="673.4" r=".1" href="#P"><stop stop-color="#fff"/><stop offset=".68" stop-color="#aedef8"/><stop offset="1" stop-color="#009ee2"/></radialGradient><radialGradient id="g6" cx="250.1" cy="620.3" r="230.3" href="#P"><stop stop-color="#fff"/><stop offset=".38" stop-color="#95bdd2"/><stop offset=".71" stop-color="#3d758b"/></radialGradient><radialGradient id="g7" cx="501.1" cy="643.9" r="66.1" href="#P"><stop stop-color="#e7f5fd"/><stop offset=".46" stop-color="#80b5d0"/><stop offset=".71" stop-color="#006892"/></radialGradient><radialGradient id="g8" cx="483.3" cy="673.4" r=".1" href="#P"><stop stop-color="#fff"/><stop offset=".68" stop-color="#aedef8"/><stop offset="1" stop-color="#009ee2"/></radialGradient><radialGradient id="g9" cx="497.4" cy="620.3" r="230.3" href="#P"><stop stop-color="#fff"/><stop offset=".38" stop-color="#95bdd2"/><stop offset=".71" stop-color="#3d758b"/></radialGradient><radialGradient id="g10" cx="388.4" cy="597.6" r="66.1" href="#P"><stop stop-color="#e7f5fd"/><stop offset=".46" stop-color="#80b5d0"/><stop offset=".71" stop-color="#006892"/></radialGradient><radialGradient id="g11" cx="370.6" cy="627.1" r=".1" href="#P"><stop stop-color="#fff"/><stop offset=".68" stop-color="#aedef8"/><stop offset="1" stop-color="#009ee2"/></radialGradient><radialGradient id="g12" cx="384.7" cy="574" r="230.4" href="#P"><stop stop-color="#fff"/><stop offset=".38" stop-color="#95bdd2"/><stop offset=".71" stop-color="#3d758b"/></radialGradient><radialGradient id="g13" cx="626.4" cy="581.4" r="66.1" href="#P"><stop stop-color="#e7f5fd"/><stop offset=".46" stop-color="#80b5d0"/><stop offset=".71" stop-color="#006892"/></radialGradient><radialGradient id="g14" cx="608.6" cy="610.9" r=".1" href="#P"><stop stop-color="#fff"/><stop offset=".68" stop-color="#aedef8"/><stop offset="1" stop-color="#009ee2"/></radialGradient><radialGradient id="g15" cx="622.8" cy="557.8" r="230.5" href="#P"><stop stop-color="#fff"/><stop offset=".38" stop-color="#95bdd2"/><stop offset=".71" stop-color="#3d758b"/></radialGradient><radialGradient id="g16" cx="94.6" cy="420.1" r="97.7" href="#P"><stop stop-color="#fff"/><stop offset="1" stop-color="#6b9fb8"/></radialGradient><radialGradient id="g17" cx="413.6" cy="246.3" r="228.8" href="#P"><stop stop-color="#fff"/><stop offset="1" stop-color="#a7c6d7"/></radialGradient><radialGradient id="g18" cx="162.5" cy="301.5" r="105.6" href="#P"><stop stop-color="#fff"/><stop offset="1" stop-color="#a7c6d7"/></radialGradient><radialGradient id="g19" cx="86.3" cy="234.4" r="113.8" href="#P"><stop stop-color="#fff"/><stop offset="1" stop-color="#a7c6d7"/></radialGradient><radialGradient id="g20" cx="291.3" cy="318.5" r="174.5" href="#P"><stop stop-color="#fff"/><stop offset="1" stop-color="#6b9fb8"/></radialGradient><radialGradient id="g21" cx="251.7" cy="268.2" r="141" href="#P"><stop stop-color="#fff"/><stop offset="1" stop-color="#a7c6d7"/></radialGradient><radialGradient id="g22" cx="609.7" cy="303.5" r="193.5" href="#P"><stop stop-color="#fff"/><stop offset="1" stop-color="#a7c6d7"/></radialGradient><radialGradient id="g23" cx="612.9" cy="271.5" r="168.8" href="#P"><stop stop-color="#fff"/><stop offset="1" stop-color="#a7c6d7"/></radialGradient><radialGradient id="g24" cx="408.3" cy="370.6" r="132.3" href="#P"><stop stop-color="#fff"/><stop offset="1" stop-color="#6b9fb8"/></radialGradient><radialGradient id="g25" cx="437.2" cy="313.3" r="113.8" href="#P"><stop stop-color="#fff"/><stop offset="1" stop-color="#a7c6d7"/></radialGradient><radialGradient id="g26" cx="497.9" cy="244.1" r="186.4" href="#P"><stop stop-color="#fff"/><stop offset="1" stop-color="#a7c6d7"/></radialGradient><radialGradient id="g27" cx="497.2" cy="343.3" r="155.1" href="#P"><stop stop-color="#fff"/><stop offset="1" stop-color="#6b9fb8"/></radialGradient><radialGradient id="g28" cx="632.3" cy="344.8" r="102" href="#P"><stop stop-color="#fff"/><stop offset="1" stop-color="#6b9fb8"/></radialGradient><radialGradient id="g29" cx="366.3" cy="237.1" r="145" href="#P"><stop stop-color="#fff"/><stop offset="1" stop-color="#a7c6d7"/></radialGradient><radialGradient id="g30" cx="346.4" cy="45.6" r="111.9" href="#P"><stop stop-color="#fff"/><stop offset="1" stop-color="#c7dcea"/></radialGradient><radialGradient id="g31" cx="167.1" cy="157.9" r="113.8" href="#P"><stop stop-color="#fff"/><stop offset="1" stop-color="#a7c6d7"/></radialGradient><radialGradient id="g32" cx="446.6" cy="64" r="220.6" href="#P"><stop stop-color="#fff"/><stop offset="1" stop-color="#a7c6d7"/></radialGradient></defs><style>.a{fill:url(#g1)}.b{fill:url(#g2)}.c{fill:url(#g3)}.d{fill:url(#g4)}.e{fill:url(#g5)}.f{fill:url(#g6)}.g{fill:url(#g7)}.h{fill:url(#g8)}.i{fill:url(#g9)}.j{fill:url(#g10)}.k{fill:url(#g11)}.l{fill:url(#g12)}.m{fill:url(#g13)}.n{fill:url(#g14)}.o{fill:url(#g15)}.p{fill:#fff}.q{fill:url(#g16)}.r{fill:url(#g17)}.s{fill:url(#g18)}.t{fill:url(#g19)}.u{fill:url(#g20)}.v{fill:url(#g21)}.w{fill:url(#g22)}.x{fill:url(#g23)}.y{fill:url(#g24)}.z{fill:url(#g25)}.A{fill:url(#g26)}.B{fill:url(#g27)}.C{fill:url(#g28)}.D{fill:url(#g29)}.E{fill:url(#g30)}.F{fill:url(#g31)}.G{fill:url(#g32)}</style><path class="a" d="m187.5 536.2c-2.5-14.2-0.3-25.6 3.5-35.6-6.6 8.5-14.9 16.5-28.3 21.9-11.9 4.9-21.1 10.1-27.3 21.2-8.4 15.3-4.2 33.7 9 41q0 0 0 0l0.3-0.6-0.2 0.7q0 0 0 0c13.2 7.3 31.1 1 39.5-14.2 6.2-11.1 5.7-21.6 3.5-34.4z"/><path class="b" d="m144.8 584.2l-0.2 0.2 0.2-0.2z"/><path class="c" d="m142.3 541.4c0 0 6.5-10.9 25-17.9 0 0-5.6 3.5-7 10.2 0 0-11.3 2-18 7.7z"/><path class="d" d="m278.8 625.2c-2.4-14.2-0.3-25.6 3.5-35.7-6.5 8.6-14.9 16.6-28.2 22-12 4.9-21.2 10-27.4 21.2-8.4 15.2-4.2 33.7 9 41q0.1 0 0.1 0l0.3-0.6-0.3 0.6q0 0 0.1 0c13.1 7.3 31 1.1 39.5-14.1 6.1-11.1 5.6-21.7 3.4-34.4z"/><path class="e" d="m236.1 673.2l-0.1 0.2 0.1-0.3z"/><path class="f" d="m233.6 630.3c0 0 6.6-10.8 25-17.9 0 0-5.5 3.6-7 10.3 0 0-11.3 1.9-18 7.6z"/><path class="g" d="m526.1 625.2c-2.4-14.2-0.2-25.6 3.5-35.7-6.5 8.6-14.9 16.6-28.2 22-12 4.9-21.2 10-27.4 21.2-8.4 15.2-4.1 33.7 9 41q0.1 0 0.1 0l0.3-0.6-0.3 0.6q0 0 0.1 0c13.1 7.3 31 1.1 39.4-14.1 6.2-11.1 5.7-21.7 3.5-34.4z"/><path class="h" d="m483.4 673.2l-0.1 0.2 0.1-0.3z"/><path class="i" d="m480.9 630.3c0 0 6.6-10.8 25-17.9 0 0-5.5 3.6-7 10.3 0 0-11.2 1.9-18 7.6z"/><path class="j" d="m413.4 578.9c-2.4-14.2-0.2-25.6 3.5-35.7-6.5 8.5-14.9 16.5-28.2 22-12 4.9-21.2 10-27.3 21.2-8.5 15.2-4.2 33.7 8.9 41h0.1l0.3-0.6-0.3 0.6q0 0 0.1 0c13.1 7.3 31 1.1 39.5-14.1 6.1-11.2 5.6-21.7 3.4-34.4z"/><path class="k" d="m370.7 626.8l-0.1 0.3 0.1-0.3z"/><path class="l" d="m368.2 584c0 0 6.6-10.9 25-17.9 0 0-5.5 3.6-7 10.2 0 0-11.2 2-18 7.7z"/><path class="m" d="m651.4 562.7c-2.4-14.2-0.2-25.6 3.5-35.7-6.5 8.6-14.9 16.6-28.2 22-11.9 4.9-21.1 10-27.3 21.2-8.4 15.2-4.2 33.7 9 41q0 0 0 0l0.3-0.6-0.2 0.6q0 0 0 0.1c13.2 7.2 31 1 39.5-14.2 6.2-11.2 5.6-21.7 3.4-34.4z"/><path class="n" d="m608.7 610.7l-0.1 0.2 0.1-0.3z"/><path class="o" d="m606.3 567.9c0 0 6.5-10.9 25-18 0 0-5.6 3.6-7.1 10.3 0 0-11.2 1.9-17.9 7.7z"/><path class="p" d="m130.9 292.5l240.4-201.5 172.6 110.2 144.7 20 53.5 93.5-86.2 80.4-116.4 39.9-142.5 10-122.5-16.7-112.5-59z"/><path class="q" d="m195.8 428.2c26.4 0.5 48.1-20.4 48.7-46.7 0.6-26.3-20.3-48.1-46.6-48.7-26.4-0.5-48.2 20.4-48.7 46.7-0.6 26.3 20.3 48.1 46.6 48.7z"/><path class="r" d="m373.9 264c-66.6 0-120.5-53.9-120.5-120.5 0-66.6 53.9-120.5 120.5-120.5 66.6 0 120.5 53.9 120.5 120.5 0 66.6-53.9 120.5-120.5 120.5z"/><path class="s" d="m130.9 384.8c45.1 1 82.4-34.8 83.3-79.9 1-45-34.8-82.3-79.9-83.3-45-1-82.3 34.8-83.3 79.9-0.9 45.1 34.8 82.4 79.9 83.3z"/><path class="t" d="m100.3 247.6c24.7-14.3 53.1-14.5 75-3.1-19.9-15-46.3-19.9-70.7-10.6-34 13.1-52.5 49.5-45.2 85.2-1.6-27.3 13.5-55.7 40.9-71.5z"/><path class="u" d="m308.7 500.3c-66.6 0-120.5-53.9-120.5-120.5 0-66.6 53.9-120.5 120.5-120.5 66.7 0 120.5 53.9 120.5 120.5 0 66.6-53.8 120.5-120.5 120.5z"/><path class="v" d="m211.5 307.6c45.1 0.9 82.4-34.9 83.4-79.9 0.9-45.1-34.8-82.4-79.9-83.4-45.1-0.9-82.4 34.8-83.4 79.9-0.9 45.1 34.8 82.4 79.9 83.4z"/><path class="w" d="m685.9 230.9c-41.8 16.8-62.1 64.4-45.3 106.2 16.8 41.8 64.3 62.1 106.2 45.3 41.8-16.8 62.1-64.3 45.3-106.1-16.8-41.9-64.3-62.2-106.2-45.4z"/><path class="x" d="m666.1 303.2c36.5 0.7 66.7-28.2 67.5-64.7 0.7-36.4-28.2-66.6-64.7-67.4-36.4-0.8-66.6 28.1-67.4 64.6-0.8 36.5 28.2 66.7 64.6 67.5z"/><path class="y" d="m409.6 519c45.1 1 82.4-34.8 83.4-79.9 0.9-45.1-34.8-82.4-79.9-83.3-45.1-1-82.4 34.8-83.4 79.9-0.9 45 34.9 82.4 79.9 83.3z"/><path class="z" d="m402.5 388.8c-27.4 0-49.6-22.2-49.6-49.7 0-27.4 22.2-49.7 49.6-49.7 27.5 0 49.7 22.3 49.7 49.7 0 27.5-22.2 49.7-49.7 49.7z"/><path class="A" d="m552.7 283.9c58.2 1.2 106.3-44.9 107.5-103 1.3-58.1-44.8-106.2-103-107.5-58.1-1.2-106.2 44.9-107.5 103-1.2 58.2 44.9 106.3 103 107.5z"/><path class="B" d="m617.7 372.5c-23-45.1-78.2-63-123.3-40-45.1 23-63 78.2-40 123.3 23 45.1 78.2 63 123.3 40 45.1-23 63-78.2 40-123.3z"/><path class="C" d="m655.9 451.5c-31.1 0-56.4-25.2-56.4-56.4 0-31.2 25.3-56.4 56.4-56.4 31.2 0 56.5 25.2 56.5 56.4 0 31.2-25.3 56.4-56.5 56.4z"/><path class="D" d="m320.6 346.4c-38.7 0-70-31.3-70-70 0-38.7 31.3-70 70-70 38.7 0 70 31.3 70 70 0 38.7-31.3 70-70 70z"/><path class="E" d="m359.3 50.3c41.1-6.3 79.9 7.8 103.6 33.8-19.2-29.8-52.5-49.6-90.5-49.6-53.2 0-97.3 38.6-106 89.3 12.1-36.8 47.5-66.6 92.9-73.5z"/><path class="F" d="m181.4 171.7c24.6-14.4 53.2-14.2 75.3-2.1-20.2-15.9-46.8-21.3-71.1-12-34.1 13.1-52.2 50.6-44.4 87.7-1.9-28.4 12.9-57.6 40.2-73.6z"/><path class="G" d="m558.3 95c37.2 2 68.6 21.4 84.6 48.6-11.3-29.7-36.9-53.1-70.3-60.1-46.6-9.7-92.3 16.1-109.3 58.9 17.4-30 53.9-49.7 95-47.4z"/></svg>