<svg version="1.2" xmlns="http://www.w3.org/2000/svg" viewBox="0 0 900 700" width="900" height="700"><defs><linearGradient id="P" gradientUnits="userSpaceOnUse"/><radialGradient id="g1" cx="400.5" cy="266.3" r="449.4" href="#P"><stop stop-color="#f08800"/><stop offset=".38" stop-color="#ffec00"/><stop offset="1" stop-color="#fff9cb"/></radialGradient><radialGradient id="g2" cx="400.4" cy="307" r="1669.4" href="#P"><stop stop-color="#f08800"/><stop offset=".38" stop-color="#ffec00"/><stop offset="1" stop-color="#fff9cb"/></radialGradient><radialGradient id="g3" cx="400.5" cy="307.1" r="1669.4" href="#P"><stop stop-color="#f08800"/><stop offset=".38" stop-color="#ffec00"/><stop offset="1" stop-color="#fff9cb"/></radialGradient><radialGradient id="g4" cx="400.6" cy="307.1" r="1669.3" href="#P"><stop stop-color="#f08800"/><stop offset=".38" stop-color="#ffec00"/><stop offset="1" stop-color="#fff9cb"/></radialGradient><radialGradient id="g5" cx="359.8" cy="307.1" r="449.4" href="#P"><stop stop-color="#f08800"/><stop offset=".38" stop-color="#ffec00"/><stop offset="1" stop-color="#fff9cb"/></radialGradient><radialGradient id="g6" cx="400.5" cy="307.1" r="152" href="#P"><stop stop-color="#ffec00"/><stop offset="1" stop-color="#f08800"/></radialGradient><radialGradient id="g7" cx="396.8" cy="309.8" r="168.9" href="#P"><stop stop-color="#fff"/><stop offset=".49" stop-color="#ffec00"/><stop offset="1" stop-color="#f08800"/></radialGradient><linearGradient id="g8" x1="385.3" y1="279.2" x2="385.3" y2="186.7" href="#P"><stop stop-color="#f9d200"/><stop offset=".46" stop-color="#fded59"/><stop offset="1" stop-color="#f9f4f9"/></linearGradient><radialGradient id="g9" cx="362.6" cy="238.6" r="158.2" href="#P"><stop stop-color="#ffec00"/><stop offset="1" stop-color="#f08800"/></radialGradient><linearGradient id="g10" x1="539.7" y1="259.7" x2="373.8" y2="315" href="#P"><stop stop-color="#f9d200"/><stop offset=".46" stop-color="#fded59"/><stop offset="1" stop-color="#f9f4f9"/></linearGradient><linearGradient id="g11" x1="276.8" y1="358.2" x2="314.6" y2="336.9" href="#P"><stop stop-color="#f9d200"/><stop offset=".46" stop-color="#fded59"/><stop offset="1" stop-color="#f9f4f9"/></linearGradient><radialGradient id="g12" cx="683.2" cy="718.8" r="104.3" href="#P"><stop stop-color="#78bde0"/><stop offset="1" stop-color="#bedbf4"/></radialGradient><radialGradient id="g13" cx="325.4" cy="644.4" r="129.6" href="#P"><stop stop-color="#78bde0"/><stop offset="1" stop-color="#bedbf4"/></radialGradient><radialGradient id="g14" cx="602.3" cy="646.4" r="73.2" href="#P"><stop stop-color="#78bde0"/><stop offset="1" stop-color="#bedbf4"/></radialGradient><radialGradient id="g15" cx="493.8" cy="675.1" r="104.9" href="#P"><stop stop-color="#78bde0"/><stop offset="1" stop-color="#bedbf4"/></radialGradient><radialGradient id="g16" cx="388.4" cy="691.2" r="57.9" href="#P"><stop stop-color="#78bde0"/><stop offset="1" stop-color="#bedbf4"/></radialGradient><radialGradient id="g17" cx="712" cy="606.3" r="67.5" href="#P"><stop stop-color="#78bde0"/><stop offset="1" stop-color="#bedbf4"/></radialGradient><radialGradient id="g18" cx="216.9" cy="412.9" r="43.6" href="#P"><stop stop-color="#fff"/><stop offset="1" stop-color="#a7c6d7"/></radialGradient><radialGradient id="g19" cx="771.7" cy="440.5" r="38.6" href="#P"><stop stop-color="#fff"/><stop offset="1" stop-color="#84afc5"/></radialGradient><radialGradient id="g20" cx="744.4" cy="463.3" r="40.2" href="#P"><stop stop-color="#fff"/><stop offset="1" stop-color="#84afc5"/></radialGradient><radialGradient id="g21" cx="445.7" cy="465.4" r="117.6" href="#P"><stop stop-color="#fff"/><stop offset="1" stop-color="#a7c6d7"/></radialGradient><radialGradient id="g22" cx="628.8" cy="469.5" r="78.7" href="#P"><stop stop-color="#fff"/><stop offset="1" stop-color="#84afc5"/></radialGradient><radialGradient id="g23" cx="686.1" cy="360.4" r="90.7" href="#P"><stop stop-color="#fff"/><stop offset="1" stop-color="#a7c6d7"/></radialGradient><radialGradient id="g24" cx="757.8" cy="303.4" r="39.4" href="#P"><stop stop-color="#fff"/><stop offset="1" stop-color="#c7dcea"/></radialGradient><radialGradient id="g25" cx="699.2" cy="426.2" r="123.3" href="#P"><stop stop-color="#fff"/><stop offset="1" stop-color="#a7c6d7"/></radialGradient><radialGradient id="g26" cx="319" cy="454.5" r="45.7" href="#P"><stop stop-color="#fff"/><stop offset="1" stop-color="#84afc5"/></radialGradient><radialGradient id="g27" cx="485.6" cy="408" r="116" href="#P"><stop stop-color="#fff"/><stop offset="1" stop-color="#a7c6d7"/></radialGradient><radialGradient id="g28" cx="460.7" cy="359.7" r="80.9" href="#P"><stop stop-color="#fff"/><stop offset="1" stop-color="#c7dcea"/></radialGradient><radialGradient id="g29" cx="279.8" cy="436.4" r="41.1" href="#P"><stop stop-color="#fff"/><stop offset="1" stop-color="#a7c6d7"/></radialGradient><radialGradient id="g30" cx="399.3" cy="445.6" r="80.6" href="#P"><stop stop-color="#fff"/><stop offset="1" stop-color="#84afc5"/></radialGradient><radialGradient id="g31" cx="292.3" cy="409.7" r="56.5" href="#P"><stop stop-color="#fff"/><stop offset="1" stop-color="#c7dcea"/></radialGradient><radialGradient id="g32" cx="348.5" cy="437.8" r="72.5" href="#P"><stop stop-color="#fff"/><stop offset="1" stop-color="#a7c6d7"/></radialGradient><radialGradient id="g33" cx="301.5" cy="372.4" r="48.2" href="#P"><stop stop-color="#fff"/><stop offset="1" stop-color="#c7dcea"/></radialGradient><radialGradient id="g34" cx="663.5" cy="426.5" r="99.8" href="#P"><stop stop-color="#fff"/><stop offset="1" stop-color="#84afc5"/></radialGradient><radialGradient id="g35" cx="621.1" cy="341.2" r="132.5" href="#P"><stop stop-color="#fff"/><stop offset="1" stop-color="#84afc5"/></radialGradient><radialGradient id="g36" cx="486.4" cy="465.9" r="88.8" href="#P"><stop stop-color="#fff"/><stop offset="1" stop-color="#84afc5"/></radialGradient><radialGradient id="g37" cx="554.6" cy="440.8" r="123.7" href="#P"><stop stop-color="#fff"/><stop offset="1" stop-color="#769cb0"/></radialGradient><radialGradient id="g38" cx="428.8" cy="414" r="111.9" href="#P"><stop stop-color="#fff"/><stop offset="1" stop-color="#a7c6d7"/></radialGradient><radialGradient id="g39" cx="556.2" cy="360.4" r="137.8" href="#P"><stop stop-color="#fff"/><stop offset="1" stop-color="#a7c6d7"/></radialGradient><radialGradient id="g40" cx="649.3" cy="263.7" r="88.6" href="#P"><stop stop-color="#fff"/><stop offset="1" stop-color="#c7dcea"/></radialGradient><radialGradient id="g41" cx="508.2" cy="290" r="75.4" href="#P"><stop stop-color="#fff"/><stop offset="1" stop-color="#c7dcea"/></radialGradient><radialGradient id="g42" cx="387" cy="354" r="67.5" href="#P"><stop stop-color="#fff"/><stop offset="1" stop-color="#c7dcea"/></radialGradient></defs><style>.a{fill:url(#g1)}.b{fill:url(#g2)}.c{fill:url(#g3)}.d{fill:url(#g4)}.e{fill:url(#g5)}.f{fill:url(#g6)}.g{fill:url(#g7)}.h{fill:url(#g8)}.i{fill:url(#g9)}.j{fill:url(#g10)}.k{fill:url(#g11)}.l{fill:url(#g12)}.m{fill:url(#g13)}.n{fill:url(#g14)}.o{fill:url(#g15)}.p{fill:url(#g16)}.q{fill:url(#g17)}.r{fill:#fff}.s{fill:url(#g18)}.t{fill:url(#g19)}.u{fill:url(#g20)}.v{fill:url(#g21)}.w{fill:url(#g22)}.x{fill:url(#g23)}.y{fill:url(#g24)}.z{fill:url(#g25)}.A{fill:url(#g26)}.B{fill:url(#g27)}.C{fill:url(#g28)}.D{fill:url(#g29)}.E{fill:url(#g30)}.F{fill:url(#g31)}.G{fill:url(#g32)}.H{fill:url(#g33)}.I{fill:url(#g34)}.J{fill:url(#g35)}.K{fill:url(#g36)}.L{fill:url(#g37)}.M{fill:url(#g38)}.N{fill:url(#g39)}.O{fill:url(#g40)}.P{fill:url(#g41)}.Q{fill:url(#g42)}</style><path class="a" d="m400.5 0v4.4c-0.5 27.8-3.6 88.8-11.7 138.1-6.4 38.8-19.9 41.9-19.9 41.9h63.2c0 0-13.5-3.1-19.9-41.9-8.1-49.3-11.2-110.3-11.7-138.1z"/><path class="b" d="m585.1 125.9l-1.7 1.7c-10.9 9.7-71.6 62.4-100.4 70.1-22.8 6.1-41.6-10.3-41.6-10.3l82.4 82.3c0 0-16.5-18.7-10.4-41.5 7.7-28.9 60.4-89.5 70.1-100.5z"/><path class="c" d="m219.4 122.5l1.6 1.6c9.7 11 62.4 71.7 70.2 100.5 6.1 22.8-10.4 41.5-10.4 41.5l82.3-82.3c0 0-18.7 16.5-41.5 10.4-28.8-7.7-89.5-60.5-100.5-70.2z"/><path class="d" d="m215.9 488.2l1.7-1.6c10.9-9.7 71.6-62.5 100.5-70.2 22.7-6.1 41.5 10.4 41.5 10.4l-82.3-82.3c0 0 16.4 18.7 10.3 41.5-7.7 28.8-60.4 89.5-70.1 100.5z"/><path class="e" d="m93.4 307.1h4.4c27.8 0.5 88.9 3.5 138.1 11.7 38.9 6.4 41.9 19.9 41.9 19.9v-63.3c0 0-3 13.6-41.9 20-49.2 8.1-110.3 11.1-138.1 11.6z"/><path class="f" d="m400.5 436.7c-71.7 0-129.6-58-129.6-129.6 0-71.7 57.9-129.6 129.6-129.6 71.7 0 129.6 57.9 129.6 129.6 0 71.6-57.9 129.6-129.6 129.6z"/><path class="g" d="m400.5 421.9c-66.8 0-121.1-52.5-122.7-117.9 0 1-0.1 2-0.1 3.1 0 67.8 55 122.8 122.8 122.8 67.8 0 122.8-55 122.8-122.8 0-1.1-0.1-2.1-0.1-3.1-1.6 65.4-55.9 117.9-122.7 117.9z"/><path class="h" d="m512 256.7c-19.2-42.3-61.8-71.8-111.3-71.8q-0.1 0-0.2 0.1-0.1-0.1-0.2-0.1c-49.5 0-92.1 29.5-111.3 71.8-3.8 8.4-2.9 10.1-1.2 11.2 1.5 0.8 4 0.6 8-3.3 22.7-20 61-33.2 104.5-33.2q0.1 0 0.2 0.1 0 0 0 0 0 0 0 0 0.1-0.1 0.2-0.1c43.5 0 81.8 13.2 104.5 33.2 4 3.9 6.5 4.1 8 3.3 1.7-1.1 2.6-2.8-1.2-11.2z"/><path class="i" d="m286.1 367.9c21.7 40.9 64.8 68.8 114.4 68.8 71.6 0 129.6-58 129.6-129.6 0-23.8-6.4-46-17.5-65.1-17 5.9-31.6 17.1-41.7 31.7q-4.1-0.4-8.4-0.4c-32.6 0-60.7 19.6-73 47.7-15.8 4.3-29.4 13.9-38.8 26.8q-6.1-1.2-12.6-1.4c-0.4 0-0.9 0-1.6 0-19.6 0-37.9 8-50.4 21.5z"/><path class="j" d="m505.2 264.6c4 3.9 6.5 4.1 8 3.3 1.7-1.1 2.6-2.8-1.2-11.2-1.9-4.2-4-8.1-6.3-12-5.5 2.5-10.7 5.5-15.4 9.1 5.5 3.3 10.5 6.9 14.9 10.8z"/><path class="k" d="m400.5 429.9c67.8 0 122.8-55 122.8-122.8 0-1.1-0.1-2.1-0.1-3.1-1.6 65.4-55.9 117.9-122.7 117.9-45.7 0-85.5-24.6-106.7-61.1q-1.3 1.1-2.6 2.2c20.3 39.7 61.6 66.9 109.3 66.9z"/><path fill-rule="evenodd" class="l" d="m654.4 643.7l-5.5-3.1 2.2-3.8 5.5 3.2-1-3.5 5.2-1.4 2.3 8.7 2.8 1.6-0.9-3.5 5.2-1.4 2.3 8.7 2 1.2 5.8-1.6 2.9-2.9v-2.4l-6.3-6.3 3.7-3.8 2.6 2.5v-3.2l-6.3-6.4 3.7-3.8 2.6 2.6v-6.3h4.4v6.3l2.5-2.6 3.8 3.8-6.3 6.4v3.2l2.5-2.5 3.8 3.8-6.3 6.3v2.4l4.1 4.1 4.1 1.1 2-1.1 2.4-8.7 5.1 1.3-0.9 3.6 2.8-1.6 2.4-8.8 5.1 1.4-0.9 3.6 5.5-3.2 2.1 3.7-5.4 3.2 3.5 0.9-1.4 5.2-8.7-2.3-2.8 1.6 3.5 1-1.4 5.2-8.7-2.4-2 1.2-1.6 5.7 1.1 4.1 2 1.1 8.8-2.3 1.4 5.2-3.6 0.9 2.8 1.7 8.8-2.4 1.3 5.2-3.5 1 5.5 3.1-2.2 3.7-5.4-3.1 0.9 3.5-5.2 1.4-2.3-8.7-2.8-1.6 0.9 3.5-5.2 1.4-2.3-8.7-2-1.2-5.8 1.5-2.9 3v2.3l6.4 6.4-3.8 3.8-2.6-2.6v3.3l6.4 6.4-3.8 3.8-2.6-2.6v6.3h-4.3v-6.3l-2.6 2.6-3.8-3.8 6.4-6.4v-3.3l-2.6 2.6-3.8-3.8 6.4-6.4v-2.3l-4.2-4.2-4.1-1.1-2 1.2-2.4 8.7-5.1-1.4 0.9-3.5-2.8 1.6-2.3 8.7-5.2-1.3 0.9-3.6-5.5 3.2-2.1-3.8 5.5-3.1-3.6-1 1.4-5.2 8.7 2.4 2.9-1.6-3.6-1 1.4-5.2 8.7 2.4 2-1.2 1.6-5.7-1.1-4.1-2-1.2-8.7 2.4-1.4-5.2 3.5-0.9-2.8-1.7-8.7 2.4-1.4-5.2zm23 17.9l5 0.7 2.2 4.5 2.2-4.5 4.9-0.7-3.6-3.5 0.9-4.9-4.4 2.3-4.4-2.3 0.8 4.9z"/><path fill-rule="evenodd" class="m" d="m289.6 551l-6.8-3.9 2.7-4.7 6.8 3.9-1.2-4.4 6.5-1.7 2.9 10.9 3.5 2-1.2-4.4 6.5-1.7 2.9 10.8 2.5 1.5 7.1-2 3.7-3.7v-2.8l-8-8 4.8-4.7 3.2 3.2v-4l-8-8 4.8-4.7 3.2 3.2v-7.8h5.3v7.8l3.3-3.2 4.7 4.7-8 8v4l3.3-3.2 4.7 4.7-8 8v2.8l5.2 5.2 5.1 1.4 2.5-1.4 2.9-10.9 6.5 1.7-1.2 4.4 3.5-2 2.9-10.8 6.4 1.7-1.1 4.4 6.8-3.9 2.6 4.6-6.8 3.9 4.4 1.2-1.7 6.5-10.8-2.9-3.5 2 4.4 1.2-1.8 6.4-10.8-2.9-2.5 1.4-1.9 7.2 1.3 5 2.5 1.5 10.9-2.9 1.7 6.4-4.4 1.2 3.5 2 10.9-2.9 1.7 6.4-4.4 1.2 6.8 4-2.7 4.6-6.8-3.9 1.2 4.4-6.5 1.7-2.9-10.9-3.5-2 1.2 4.4-6.4 1.7-2.9-10.8-2.5-1.4-7.2 1.9-3.7 3.7v2.9l8 7.9-4.7 4.7-3.3-3.2v4l8 8-4.7 4.7-3.3-3.2v7.8h-5.3v-7.8l-3.2 3.2-4.8-4.7 8-8v-4l-3.2 3.2-4.8-4.7 8-7.9v-2.9l-5.2-5.2-5.1-1.4-2.5 1.4-2.9 10.9-6.5-1.7 1.2-4.4-3.5 2-2.9 10.8-6.4-1.7 1.2-4.4-6.8 3.9-2.7-4.6 6.8-3.9-4.4-1.2 1.7-6.5 10.9 3 3.5-2.1-4.5-1.1 1.8-6.5 10.8 2.9 2.5-1.4 1.9-7.1-1.3-5.1-2.5-1.5-10.9 3-1.7-6.5 4.4-1.2-3.5-2-10.9 2.9-1.7-6.4zm28.7 22.3l6.1 0.8 2.8 5.6 2.7-5.6 6.1-0.8-4.4-4.4 1.1-6.1-5.5 2.9-5.5-2.9 1 6.1z"/><path fill-rule="evenodd" class="n" d="m582.1 593.7l-3.8-2.2 1.5-2.7 3.8 2.3-0.6-2.5 3.6-1 1.6 6.1 2 1.2-0.6-2.5 3.6-1 1.6 6.1 1.4 0.8 4.1-1 2.1-2.1v-1.7l-4.5-4.4 2.6-2.7 1.9 1.8v-2.3l-4.5-4.4 2.6-2.7 1.9 1.8v-4.4h3v4.4l1.8-1.8 2.7 2.7-4.5 4.4v2.3l1.8-1.8 2.7 2.7-4.5 4.4v1.7l2.9 2.9 2.9 0.8 1.4-0.8 1.6-6.2 3.7 1-0.7 2.5 2-1.1 1.6-6.2 3.7 1-0.7 2.5 3.8-2.2 1.5 2.6-3.8 2.2 2.5 0.7-1 3.6-6.1-1.6-2 1.1 2.5 0.7-1 3.6-6.1-1.6-1.4 0.8-1.1 4 0.8 2.9 1.4 0.8 6.1-1.7 1 3.7-2.5 0.7 2 1.1 6.1-1.6 1 3.6-2.5 0.7 3.8 2.2-1.5 2.6-3.8-2.2 0.7 2.5-3.7 0.9-1.6-6.1-2-1.1 0.7 2.5-3.7 0.9-1.6-6.1-1.4-0.8-4.1 1.1-2.1 2.1v1.6l4.5 4.5-2.6 2.6-1.9-1.8v2.3l4.5 4.5-2.6 2.6-1.9-1.8v4.5h-3v-4.5l-1.8 1.8-2.6-2.6 4.4-4.5v-2.3l-1.8 1.8-2.6-2.6 4.4-4.5v-1.6l-2.9-3-2.9-0.7-1.4 0.8-1.6 6.1-3.7-1 0.7-2.5-2 1.2-1.6 6.1-3.6-1 0.6-2.5-3.8 2.3-1.5-2.7 3.8-2.2-2.5-0.6 1-3.7 6.1 1.7 2-1.2-2.5-0.6 1-3.7 6.1 1.7 1.4-0.9 1.1-4-0.8-2.8-1.4-0.9-6.1 1.7-1-3.6 2.5-0.7-2-1.2-6.1 1.7-1-3.7zm16.2 12.6l3.5 0.5 1.5 3.2 1.6-3.2 3.4-0.5-2.5-2.4 0.6-3.5-3.1 1.7-3.1-1.7 0.6 3.5z"/><path fill-rule="evenodd" class="o" d="m464.8 599.5l-5.5-3.1 2.2-3.8 5.5 3.2-1-3.6 5.3-1.4 2.3 8.8 2.8 1.6-0.9-3.5 5.2-1.4 2.4 8.8 2 1.1 5.7-1.5 3.1-3v-2.4l-6.5-6.4 3.8-3.8 2.7 2.6v-3.3l-6.5-6.4 3.8-3.8 2.7 2.6v-6.4h4.3v6.4l2.6-2.6 3.8 3.8-6.4 6.4v3.3l2.6-2.6 3.8 3.8-6.4 6.4v2.4l4.2 4.2 4.1 1.1 2-1.2 2.4-8.8 5.2 1.4-1 3.6 2.9-1.6 2.3-8.8 5.2 1.4-0.9 3.6 5.5-3.2 2.2 3.7-5.6 3.2 3.6 1-1.4 5.2-8.8-2.4-2.8 1.7 3.6 0.9-1.4 5.2-8.8-2.3-2 1.2-1.6 5.7 1.1 4.1 2 1.2 8.8-2.4 1.4 5.2-3.5 1 2.8 1.6 8.8-2.3 1.4 5.2-3.6 1 5.5 3.1-2.2 3.8-5.5-3.2 1 3.6-5.2 1.4-2.4-8.8-2.8-1.6 0.9 3.5-5.2 1.4-2.3-8.8-2-1.1-5.8 1.5-3 3v2.3l6.4 6.5-3.8 3.8-2.6-2.6v3.3l6.4 6.4-3.8 3.8-2.6-2.6v6.4h-4.3v-6.4l-2.7 2.6-3.8-3.8 6.5-6.4v-3.3l-2.7 2.6-3.8-3.8 6.5-6.5v-2.3l-4.3-4.2-4.1-1.1-2 1.2-2.3 8.7-5.3-1.4 1-3.5-2.8 1.6-2.4 8.8-5.2-1.4 0.9-3.6-5.4 3.2-2.2-3.7 5.5-3.2-3.6-1 1.4-5.2 8.8 2.4 2.8-1.7-3.5-0.9 1.4-5.2 8.7 2.3 2.1-1.2 1.5-5.7-1.1-4.1-2-1.2-8.8 2.4-1.4-5.2 3.6-1-2.9-1.6-8.7 2.3-1.4-5.2zm23.2 18l5 0.8 2.2 4.4 2.2-4.4 4.9-0.8-3.5-3.5 0.8-4.9-4.4 2.3-4.5-2.3 0.9 4.9z"/><path fill-rule="evenodd" class="p" d="m372.5 649.5l-3.1-1.7 1.2-2.1 3.1 1.8-0.6-2 2.9-0.8 1.3 4.9 1.6 0.9-0.5-2 2.8-0.8 1.3 4.9 1.1 0.6 3.2-0.8 1.7-1.7v-1.3l-3.6-3.5 2.1-2.1 1.5 1.4v-1.8l-3.6-3.5 2.1-2.1 1.5 1.4v-3.5h2.4v3.5l1.4-1.4 2.1 2.1-3.5 3.5v1.8l1.4-1.4 2.1 2.1-3.5 3.5v1.3l2.3 2.3 2.2 0.6 1.2-0.6 1.3-4.8 2.8 0.7-0.5 2 1.6-0.9 1.3-4.8 2.8 0.7-0.5 2 3.1-1.8 1.2 2.1-3.1 1.8 2 0.5-0.8 2.9-4.8-1.3-1.6 0.9 2 0.5-0.8 2.9-4.8-1.3-1.2 0.6-0.8 3.2 0.6 2.3 1.1 0.6 4.9-1.3 0.7 2.9-1.9 0.5 1.5 0.9 4.9-1.3 0.7 2.9-1.9 0.5 3 1.8-1.2 2-3-1.7 0.5 2-2.9 0.7-1.3-4.8-1.5-0.9 0.5 1.9-2.9 0.8-1.3-4.8-1.1-0.7-3.2 0.9-1.6 1.6v1.3l3.5 3.6-2.1 2.1-1.4-1.5v1.8l3.5 3.6-2.1 2.1-1.4-1.4v3.5h-2.4v-3.5l-1.5 1.4-2.1-2.1 3.6-3.6v-1.8l-1.5 1.5-2.1-2.1 3.6-3.6v-1.3l-2.3-2.3-2.3-0.6-1.1 0.6-1.3 4.9-2.9-0.8 0.5-1.9-1.5 0.9-1.3 4.8-2.9-0.8 0.5-1.9-3 1.7-1.2-2.1 3-1.7-1.9-0.5 0.7-2.9 4.9 1.3 1.5-0.9-1.9-0.5 0.7-2.9 4.9 1.3 1.1-0.7 0.8-3.1-0.6-2.3-1.1-0.6-4.8 1.2-0.8-2.8 2-0.6-1.6-0.9-4.8 1.3-0.8-2.8zm12.8 9.9l2.7 0.4 1.3 2.5 1.2-2.5 2.7-0.4-2-1.9 0.5-2.7-2.4 1.3-2.5-1.3 0.5 2.7z"/><path fill-rule="evenodd" class="q" d="m693.4 557.6l-3.6-2 1.4-2.4 3.6 2-0.6-2.3 3.3-0.9 1.5 5.7 1.8 1-0.6-2.3 3.4-0.9 1.5 5.7 1.3 0.7 3.7-1 2-1.9v-1.5l-4.2-4.1 2.5-2.5 1.7 1.7v-2.1l-4.2-4.1 2.5-2.5 1.7 1.7v-4.1h2.7v4.1l1.7-1.7 2.5 2.5-4.2 4.1v2.1l1.7-1.7 2.5 2.5-4.2 4.1v1.5l2.7 2.7 2.7 0.7 1.3-0.7 1.5-5.7 3.4 0.9-0.6 2.3 1.8-1 1.5-5.7 3.3 0.9-0.6 2.3 3.6-2 1.4 2.4-3.6 2 2.3 0.6-0.9 3.4-5.6-1.5-1.9 1 2.3 0.7-0.9 3.3-5.6-1.5-1.3 0.8-1 3.7 0.7 2.6 1.3 0.8 5.7-1.6 0.9 3.4-2.3 0.6 1.8 1.1 5.6-1.6 0.9 3.4-2.3 0.6 3.6 2.1-1.4 2.4-3.5-2.1 0.6 2.3-3.4 0.9-1.5-5.6-1.8-1.1 0.6 2.3-3.4 0.9-1.5-5.6-1.3-0.8-3.7 1-1.9 1.9v1.5l4.1 4.2-2.5 2.4-1.6-1.6v2.1l4.1 4.1-2.5 2.5-1.6-1.7v4.1h-2.8v-4.1l-1.7 1.7-2.5-2.5 4.2-4.1v-2.1l-1.7 1.6-2.5-2.4 4.2-4.2v-1.5l-2.7-2.7-2.7-0.7-1.3 0.8-1.5 5.6-3.4-0.9 0.7-2.3-1.9 1.1-1.5 5.6-3.3-0.9 0.6-2.3-3.6 2.1-1.4-2.4 3.6-2.1-2.3-0.6 0.9-3.3 5.6 1.5 1.9-1.1-2.3-0.6 0.9-3.4 5.6 1.6 1.3-0.8 1-3.7-0.7-2.6-1.3-0.8-5.6 1.5-0.9-3.3 2.2-0.6-1.8-1.1-5.6 1.5-0.9-3.4zm14.9 11.7l3.2 0.4 1.4 2.9 1.5-2.9 3.1-0.4-2.3-2.3 0.6-3.2-2.9 1.5-2.8-1.5 0.5 3.2z"/><path class="r" d="m261.7 437l145.9-44.5 42.3-69.4 86.3-13.6 149-25.3 62.6 93.1 55.9 76.1-37.3 18.6-179.4 37.3h-126.9l-143.8-36.7z"/><path class="s" d="m231.8 454.1c-8.4 0-15.2-6.4-15.2-14.3 0-7.9 6.8-14.3 15.2-14.3 8.4 0 15.3 6.4 15.3 14.3 0 7.9-6.9 14.3-15.3 14.3z"/><path class="t" d="m782.8 476.9c-12.5 0-22.7-9.8-22.7-21.9 0-12.1 10.2-21.9 22.7-21.9 12.6 0 22.8 9.8 22.8 21.9 0 12.1-10.2 21.9-22.8 21.9z"/><path class="u" d="m747.1 507.6c16.8 0.4 30.7-12.7 31.1-29.4 0.3-16.6-13.1-30.4-30-30.8-16.8-0.4-30.7 12.7-31 29.4-0.3 16.6 13.1 30.4 29.9 30.8z"/><path class="v" d="m420.6 550.6c16.3 0.3 29.8-12.9 30.1-29.6 0.4-16.6-12.5-30.4-28.8-30.7-16.3-0.4-29.8 12.9-30.1 29.5-0.4 16.6 12.5 30.4 28.8 30.8z"/><path class="w" d="m641.4 548.3c-22.3 0-40.3-18-40.3-40.3 0-22.3 18-40.3 40.3-40.3 22.2 0 40.2 18 40.2 40.3 0 22.3-18 40.3-40.2 40.3z"/><path class="x" d="m723.4 385.2c-22.3 0-40.3-18-40.3-40.3 0-22.3 18-40.3 40.3-40.3 22.2 0 40.2 18 40.2 40.3 0 22.3-18 40.3-40.2 40.3z"/><path class="y" d="m740.5 319.1c-11.3-7.7-24.8-9-35.5-4.6 9.9-6.1 22.5-7.3 33.8-1.9 15.8 7.5 23.4 25.1 18.9 41.4 1.6-12.6-4.7-26.5-17.2-34.9z"/><path class="z" d="m749.8 459.8c-30.2 0-54.7-24.5-54.7-54.7 0-30.3 24.5-54.7 54.7-54.7 30.3 0 54.7 24.4 54.7 54.7 0 30.2-24.4 54.7-54.7 54.7z"/><path class="A" d="m315.7 502.7c18.8 0.4 34.3-12.7 34.6-29.4 0.4-16.6-14.5-30.4-33.3-30.8-18.8-0.4-34.3 12.7-34.7 29.4-0.4 16.6 14.6 30.4 33.4 30.8z"/><path class="B" d="m457.4 416c-32.6 0-59-26.4-59-59.1 0-32.6 26.4-59 59-59 32.7 0 59.1 26.4 59.1 59 0 32.7-26.4 59.1-59.1 59.1z"/><path class="C" d="m431.2 318.7c-15.3 10.5-24.5 26.2-25.6 40.7-1.4-14.3 4.5-29.9 17.1-41.4 17.7-15.9 42.3-18.1 58.4-6.2-13.6-6.9-33.1-4.8-49.9 6.9z"/><path class="D" d="m267.4 468.8c17.9 0.5 32.7-13.4 33-31 0.3-17.6-14-32.2-31.9-32.6-18-0.5-32.8 13.4-33.1 31-0.3 17.5 14 32.1 32 32.6z"/><path class="E" d="m392.6 531.8c-29.8 0-53.8-24.1-53.8-53.9 0-29.7 24-53.8 53.8-53.8 29.8 0 53.8 24.1 53.8 53.8 0 29.8-24 53.9-53.8 53.9z"/><path class="F" d="m253.8 417.3c-9.9 6.6-15.4 17-15.4 27-1.7-10 1.6-20.5 9.6-27.8 11.3-10.2 28-10.5 39.6-1.5-9.6-5.4-22.8-4.9-33.8 2.3z"/><path class="G" d="m325.7 458c25.6 0.5 46.7-17.9 47.2-41 0.5-23.2-19.8-42.5-45.4-43-25.6-0.6-46.7 17.8-47.2 41-0.5 23.2 19.8 42.4 45.4 43z"/><path class="H" d="m306.1 389.4c-13.7 9-21.3 23.4-21.3 37.2-2.3-13.7 2.2-28.3 13.3-38.4 15.5-14 38.6-14.4 54.5-2-13.2-7.5-31.4-6.8-46.5 3.2z"/><path class="I" d="m676.1 405.7c-29.9 12-44.4 45.9-32.4 75.8 12 29.8 45.9 44.3 75.8 32.3 29.9-12 44.3-45.9 32.3-75.8-12-29.8-45.9-44.3-75.7-32.3z"/><path class="J" d="m646 390.7c41.5 0.8 75.8-32.1 76.7-73.6 0.9-41.5-32-75.8-73.5-76.7-41.5-0.9-75.8 32.1-76.7 73.5-0.9 41.5 32 75.9 73.5 76.8z"/><path class="K" d="m477.8 560.9c32.1 0.7 58.8-24.8 59.4-57 0.7-32.2-24.8-58.8-57-59.5-32.2-0.7-58.8 24.9-59.5 57-0.7 32.2 24.9 58.8 57.1 59.5z"/><path class="L" d="m616.7 470.8c-16.5-32.2-55.9-45-88-28.5-32.2 16.4-45 55.8-28.6 88 16.4 32.2 55.8 44.9 88 28.5 32.2-16.4 45-55.8 28.6-88z"/><path class="M" d="m400.9 444.8c-27.6 0-50-22.3-50-50 0-27.6 22.4-49.9 50-49.9 27.6 0 50 22.3 50 49.9 0 27.7-22.4 50-50 50z"/><path class="N" d="m536.7 387.6c35.1 0.7 64.2-27.1 64.9-62.2 0.8-35.1-27.1-64.1-62.2-64.9-35.1-0.7-64.1 27.1-64.9 62.2-0.7 35.1 27.1 64.2 62.2 64.9z"/><path class="O" d="m656.2 258.9c-26.1-4-50.6 4.9-65.7 21.4 12.2-18.9 33.3-31.4 57.4-31.4 33.7 0 61.7 24.4 67.2 56.5-7.7-23.3-30.1-42.1-58.9-46.5z"/><path class="P" d="m509.8 283c-18.6 12.4-29 32-29.1 51-3.1-18.8 3-38.8 18.2-52.5 21.3-19.3 52.8-19.8 74.7-2.7-18.2-10.3-43.1-9.4-63.8 4.2z"/><path class="Q" d="m379 362.8c-14.8 9.8-23 25.3-23.1 40.4-2.4-15 2.4-30.8 14.5-41.7 16.8-15.3 41.9-15.7 59.2-2.1-14.4-8.2-34.2-7.5-50.6 3.4z"/></svg>