<svg version="1.2" xmlns="http://www.w3.org/2000/svg" viewBox="0 0 920 710" width="920" height="710"><defs><linearGradient id="P" gradientUnits="userSpaceOnUse"/><radialGradient id="g1" cx="513.9" cy="345.4" r="576.4" href="#P"><stop stop-color="#f08800"/><stop offset=".38" stop-color="#ffec00"/><stop offset="1" stop-color="#fff9cb"/></radialGradient><radialGradient id="g2" cx="513.6" cy="397.3" r="2129" href="#P"><stop stop-color="#f08800"/><stop offset=".38" stop-color="#ffec00"/><stop offset="1" stop-color="#fff9cb"/></radialGradient><radialGradient id="g3" cx="513.6" cy="395.8" r="2153.3" href="#P"><stop stop-color="#f08800"/><stop offset=".38" stop-color="#ffec00"/><stop offset="1" stop-color="#fff9cb"/></radialGradient><radialGradient id="g4" cx="513.5" cy="395.6" r="2151" href="#P"><stop stop-color="#f08800"/><stop offset=".38" stop-color="#ffec00"/><stop offset="1" stop-color="#fff9cb"/></radialGradient><radialGradient id="g5" cx="565.3" cy="395.6" r="582.9" href="#P"><stop stop-color="#f08800"/><stop offset=".38" stop-color="#ffec00"/><stop offset="1" stop-color="#fff9cb"/></radialGradient><radialGradient id="g6" cx="514.4" cy="396.6" r="195" href="#P"><stop stop-color="#ffec00"/><stop offset="1" stop-color="#f08800"/></radialGradient><radialGradient id="g7" cx="519" cy="399.1" r="216.7" href="#P"><stop stop-color="#fff"/><stop offset=".49" stop-color="#ffec00"/><stop offset="1" stop-color="#f08800"/></radialGradient><linearGradient id="g8" x1="533.7" y1="362.3" x2="533.7" y2="243.7" href="#P"><stop stop-color="#f9d200"/><stop offset=".46" stop-color="#fded59"/><stop offset="1" stop-color="#f9f4f9"/></linearGradient><radialGradient id="g9" cx="562.9" cy="310.7" r="202.8" href="#P"><stop stop-color="#ffec00"/><stop offset="1" stop-color="#f08800"/></radialGradient><linearGradient id="g10" x1="335.8" y1="337.2" x2="547.5" y2="407.7" href="#P"><stop stop-color="#f9d200"/><stop offset=".46" stop-color="#fded59"/><stop offset="1" stop-color="#f9f4f9"/></linearGradient><linearGradient id="g11" x1="672.5" y1="462.1" x2="624.8" y2="435.2" href="#P"><stop stop-color="#f9d200"/><stop offset=".46" stop-color="#fded59"/><stop offset="1" stop-color="#f9f4f9"/></linearGradient><radialGradient id="g12" cx="652.7" cy="544.2" r="56.7" href="#P"><stop stop-color="#fff"/><stop offset="1" stop-color="#84afc5"/></radialGradient><radialGradient id="g13" cx="709.9" cy="572.8" r="36.6" href="#P"><stop stop-color="#fff"/><stop offset=".71" stop-color="#f0e376"/><stop offset="1" stop-color="#f6b601"/></radialGradient><radialGradient id="g14" cx="51" cy="558.3" r="46.8" href="#P"><stop stop-color="#fff"/><stop offset="1" stop-color="#84afc5"/></radialGradient><radialGradient id="g15" cx="84.2" cy="585.8" r="48.7" href="#P"><stop stop-color="#fff"/><stop offset="1" stop-color="#84afc5"/></radialGradient><radialGradient id="g16" cx="448.8" cy="587.3" r="144.9" href="#P"><stop stop-color="#fff"/><stop offset="1" stop-color="#a7c6d7"/></radialGradient><radialGradient id="g17" cx="224.6" cy="593" r="95.9" href="#P"><stop stop-color="#fff"/><stop offset="1" stop-color="#84afc5"/></radialGradient><radialGradient id="g18" cx="154.8" cy="461.2" r="110" href="#P"><stop stop-color="#fff"/><stop offset="1" stop-color="#a7c6d7"/></radialGradient><radialGradient id="g19" cx="67.7" cy="391.9" r="47.8" href="#P"><stop stop-color="#fff"/><stop offset="1" stop-color="#c7dcea"/></radialGradient><radialGradient id="g20" cx="138.8" cy="540.8" r="149.4" href="#P"><stop stop-color="#fff"/><stop offset="1" stop-color="#a7c6d7"/></radialGradient><radialGradient id="g21" cx="605.1" cy="573.8" r="56.5" href="#P"><stop stop-color="#fff"/><stop offset="1" stop-color="#84afc5"/></radialGradient><radialGradient id="g22" cx="420.3" cy="482.6" r="115" href="#P"><stop stop-color="#fff"/><stop offset=".71" stop-color="#f0e376"/><stop offset="1" stop-color="#ed7218"/></radialGradient><radialGradient id="g23" cx="476.3" cy="371.7" r="60.5" href="#P"><stop stop-color="#fff"/><stop offset="1" stop-color="#ffec00"/></radialGradient><radialGradient id="g24" cx="662.3" cy="573.8" r="61.2" href="#P"><stop stop-color="#fff"/><stop offset=".71" stop-color="#f0e376"/><stop offset="1" stop-color="#f6b601"/></radialGradient><radialGradient id="g25" cx="506" cy="563.1" r="99.4" href="#P"><stop stop-color="#fff"/><stop offset="1" stop-color="#84afc5"/></radialGradient><radialGradient id="g26" cx="691.8" cy="502.7" r="40.8" href="#P"><stop stop-color="#fff"/><stop offset="1" stop-color="#ffec00"/></radialGradient><radialGradient id="g27" cx="568.7" cy="553.2" r="89.8" href="#P"><stop stop-color="#fff"/><stop offset=".71" stop-color="#f0e376"/><stop offset="1" stop-color="#ec8217"/></radialGradient><radialGradient id="g28" cx="634.4" cy="431.2" r="87.8" href="#P"><stop stop-color="#fff"/><stop offset="1" stop-color="#ffec00"/></radialGradient><radialGradient id="g29" cx="182.4" cy="540.9" r="121.2" href="#P"><stop stop-color="#fff"/><stop offset="1" stop-color="#84afc5"/></radialGradient><radialGradient id="g30" cx="234" cy="437.3" r="161.4" href="#P"><stop stop-color="#fff"/><stop offset="1" stop-color="#84afc5"/></radialGradient><radialGradient id="g31" cx="398.8" cy="588.1" r="109.1" href="#P"><stop stop-color="#fff"/><stop offset="1" stop-color="#84afc5"/></radialGradient><radialGradient id="g32" cx="315.2" cy="557.8" r="151.3" href="#P"><stop stop-color="#fff"/><stop offset="1" stop-color="#769cb0"/></radialGradient><radialGradient id="g33" cx="463.7" cy="533.3" r="125.4" href="#P"><stop stop-color="#fff"/><stop offset=".71" stop-color="#f0e376"/><stop offset="1" stop-color="#ec8217"/></radialGradient><radialGradient id="g34" cx="294.8" cy="473.5" r="149.2" href="#P"><stop stop-color="#fff"/><stop offset=".85" stop-color="#f0e376"/><stop offset="1" stop-color="#ec8217"/></radialGradient><radialGradient id="g35" cx="199.7" cy="343.3" r="107.9" href="#P"><stop stop-color="#fff"/><stop offset="1" stop-color="#c7dcea"/></radialGradient><radialGradient id="g36" cx="414.3" cy="335.2" r="104.3" href="#P"><stop stop-color="#fff"/><stop offset="1" stop-color="#ffec00"/></radialGradient><radialGradient id="g37" cx="546.3" cy="431.6" r="47.3" href="#P"><stop stop-color="#fff"/><stop offset="1" stop-color="#ffec00"/></radialGradient><radialGradient id="g38" cx="370.7" cy="437.6" r="76.6" href="#P"><stop stop-color="#fff"/><stop offset=".71" stop-color="#f0e376"/><stop offset="1" stop-color="#ec8217"/></radialGradient><radialGradient id="g39" cx="410.7" cy="501.9" r="108.2" href="#P"><stop stop-color="#fff"/><stop offset=".71" stop-color="#f0e376"/><stop offset="1" stop-color="#ec8217"/></radialGradient><radialGradient id="g40" cx="524.4" cy="570.6" r="93.6" href="#P"><stop stop-color="#fff"/><stop offset=".75" stop-color="#f0e376"/><stop offset="1" stop-color="#ec8217"/></radialGradient></defs><style>.a{fill:url(#g1)}.b{fill:url(#g2)}.c{fill:url(#g3)}.d{fill:url(#g4)}.e{fill:url(#g5)}.f{fill:url(#g6)}.g{fill:url(#g7)}.h{fill:url(#g8)}.i{fill:url(#g9)}.j{fill:url(#g10)}.k{fill:url(#g11)}.l{fill:url(#g12)}.m{fill:#fff}.n{fill:url(#g13)}.o{fill:url(#g14)}.p{fill:url(#g15)}.q{fill:url(#g16)}.r{fill:url(#g17)}.s{fill:url(#g18)}.t{fill:url(#g19)}.u{fill:url(#g20)}.v{fill:url(#g21)}.w{fill:url(#g22)}.x{fill:url(#g23)}.y{fill:url(#g24)}.z{fill:url(#g25)}.A{fill:url(#g26)}.B{fill:url(#g27)}.C{fill:url(#g28)}.D{fill:url(#g29)}.E{fill:url(#g30)}.F{fill:url(#g31)}.G{fill:url(#g32)}.H{fill:url(#g33)}.I{fill:url(#g34)}.J{fill:url(#g35)}.K{fill:url(#g36)}.L{fill:url(#g37)}.M{fill:url(#g38)}.N{fill:url(#g39)}.O{fill:url(#g40)}</style><path class="a" d="m513.8 6.7v5.6c0.7 35.3 4.6 112.7 14.9 175 8.3 49.4 25.7 53.1 25.7 53.1l-81.1 0.7c0 0 17.4-4 25.5-53.5 10.3-62.5 14.4-140 14.9-175.3z"/><path class="b" d="m278.1 169.2l2.1 2c14 12 91.2 78.1 128 87.5 29.2 7.4 53.2-13.6 53.2-13.6l-105.3 105.1c0 0 21.1-23.8 13.4-52.6-10-36.5-77.1-112.6-89.4-126.4z"/><path class="c" d="m747.2 159.6l-2.2 2.1c-12.4 14.2-80.6 92.1-90.6 129.1-7.8 29 13.4 52.6 13.4 52.6l-106-103.7c0 0 24.1 20.6 53.4 12.6 37.3-10.1 115.6-78.2 129.8-90.6z"/><path class="d" d="m689.3 549.7c-14.3-19.9-26.6-39.7-30.3-53.6-7.8-29 13.4-52.9 13.4-52.9l-106 105.1c0 0 24-20.9 53.3-13.3 17.8 4.6 44.7 22.2 69.6 40.6z"/><path class="e" d="m910.8 394.1h-5.8c-36.2 0.9-115.4 5.3-179.3 16.1-50.1 8.4-54 25.6-54 25.6v-80.5c0 0 3.9 17.2 54 25.1 63.9 9.9 143.1 13.3 179.3 13.7z"/><path class="f" d="m348.1 397.6c0 90.7 74 163.9 165.7 163.6 91.9-0.3 166.9-74.4 166.9-165.7 0-91.1-75-164.4-166.9-163.6-91.7 0.9-165.7 75.2-165.7 165.7z"/><path class="g" d="m513.8 542.4c85.7-0.3 155.8-67.5 157.9-150.7q0 1.9 0 3.9c0 86.4-70.7 156.6-157.9 156.9-86.9 0.3-157-69.1-157-155 0-1.2 0.1-2.5 0.1-3.8 2.1 82.7 71.3 149 156.9 148.7z"/><path class="h" d="m371.1 333.6c24.5-53.8 78.9-91.4 142.4-92q0.2 0 0.3 0 0.2 0 0.3 0c63.5-0.6 118.3 36.2 143.1 89.9 4.9 10.7 3.7 13 1.6 14.3-1.9 0.9-5.2 0.8-10.4-4.1-29.2-25.2-78.4-41.6-134.3-41.1q-0.1 0-0.3 0-0.1 0-0.3 0c-55.7 0.5-104.6 17.5-133.7 43-5.1 5-8.2 5.2-10.1 4.3-2.1-1.3-3.4-3.5 1.4-14.3z"/><path class="i" d="m661.1 473.2c-28.2 52.1-83.7 87.8-147.3 88-91.7 0.3-165.7-72.9-165.7-163.6 0-30.1 8.2-58.3 22.4-82.5 21.7 7.3 40.3 21.4 53 39.7q5.4-0.5 10.9-0.5c41.8-0.3 77.6 24.3 93.5 59.8 20.3 5.4 37.8 17.5 49.9 33.9q7.8-1.6 16.2-1.8 0.7 0 2 0c25.2-0.3 48.8 9.9 65.1 27z"/><path class="j" d="m379.8 343.6c-5.1 5-8.2 5.2-10.1 4.3-2.1-1.3-3.4-3.5 1.4-14.3 2.4-5.3 5.2-10.3 8.1-15.1 7.1 3 13.7 6.8 19.8 11.2-7.1 4.4-13.5 8.9-19.2 13.9z"/><path class="k" d="m513.8 552.5c-86.9 0.3-157-69.1-157-155 0-1.2 0.1-2.5 0.1-3.8 2.1 82.7 71.3 149 156.9 148.7 58.6-0.2 110-31.7 137.2-78.3q1.8 1.4 3.4 2.7c-26.2 50.8-79.4 85.5-140.6 85.7z"/><path class="l" d="m656.4 603.2c-21.2 0.6-38.5-15.5-39-35.9-0.3-20.3 16.5-37.2 37.5-37.8 21-0.5 38.5 15.5 38.8 35.8 0.5 20.5-16.3 37.4-37.3 37.9z"/><path class="m" d="m676.1 552l-180.4-53.6-52.1-84.4-106-15.9-181.7-29.7-75.9 113.3-67.8 92.2 45.2 22.5 218.2 44.7 155.5-0.2 177.4-45.1z"/><path class="n" d="m713.5 572.8c-10.5 0.4-19.1-7.2-19.1-16.8-0.2-9.7 8.1-17.9 18.6-18.1 10.5-0.4 19 7.2 19.1 16.8 0.2 9.7-8.2 17.9-18.6 18.1z"/><path class="o" d="m38 602.3c-15.1 0.4-27.7-11.2-28-25.8-0.3-14.6 11.8-26.7 27-27.1 15.1-0.5 27.7 11 28 25.7 0.3 14.6-11.8 26.7-27 27.2z"/><path class="p" d="m80.8 639.5c-20.4 0.5-37.3-15.6-37.6-35.6-0.5-20.2 15.8-36.9 36.2-37.5 20.5-0.5 37.3 15.4 37.7 35.6 0.4 20.1-15.9 36.9-36.3 37.5z"/><path class="q" d="m479.6 691.2c-20 0.5-36.5-15.7-37-35.9-0.5-20.4 15.5-37.2 35.6-37.6 19.9-0.5 36.6 15.7 37.1 35.9 0.3 20.4-15.6 37.2-35.7 37.6z"/><path class="r" d="m160.2 639.7c0-27 21.9-48.8 49-48.9 27.2-0.1 49.2 21.7 49.2 48.7 0 27.2-22 49-49.2 49.1-27.1 0-49-21.9-49-48.9z"/><path class="s" d="m60.7 442.5c0-26.9 21.8-48.8 48.9-49 27-0.2 48.9 21.5 48.9 48.5 0 27-21.9 49-48.9 49.1-27.1 0.1-48.9-21.6-48.9-48.6z"/><path class="t" d="m88.9 411.1c13.7-9.3 30-11 43.1-5.8-12.2-7.2-27.5-8.6-41.2-2.1-19.1 9.3-28.3 30.7-22.9 50.4-1.9-15.3 5.7-32.2 21-42.5z"/><path class="u" d="m11.3 515.5c0-36.5 29.5-66.2 66.1-66.4 36.7-0.2 66.4 29.2 66.4 65.9 0 36.6-29.7 66.3-66.4 66.4-36.6 0.1-66.1-29.4-66.1-65.9z"/><path class="v" d="m609.1 632.6c-23.2 0.5-42.4-15.5-42.7-35.8-0.5-20.4 18-37.3 41.3-37.8 23.3-0.6 42.5 15.5 42.8 35.9 0.5 20.3-18.1 37.2-41.4 37.7z"/><path class="w" d="m361.9 455.6c0-39.7 32.4-72.1 72.5-72.3 40.1-0.3 72.6 31.7 72.6 71.5 0 39.8-32.5 72.2-72.6 72.3-40.1 0.2-72.5-31.9-72.5-71.5z"/><path class="x" d="m466.7 408.4c18.8 12.7 30.1 31.7 31.4 49.5 1.8-17.5-5.5-36.5-21-50.4-21.7-19.2-52.1-21.8-71.8-7.1 16.6-8.6 40.5-6.1 61.4 8z"/><path class="y" d="m669.1 591c-22.2 0.7-40.6-16.3-40.9-37.9-0.5-21.4 17.3-39.3 39.6-40 22.2-0.6 40.6 16.3 41 37.8 0.3 21.6-17.4 39.5-39.7 40.1z"/><path class="z" d="m447.9 602.7c0-36.4 29.6-65.8 66.2-65.9 36.9-0.1 66.6 29.2 66.6 65.6 0 36.3-29.7 65.8-66.6 65.8-36.6 0-66.2-29.3-66.2-65.5z"/><path class="A" d="m685.9 527.8c12.2 8 19.1 20.7 19.3 33.1 1.9-12.2-2.2-25.2-12.1-34.1-14.1-12.5-34.8-12.7-49.1-1.6 11.9-6.6 28.4-6.2 41.9 2.6z"/><path class="B" d="m596.8 578c-31.5 0.7-57.7-21.7-58.3-50-0.7-28.4 24.5-51.9 56.2-52.7 31.5-0.8 57.8 21.4 58.4 49.9 0.5 28.3-24.6 52-56.3 52.8z"/><path class="C" d="m621.2 494c16.8 11 26.2 28.5 26.4 45.4 2.7-16.8-2.8-34.6-16.6-46.9-19.2-17.1-47.7-17.5-67.5-2.1 16.4-9.3 39-8.6 57.7 3.6z"/><path class="D" d="m167.1 515.7c36.3 14.4 53.9 55.4 39.4 91.8-14.6 36.3-56 53.8-92.2 39.4-36.2-14.4-53.7-55.6-39.2-91.7 14.4-36.2 55.6-53.9 92-39.5z"/><path class="E" d="m203.6 497.4c-50.4 1.1-92.2-38.5-93.2-88.8-1.1-50.1 38.8-92.1 89.3-93.5 50.7-1.5 92.6 38.1 93.7 88.6 1 50.5-39.2 92.3-89.8 93.7z"/><path class="F" d="m409.3 703.8c-39.5 0.8-72-30.2-72.8-69.3-1-39.2 30.4-71.6 69.9-72.5 39.4-1.1 72.3 30.1 73.1 69.2 0.8 39.3-30.6 71.8-70.2 72.6z"/><path class="G" d="m239.3 594.4c20.1-39 68.2-54.8 107.7-35 39.4 19.9 55.1 67.9 34.9 107.2-20.1 39.2-68.3 54.7-107.6 34.7-39.3-19.9-55-67.8-35-106.9z"/><path class="H" d="m442.4 501.3c0-33.6 27.5-61 61.5-61.2 34.1-0.2 61.7 27 61.7 60.7 0 33.7-27.6 61.3-61.7 61.4-34 0.1-61.5-27.2-61.5-60.9z"/><path class="I" d="m337.1 493c-42.9 1.1-78.4-32.6-79.3-75.2-1-42.6 33-78.2 76-79.3 43-1.3 78.6 32.4 79.6 75.2 0.8 42.7-33.3 78.3-76.3 79.3z"/><path class="J" d="m191.3 337.5c31.7-5 61.6 5.5 79.9 25.4-14.7-22.8-40.5-37.8-69.9-37.6-41.1 0.3-74.9 30.2-81.8 69.1 9.4-28.2 36.7-51.4 71.8-56.9z"/><path class="K" d="m370 365.6c22.9 14.9 35.6 38.7 35.8 61.9 3.9-23.1-3.7-47.2-22.4-63.9-26-23.3-64.6-23.7-91.5-2.7 22.2-12.6 52.8-11.7 78.1 4.7z"/><path class="L" d="m530.8 461.8c18.4 11.9 28.6 30.8 28.6 49.3 3.1-18.3-2.9-37.6-17.8-50.8-20.8-18.5-51.6-19-73-2.4 17.7-10 42.1-9.2 62.2 3.9z"/><path class="M" d="m381.3 452.6c-19.5 0.4-35.6-14.9-36-34-0.4-19.4 15-35.5 34.5-36.1 19.5-0.4 35.7 14.7 36.2 34 0.3 19.4-15.2 35.5-34.7 36.1z"/><path class="N" d="m425.8 523c-27.4 0.7-50.2-20.8-50.8-48.1-0.7-27.2 21.3-50.1 48.7-50.7 27.6-0.8 50.4 20.7 50.9 48.1 0.7 27.4-21.2 50.1-48.8 50.7z"/><path class="O" d="m546.1 581.8c-21.9 0.5-39.9-16.6-40.4-38.2-0.5-21.7 16.9-39.6 38.8-40.1 21.7-0.6 39.9 16.5 40.4 38.2 0.5 21.5-16.9 39.6-38.8 40.1z"/></svg>