<svg version="1.2" xmlns="http://www.w3.org/2000/svg" viewBox="0 0 880 710" width="880" height="710"><defs><linearGradient id="P" gradientUnits="userSpaceOnUse"/><radialGradient id="g1" cx="388.9" cy="273.6" r="468.4" href="#P"><stop stop-color="#f08800"/><stop offset=".38" stop-color="#ffec00"/><stop offset="1" stop-color="#fff9cb"/></radialGradient><radialGradient id="g2" cx="388.6" cy="315.3" r="1748.1" href="#P"><stop stop-color="#f08800"/><stop offset=".38" stop-color="#ffec00"/><stop offset="1" stop-color="#fff9cb"/></radialGradient><radialGradient id="g3" cx="388.8" cy="316.1" r="1741.3" href="#P"><stop stop-color="#f08800"/><stop offset=".38" stop-color="#ffec00"/><stop offset="1" stop-color="#fff9cb"/></radialGradient><radialGradient id="g4" cx="386.6" cy="316.1" r="1732.6" href="#P"><stop stop-color="#f08800"/><stop offset=".38" stop-color="#ffec00"/><stop offset="1" stop-color="#fff9cb"/></radialGradient><radialGradient id="g5" cx="345.8" cy="315.8" r="471.5" href="#P"><stop stop-color="#f08800"/><stop offset=".38" stop-color="#ffec00"/><stop offset="1" stop-color="#fff9cb"/></radialGradient><radialGradient id="g6" cx="387.5" cy="314.9" r="157.8" href="#P"><stop stop-color="#ffec00"/><stop offset="1" stop-color="#f08800"/></radialGradient><radialGradient id="g7" cx="383.7" cy="318" r="175.4" href="#P"><stop stop-color="#fff"/><stop offset=".49" stop-color="#ffec00"/><stop offset="1" stop-color="#f08800"/></radialGradient><linearGradient id="g8" x1="372.1" y1="286.6" x2="372.1" y2="188.8" href="#P"><stop stop-color="#f9d200"/><stop offset=".46" stop-color="#fded59"/><stop offset="1" stop-color="#f9f4f9"/></linearGradient><radialGradient id="g9" cx="347.9" cy="243.3" r="164.5" href="#P"><stop stop-color="#ffec00"/><stop offset="1" stop-color="#f08800"/></radialGradient><linearGradient id="g10" x1="532.5" y1="265.9" x2="361.3" y2="322.9" href="#P"><stop stop-color="#f9d200"/><stop offset=".46" stop-color="#fded59"/><stop offset="1" stop-color="#f9f4f9"/></linearGradient><linearGradient id="g11" x1="258.5" y1="368.6" x2="298.1" y2="346.3" href="#P"><stop stop-color="#f9d200"/><stop offset=".46" stop-color="#fded59"/><stop offset="1" stop-color="#f9f4f9"/></linearGradient><radialGradient id="g12" cx="309.6" cy="591.1" r="51.5" href="#P"><stop stop-color="#e7f5fd"/><stop offset=".46" stop-color="#80b5d0"/><stop offset=".71" stop-color="#006892"/></radialGradient><radialGradient id="g13" cx="295.6" cy="614" r=".1" href="#P"><stop stop-color="#fff"/><stop offset=".68" stop-color="#aedef8"/><stop offset="1" stop-color="#009ee2"/></radialGradient><radialGradient id="g14" cx="306.8" cy="572.9" r="179.3" href="#P"><stop stop-color="#fff"/><stop offset=".38" stop-color="#95bdd2"/><stop offset=".71" stop-color="#3d758b"/></radialGradient><radialGradient id="g15" cx="370.5" cy="673.8" r="51.4" href="#P"><stop stop-color="#e7f5fd"/><stop offset=".46" stop-color="#80b5d0"/><stop offset=".71" stop-color="#006892"/></radialGradient><radialGradient id="g16" cx="356.4" cy="696.6" r=".1" href="#P"><stop stop-color="#fff"/><stop offset=".68" stop-color="#aedef8"/><stop offset="1" stop-color="#009ee2"/></radialGradient><radialGradient id="g17" cx="367.7" cy="655.7" r="178.9" href="#P"><stop stop-color="#fff"/><stop offset=".38" stop-color="#95bdd2"/><stop offset=".71" stop-color="#3d758b"/></radialGradient><radialGradient id="g18" cx="571.6" cy="681.5" r="51.6" href="#P"><stop stop-color="#e7f5fd"/><stop offset=".46" stop-color="#80b5d0"/><stop offset=".71" stop-color="#006892"/></radialGradient><radialGradient id="g19" cx="557.3" cy="704.3" r=".1" href="#P"><stop stop-color="#fff"/><stop offset=".68" stop-color="#aedef8"/><stop offset="1" stop-color="#009ee2"/></radialGradient><radialGradient id="g20" cx="568.8" cy="663.5" r="179" href="#P"><stop stop-color="#fff"/><stop offset=".38" stop-color="#95bdd2"/><stop offset=".71" stop-color="#3d758b"/></radialGradient><radialGradient id="g21" cx="478" cy="637.3" r="51.6" href="#P"><stop stop-color="#e7f5fd"/><stop offset=".46" stop-color="#80b5d0"/><stop offset=".71" stop-color="#006892"/></radialGradient><radialGradient id="g22" cx="463.8" cy="660.1" r=".1" href="#P"><stop stop-color="#fff"/><stop offset=".68" stop-color="#aedef8"/><stop offset="1" stop-color="#009ee2"/></radialGradient><radialGradient id="g23" cx="475.2" cy="619.2" r="179.2" href="#P"><stop stop-color="#fff"/><stop offset=".38" stop-color="#95bdd2"/><stop offset=".71" stop-color="#3d758b"/></radialGradient><radialGradient id="g24" cx="661.3" cy="628.8" r="51.7" href="#P"><stop stop-color="#e7f5fd"/><stop offset=".46" stop-color="#80b5d0"/><stop offset=".71" stop-color="#006892"/></radialGradient><radialGradient id="g25" cx="646.9" cy="651.7" r=".1" href="#P"><stop stop-color="#fff"/><stop offset=".68" stop-color="#aedef8"/><stop offset="1" stop-color="#009ee2"/></radialGradient><radialGradient id="g26" cx="658.5" cy="610.8" r="179.4" href="#P"><stop stop-color="#fff"/><stop offset=".38" stop-color="#95bdd2"/><stop offset=".71" stop-color="#3d758b"/></radialGradient><radialGradient id="g27" cx="195.1" cy="426.2" r="45.4" href="#P"><stop stop-color="#fff"/><stop offset="1" stop-color="#a7c6d7"/></radialGradient><radialGradient id="g28" cx="767.6" cy="452.6" r="40" href="#P"><stop stop-color="#fff"/><stop offset="1" stop-color="#84afc5"/></radialGradient><radialGradient id="g29" cx="739" cy="476.4" r="41.6" href="#P"><stop stop-color="#fff"/><stop offset="1" stop-color="#84afc5"/></radialGradient><radialGradient id="g30" cx="431.1" cy="480" r="121.6" href="#P"><stop stop-color="#fff"/><stop offset="1" stop-color="#a7c6d7"/></radialGradient><radialGradient id="g31" cx="619.7" cy="483.3" r="80.8" href="#P"><stop stop-color="#fff"/><stop offset="1" stop-color="#84afc5"/></radialGradient><radialGradient id="g32" cx="681.7" cy="369.6" r="93.6" href="#P"><stop stop-color="#fff"/><stop offset="1" stop-color="#a7c6d7"/></radialGradient><radialGradient id="g33" cx="755.7" cy="310.1" r="40.2" href="#P"><stop stop-color="#fff"/><stop offset="1" stop-color="#c7dcea"/></radialGradient><radialGradient id="g34" cx="694.1" cy="437.8" r="126.9" href="#P"><stop stop-color="#fff"/><stop offset="1" stop-color="#a7c6d7"/></radialGradient><radialGradient id="g35" cx="300.7" cy="469.2" r="47.4" href="#P"><stop stop-color="#fff"/><stop offset="1" stop-color="#84afc5"/></radialGradient><radialGradient id="g36" cx="474.2" cy="420.2" r="120.2" href="#P"><stop stop-color="#fff"/><stop offset="1" stop-color="#a7c6d7"/></radialGradient><radialGradient id="g37" cx="448.8" cy="370.1" r="84.9" href="#P"><stop stop-color="#fff"/><stop offset="1" stop-color="#c7dcea"/></radialGradient><radialGradient id="g38" cx="260.3" cy="450.5" r="42.8" href="#P"><stop stop-color="#fff"/><stop offset="1" stop-color="#a7c6d7"/></radialGradient><radialGradient id="g39" cx="383.7" cy="459.6" r="83.3" href="#P"><stop stop-color="#fff"/><stop offset="1" stop-color="#84afc5"/></radialGradient><radialGradient id="g40" cx="273.4" cy="422.8" r="59" href="#P"><stop stop-color="#fff"/><stop offset="1" stop-color="#c7dcea"/></radialGradient><radialGradient id="g41" cx="331.7" cy="451.7" r="75.5" href="#P"><stop stop-color="#fff"/><stop offset="1" stop-color="#a7c6d7"/></radialGradient><radialGradient id="g42" cx="283" cy="383.6" r="50.4" href="#P"><stop stop-color="#fff"/><stop offset="1" stop-color="#c7dcea"/></radialGradient><radialGradient id="g43" cx="656.2" cy="438.3" r="103.3" href="#P"><stop stop-color="#fff"/><stop offset="1" stop-color="#84afc5"/></radialGradient><radialGradient id="g44" cx="615.1" cy="349.7" r="138.5" href="#P"><stop stop-color="#fff"/><stop offset="1" stop-color="#84afc5"/></radialGradient><radialGradient id="g45" cx="473.3" cy="480.3" r="91.9" href="#P"><stop stop-color="#fff"/><stop offset="1" stop-color="#84afc5"/></radialGradient><radialGradient id="g46" cx="543.5" cy="453.9" r="127.3" href="#P"><stop stop-color="#fff"/><stop offset="1" stop-color="#769cb0"/></radialGradient><radialGradient id="g47" cx="415" cy="426.6" r="115.9" href="#P"><stop stop-color="#fff"/><stop offset="1" stop-color="#a7c6d7"/></radialGradient><radialGradient id="g48" cx="547.7" cy="370.3" r="144.1" href="#P"><stop stop-color="#fff"/><stop offset="1" stop-color="#a7c6d7"/></radialGradient><radialGradient id="g49" cx="644.7" cy="268.7" r="91.4" href="#P"><stop stop-color="#fff"/><stop offset="1" stop-color="#c7dcea"/></radialGradient><radialGradient id="g50" cx="498.3" cy="296.7" r="79.1" href="#P"><stop stop-color="#fff"/><stop offset="1" stop-color="#c7dcea"/></radialGradient><radialGradient id="g51" cx="371.9" cy="364.2" r="70.7" href="#P"><stop stop-color="#fff"/><stop offset="1" stop-color="#c7dcea"/></radialGradient></defs><style>.a{fill:url(#g1)}.b{fill:url(#g2)}.c{fill:url(#g3)}.d{fill:url(#g4)}.e{fill:url(#g5)}.f{fill:url(#g6)}.g{fill:url(#g7)}.h{fill:url(#g8)}.i{fill:url(#g9)}.j{fill:url(#g10)}.k{fill:url(#g11)}.l{fill:url(#g12)}.m{fill:url(#g13)}.n{fill:url(#g14)}.o{fill:url(#g15)}.p{fill:url(#g16)}.q{fill:url(#g17)}.r{fill:url(#g18)}.s{fill:url(#g19)}.t{fill:url(#g20)}.u{fill:url(#g21)}.v{fill:url(#g22)}.w{fill:url(#g23)}.x{fill:url(#g24)}.y{fill:url(#g25)}.z{fill:url(#g26)}.A{fill:#fff}.B{fill:url(#g27)}.C{fill:url(#g28)}.D{fill:url(#g29)}.E{fill:url(#g30)}.F{fill:url(#g31)}.G{fill:url(#g32)}.H{fill:url(#g33)}.I{fill:url(#g34)}.J{fill:url(#g35)}.K{fill:url(#g36)}.L{fill:url(#g37)}.M{fill:url(#g38)}.N{fill:url(#g39)}.O{fill:url(#g40)}.P{fill:url(#g41)}.Q{fill:url(#g42)}.R{fill:url(#g43)}.S{fill:url(#g44)}.T{fill:url(#g45)}.U{fill:url(#g46)}.V{fill:url(#g47)}.W{fill:url(#g48)}.X{fill:url(#g49)}.Y{fill:url(#g50)}.Z{fill:url(#g51)}</style><path class="a" d="m390.7-9.5v4.7c-0.8 29.7-4.6 94.7-13.6 146.9-7.1 41.1-21.2 44.3-21.2 44.3l65.9-0.1c0 0-14-3.2-20.3-44.3-8-52.2-10.5-117.1-10.7-146.8z"/><path class="b" d="m581.9 124.2l-1.7 1.8c-11.6 10.2-75.5 66.1-105.6 74.3-23.8 6.5-43.1-10.9-43.1-10.9l84.5 86.5c0 0-16.8-19.6-10.2-43.6 8.4-30.4 64.2-94.6 74.5-106.2z"/><path class="c" d="m200.1 121.2l1.7 1.7c10.1 11.7 64.9 75.8 72.8 106.2 6.1 24-11.1 43.8-11.1 43.8l86.4-87c0 0-19.7 17.4-43.4 11-30-8.1-93.2-63.8-104.6-74.1z"/><path class="d" d="m195 505.1l1.7-1.7c11.4-10.1 74.5-65.2 104.5-73.4 23.6-6.5 42.9 10.6 42.9 10.6l-84.8-85.6c0 0 17 19.6 10.5 43.4-8.2 30.1-63.1 93.5-73.2 104.9z"/><path class="e" d="m68 316.5h4.6c29 0.4 92.6 3.4 143.8 11.8 40.5 6.5 43.5 20.7 43.5 20.7l0.4-66.4c0 0-3.2 14.3-43.7 21.1-51.4 8.7-115 12.1-144 12.7z"/><path class="f" d="m386.3 450.7c-74.1 0.4-133.8-59.8-133.4-134.8 0.4-75.4 61.3-136.7 136-136.8 74.7-0.2 134.2 60.7 133.2 135.9-1.1 74.9-61.7 135.4-135.8 135.7z"/><path class="g" d="m386.5 435.4c-69.1 0.2-125.1-54.3-126.4-122.8 0 1.1-0.1 2.2-0.1 3.3-0.4 71 56.2 128 126.4 127.7 70.1-0.2 127.6-57.7 128.6-128.5 0-1.1 0-2.2 0-3.3-2.7 68.4-59.5 123.3-128.5 123.6z"/><path class="h" d="m504 262.2c-19.4-44.4-63.3-75.3-114.9-75.2q-0.1 0-0.2 0-0.2 0-0.3 0c-51.6 0.1-96.2 31.2-116.5 75.9-4 8.8-3.1 10.7-1.3 11.8 1.5 0.8 4.1 0.6 8.3-3.5 23.8-21.1 63.8-35.1 109-35.2q0.2 0 0.3 0 0 0 0 0 0 0 0 0 0.1 0 0.3 0c45.2-0.1 84.8 13.6 108.1 34.6 4.2 4.1 6.7 4.3 8.3 3.5 1.7-1.2 2.7-3.1-1.1-11.9z"/><path class="i" d="m268.3 379.5c22.3 42.6 66.7 71.5 118 71.2 74-0.3 134.7-60.9 135.8-135.7 0.3-24.8-6-48.1-17.3-68.2-17.8 6.3-33 18.1-43.7 33.5q-4.3-0.5-8.7-0.5c-33.9 0.2-63.2 20.8-76.3 50.3-16.5 4.6-30.7 14.7-40.5 28.2q-6.4-1.3-13.1-1.4c-0.4 0-1 0-1.6 0-20.4 0-39.5 8.5-52.6 22.6z"/><path class="j" d="m496.8 270.6c4.2 4.1 6.7 4.3 8.3 3.5 1.7-1.2 2.7-3.1-1.1-11.9-1.9-4.3-4.1-8.4-6.4-12.5-5.7 2.6-11.1 5.8-16.2 9.6 5.7 3.5 10.9 7.3 15.4 11.3z"/><path class="k" d="m386.4 443.6c70.1-0.2 127.6-57.7 128.6-128.5 0-1.1 0-2.2 0-3.3-2.7 68.4-59.5 123.3-128.5 123.6-47.3 0.2-88.4-25.3-110.1-63.3q-1.4 1.1-2.7 2.2c20.8 41.4 63.4 69.6 112.7 69.3z"/><path class="l" d="m329 576.6c-1.8-11-0.1-19.8 2.9-27.7-5.1 6.7-11.7 12.9-22 17.2-9.3 3.8-16.4 7.8-21.3 16.5-6.6 11.8-3.4 26.1 6.8 31.7q0 0 0 0l0.2-0.4-0.2 0.4q0 0 0.1 0c10.1 5.6 24 0.7 30.6-11.1 4.8-8.6 4.5-16.8 2.9-26.6z"/><path class="m" d="m295.7 613.9l-0.1 0.2 0.1-0.2z"/><path class="n" d="m294 580.8c0 0 5.1-8.5 19.4-14 0 0-4.3 2.8-5.5 7.9 0 0-8.7 1.6-13.9 6.1z"/><path class="o" d="m389.8 659.4c-1.8-11 0-19.8 3-27.6-5.2 6.7-11.7 12.8-22 17.1-9.2 3.9-16.4 7.8-21.2 16.5-6.6 11.7-3.5 25.9 6.6 31.5q0.1 0 0.1 0l0.2-0.5-0.2 0.5q0 0 0 0c10.1 5.6 24 0.7 30.6-11.1 4.8-8.6 4.5-16.6 2.9-26.4z"/><path class="p" d="m356.5 696.5l-0.1 0.2 0.1-0.3z"/><path class="q" d="m354.9 663.5c0 0 5.1-8.4 19.4-13.9 0 0-4.3 2.8-5.5 7.9 0 0-8.7 1.6-13.9 6z"/><path class="r" d="m590.8 667.1c-1.7-10.9 0.1-19.7 3.1-27.4-5.1 6.6-11.7 12.7-22 17-9.2 3.8-16.3 7.8-21.2 16.4-6.7 11.8-3.6 25.9 6.4 31.4q0 0 0 0.1l0.3-0.5-0.2 0.5q0 0 0 0c10.1 5.5 23.8 0.7 30.5-11 4.9-8.6 4.6-16.7 3.1-26.5z"/><path class="s" d="m557.4 704.1l-0.1 0.2 0.1-0.2z"/><path class="t" d="m556 671.3c0 0 5.2-8.4 19.4-13.9 0 0-4.3 2.8-5.5 7.9 0 0-8.7 1.6-13.9 6z"/><path class="u" d="m497.2 622.8c-1.7-10.9 0.1-19.7 3.1-27.5-5.1 6.6-11.7 12.8-22 17.1-9.3 3.8-16.4 7.8-21.3 16.4-6.6 11.8-3.5 26 6.6 31.5q0 0.1 0 0.1l0.3-0.5-0.2 0.5q0 0 0 0c10.1 5.6 23.9 0.7 30.5-11.1 4.9-8.6 4.6-16.7 3-26.5z"/><path class="v" d="m463.9 660l-0.1 0.2 0.1-0.3z"/><path class="w" d="m462.4 627c0 0 5.1-8.5 19.4-13.9 0 0-4.3 2.7-5.5 7.9 0 0-8.7 1.5-13.9 6z"/><path class="x" d="m680.4 614.4c-1.6-10.9 0.2-19.7 3.2-27.5-5.1 6.6-11.7 12.8-22 17.1-9.3 3.8-16.4 7.8-21.3 16.4-6.7 11.8-3.7 26 6.3 31.5q0.1 0 0.1 0l0.2-0.4-0.2 0.5q0 0 0.1 0c10 5.5 23.8 0.7 30.5-11.1 4.9-8.6 4.6-16.7 3.1-26.5z"/><path class="y" d="m647 651.5l-0.2 0.2 0.2-0.2z"/><path class="z" d="m645.6 618.6c0 0 5.2-8.5 19.5-13.9 0 0-4.3 2.7-5.5 7.9 0 0-8.7 1.5-14 6z"/><path class="A" d="m241.6 451.2l151.5-46.9 44.6-72.7 89.7-14.4 154.5-27.1 62.8 97 55.8 78.8-38.7 19.4-185.1 39.4-130.7 0.6-148.1-37.3z"/><path class="B" d="m210.6 469.2c-8.8 0-15.8-6.6-15.7-14.9 0-8.2 7.1-14.9 15.8-14.9 8.7-0.1 15.8 6.6 15.7 14.8 0 8.3-7.1 14.9-15.8 15z"/><path class="C" d="m778.5 490.2c-12.9 0.1-23.1-10-22.8-22.5 0.2-12.5 10.9-22.7 23.8-22.8 12.9 0 23.1 10.1 22.9 22.6-0.3 12.5-11 22.7-23.9 22.7z"/><path class="D" d="m741.2 522.2c17.3 0.3 31.8-13.4 32.5-30.6 0.7-17.2-12.8-31.4-30.1-31.7-17.3-0.4-31.8 13.3-32.5 30.5-0.6 17.2 12.8 31.4 30.1 31.8z"/><path class="E" d="m404.9 568.1c16.7 0.3 30.8-13.4 31.3-30.6 0.6-17.2-12.6-31.4-29.4-31.7-16.8-0.3-30.8 13.5-31.3 30.7-0.6 17.2 12.6 31.4 29.4 31.6z"/><path class="F" d="m631.9 564.6c-22.8 0.1-41-18.3-40.7-41.3 0.4-23 19.2-41.8 42.1-41.9 22.9-0.1 41.1 18.5 40.7 41.5-0.4 22.9-19.2 41.6-42.1 41.7z"/><path class="G" d="m719.3 395.4c-22.9 0.1-41.1-18.6-40.7-41.8 0.4-23.2 19.4-42.1 42.4-42.2 23-0.1 41.2 18.7 40.7 41.9-0.5 23.2-19.4 42-42.4 42.1z"/><path class="H" d="m738.3 326.5c-11.5-8-25.4-9.3-36.5-4.7 10.3-6.4 23.4-7.7 35-2.1 16.1 7.7 23.6 26.1 18.6 43.1 1.9-13.2-4.3-27.6-17.1-36.3z"/><path class="I" d="m745 472.7c-31.1 0.1-55.7-25.1-55.1-56.5 0.6-31.5 26.3-57 57.5-57.1 31.1-0.2 55.8 25.2 55.1 56.6-0.7 31.4-26.4 56.9-57.5 57z"/><path class="J" d="m297.1 519.2c19.4 0.3 35.5-13.4 36-30.6 0.5-17.3-14.8-31.6-34.3-31.9-19.4-0.4-35.6 13.4-36.1 30.7-0.4 17.3 14.9 31.5 34.4 31.8z"/><path class="K" d="m444.4 428.5c-33.8 0.1-60.8-27.2-60.5-61.3 0.3-34.2 28-61.9 61.9-62 33.8-0.1 60.8 27.4 60.4 61.5-0.5 34.1-28.1 61.7-61.8 61.8z"/><path class="L" d="m418.3 327c-15.9 11.1-25.6 27.5-26.9 42.8-1.3-14.9 5-31.4 18.2-43.4 18.4-16.8 44-19.1 60.6-6.7-14-7.2-34.3-4.9-51.9 7.3z"/><path class="M" d="m247.3 484.3c18.6 0.3 34-14.1 34.4-32.4 0.5-18.3-14.3-33.5-32.9-33.9-18.6-0.4-34 14.2-34.4 32.5-0.4 18.3 14.3 33.4 32.9 33.8z"/><path class="N" d="m376.2 548.9c-30.7 0.1-55.3-24.6-55.1-55.5 0.2-30.9 25.3-56 56.2-56.2 30.7-0.1 55.3 24.8 55 55.7-0.3 30.8-25.4 55.8-56.1 56z"/><path class="O" d="m233.6 430.7c-10.3 6.9-16.1 17.8-16.2 28.2-1.7-10.3 1.8-21.4 10.2-29 11.7-10.7 29-11 41-1.7-9.9-5.6-23.6-5-35 2.5z"/><path class="P" d="m307.8 472.7c26.4 0.5 48.4-18.7 49.1-42.8 0.8-24.2-20.1-44.2-46.7-44.6-26.5-0.5-48.5 18.7-49.2 42.9-0.6 24.2 20.3 44.1 46.8 44.5z"/><path class="Q" d="m287.9 401.4c-14.2 9.5-22.2 24.5-22.3 38.9-2.3-14.3 2.5-29.5 14-40.1 16.2-14.7 40.2-15.2 56.6-2.2-13.7-7.8-32.5-7.1-48.3 3.4z"/><path class="R" d="m670.2 416.9c-31 12.6-46.5 47.9-34.7 78.8 11.8 30.8 46.3 45.5 77.2 33 30.9-12.5 46.5-47.7 34.8-78.5-11.7-31-46.3-45.9-77.3-33.3z"/><path class="S" d="m639.5 401.4c42.7 0.8 78.8-33.6 80.6-76.9 1.7-43.4-31.6-79.3-74.6-80.2-43-0.8-79.1 33.9-80.7 77.3-1.6 43.4 31.9 79.1 74.7 79.8z"/><path class="T" d="m463.6 578.5c33.1 0.6 60.8-25.9 62-59.2 1.1-33.3-24.8-60.8-58-61.3-33.2-0.6-61 26-62.1 59.4-1 33.2 25 60.6 58.1 61.1z"/><path class="U" d="m607.9 484.7c-16.4-33.3-56.8-46.4-90.3-29.2-33.4 17.2-47.1 58.1-30.6 91.3 16.4 33.1 56.8 46.1 90.1 29 33.3-17.1 47.1-57.9 30.8-91.1z"/><path class="V" d="m385.6 458.7c-28.5 0.2-51.5-23-51.2-51.8 0.2-28.8 23.6-52.2 52.2-52.3 28.7-0.1 51.6 23.1 51.3 51.9-0.4 28.8-23.7 52.1-52.3 52.2z"/><path class="W" d="m526.7 398.7c36.3 0.6 66.7-28.5 68.1-65.2 1.3-36.7-27.1-67.1-63.4-67.7-36.5-0.7-67 28.6-68.2 65.3-1.2 36.7 27.3 66.9 63.5 67.6z"/><path class="X" d="m652.4 263.7c-26.9-4.1-52.5 5.3-68.4 22.6 12.9-19.8 35-33 60-33.1 34.9-0.1 63.3 25.5 68.4 59.1-7.4-24.4-30.3-44.1-60-48.6z"/><path class="Y" d="m500.4 289.5c-19.6 13-30.6 33.6-30.9 53.4-3-19.7 3.6-40.6 19.6-55.1 22.2-20.2 55-20.9 77.4-3-18.7-10.8-44.5-9.7-66.1 4.7z"/><path class="Z" d="m363.8 373.3c-15.4 10.3-24.1 26.6-24.3 42.3-2.5-15.6 2.8-32.1 15.4-43.5 17.6-16.1 43.5-16.6 61.3-2.5-14.8-8.5-35.3-7.6-52.4 3.7z"/></svg>