<svg version="1.2" xmlns="http://www.w3.org/2000/svg" viewBox="0 0 800 700" width="800" height="700"><defs><linearGradient id="P" gradientUnits="userSpaceOnUse"/><radialGradient id="g1" cx="399.5" cy="301" r="546.6" href="#P"><stop stop-color="#f08800"/><stop offset=".53" stop-color="#ffec00"/><stop offset="1" stop-color="#fff48e"/></radialGradient><radialGradient id="g2" cx="399.4" cy="350.4" r="2030.4" href="#P"><stop stop-color="#f08800"/><stop offset=".53" stop-color="#ffec00"/><stop offset="1" stop-color="#fff48e"/></radialGradient><radialGradient id="g3" cx="399.4" cy="350.6" r="2030.4" href="#P"><stop stop-color="#f08800"/><stop offset=".53" stop-color="#ffec00"/><stop offset="1" stop-color="#fff48e"/></radialGradient><radialGradient id="g4" cx="399.6" cy="350.5" r="2030.5" href="#P"><stop stop-color="#f08800"/><stop offset=".53" stop-color="#ffec00"/><stop offset="1" stop-color="#fff48e"/></radialGradient><radialGradient id="g5" cx="399.6" cy="350.4" r="2030.5" href="#P"><stop stop-color="#f08800"/><stop offset=".53" stop-color="#ffec00"/><stop offset="1" stop-color="#fff48e"/></radialGradient><radialGradient id="g6" cx="350" cy="350.5" r="546.6" href="#P"><stop stop-color="#f08800"/><stop offset=".53" stop-color="#ffec00"/><stop offset="1" stop-color="#fff48e"/></radialGradient><radialGradient id="g7" cx="399.5" cy="400" r="546.6" href="#P"><stop stop-color="#f08800"/><stop offset=".53" stop-color="#ffec00"/><stop offset="1" stop-color="#fff48e"/></radialGradient><radialGradient id="g8" cx="449" cy="350.5" r="546.6" href="#P"><stop stop-color="#f08800"/><stop offset=".53" stop-color="#ffec00"/><stop offset="1" stop-color="#fff48e"/></radialGradient><radialGradient id="g9" cx="403.7" cy="356.1" r="452.8" href="#P"><stop stop-color="#f08800"/><stop offset=".53" stop-color="#ffec00"/><stop offset="1" stop-color="#fff48e"/></radialGradient><radialGradient id="g10" cx="399.5" cy="350.5" r="184.9" href="#P"><stop stop-color="#ffec00"/><stop offset="1" stop-color="#f08800"/></radialGradient><radialGradient id="g11" cx="395" cy="353.8" r="205.5" href="#P"><stop stop-color="#fff"/><stop offset=".49" stop-color="#ffec00"/><stop offset="1" stop-color="#f08800"/></radialGradient><linearGradient id="g12" x1="381" y1="316.6" x2="381" y2="204" href="#P"><stop stop-color="#f9d200"/><stop offset=".46" stop-color="#fded59"/><stop offset="1" stop-color="#f9f4f9"/></linearGradient></defs><style>.a{fill:url(#g1)}.b{fill:url(#g2)}.c{fill:url(#g3)}.d{fill:url(#g4)}.e{fill:url(#g5)}.f{fill:url(#g6)}.g{fill:url(#g7)}.h{fill:url(#g8)}.i{fill:url(#g9)}.j{fill:url(#g10)}.k{fill:url(#g11)}.l{fill:url(#g12)}</style><path class="a" d="m399.5-23v5.3c-0.6 33.9-4.4 108.1-14.2 168-7.8 47.3-24.3 51-24.3 51h77c0 0-16.5-3.7-24.3-51-9.8-59.9-13.6-134.1-14.2-168z"/><path class="b" d="m624 130.2l-2 2c-13.3 11.8-87.1 75.9-122.2 85.3-27.7 7.4-50.5-12.6-50.5-12.6l100.1 100.1c0 0-20-22.8-12.6-50.5 9.4-35.1 73.5-108.9 85.3-122.2z"/><path class="c" d="m179.2 126l2 2c11.8 13.3 75.9 87.1 85.3 122.2 7.4 27.7-12.6 50.5-12.6 50.5l100.1-100.1c0 0-22.8 20-50.5 12.6-35.1-9.4-108.9-73.5-122.2-85.3z"/><path class="d" d="m175 570.8l2-2c13.3-11.8 87.1-75.9 122.2-85.3 27.7-7.4 50.5 12.6 50.5 12.6l-100.1-100.1c0 0 20 22.8 12.6 50.5-9.4 35.1-73.5 108.8-85.3 122.2z"/><path class="e" d="m619.8 575l-2-2c-11.8-13.3-75.9-87.1-85.3-122.2-7.4-27.7 12.6-50.5 12.6-50.5l-100.1 100.1c0 0 22.8-20 50.5-12.6 35.1 9.4 108.8 73.5 122.2 85.3z"/><path class="f" d="m26 350.5h5.3c33.9 0.6 108.1 4.3 168 14.2 47.3 7.8 51 24.3 51 24.3v-77c0 0-3.7 16.5-51 24.3-59.9 9.8-134.1 13.5-168 14.1z"/><path class="g" d="m399.5 724v-5.3c0.6-33.9 4.3-108.1 14.2-168 7.8-47.3 24.3-51 24.3-51h-77c0 0 16.5 3.7 24.3 51 9.8 59.9 13.6 134.1 14.2 168z"/><path class="h" d="m773 350.5h-5.3c-33.9-0.6-108.1-4.4-168-14.2-47.3-7.8-51-24.3-51-24.3v77c0 0 3.7-16.5 51-24.3 59.9-9.8 134.1-13.6 168-14.2z"/><path class="i" d="m277.2 265.6l16.5-23.6-66-66c56.7 68.1 49.5 89.6 49.5 89.6zm122.3-203.4c-2 140.4-34.7 159.7-34.7 159.7l34.7 7.2zm-174.5 460.1c68.1-56.8 89.6-49.6 89.6-49.6l-23.6-16.5zm46-137.1l7.1-34.7h-166.9c140.4 2 159.8 34.7 159.8 34.7zm250.8 50.2l-16.5 23.6 66 66c-56.7-68.1-49.5-89.6-49.5-89.6zm-122.3 203.4c2-140.4 34.7-159.7 34.7-159.7l-34.7-7.1zm174.5-460.1c-68.1 56.7-89.6 49.5-89.6 49.5l23.6 16.5zm-45.9 137.2l-7.2 34.6h166.9c-140.4-2-159.7-34.6-159.7-34.6z"/><path class="j" d="m399.5 508.1c-87.2 0-157.7-70.4-157.7-157.6 0-87.2 70.5-157.6 157.7-157.6 87.2 0 157.7 70.4 157.7 157.6 0 87.2-70.5 157.6-157.7 157.6z"/><path class="k" d="m399.5 490.1c-81.2 0-147.3-63.8-149.3-143.4 0 1.3 0 2.5 0 3.8 0 82.5 66.8 149.3 149.3 149.3 82.5 0 149.3-66.8 149.3-149.3 0-1.3 0-2.5-0.1-3.8-1.9 79.6-68 143.4-149.2 143.4z"/><path class="l" d="m535.1 289.2c-23.3-51.5-75.1-87.3-135.3-87.3q-0.2 0.1-0.3 0.1-0.2 0-0.3-0.1c-60.2 0-112 35.8-135.3 87.3-4.7 10.2-3.5 12.3-1.5 13.7 1.9 0.9 4.9 0.7 9.8-4 27.6-24.4 74.2-40.4 127-40.4q0.1 0 0.3 0 0 0 0 0 0 0 0 0 0.2 0 0.3 0c52.8 0 99.4 16 127 40.4 4.9 4.7 7.9 4.9 9.8 4 2-1.4 3.2-3.5-1.5-13.7z"/></svg>